<svg xmlns="http://www.w3.org/2000/svg" viewBox="0 0 637.94 373.83"><defs><style>.cls-1{fill:#d4d4d4;}.cls-2{fill:#8b98af;}.cls-3{fill:#0ea5e9;}.cls-4{fill:#fdb19d;}.cls-5{fill:#fff;}.cls-6{fill:#22b573;}.cls-7{fill:#2458ea;}.cls-8{fill:#fbb03b;}.cls-9{fill:#e21010;}</style></defs><g id="Layer_2" data-name="Layer 2"><g id="OBJECTS"><path class="cls-1" d="M177.49,257.34q33.57-10.78,68-18.69c73.9-17,225.79-9.07,304.2,26.47,20.48,9.28,141.66,95.63,59,106.87l-260.48,1.1-292.31-.94S23.26,374,7,372.27a10.36,10.36,0,0,1-2.21-.47c-5.29-1.87-4.38-7.17-2.9-11.17,8.84-23.83,27.45-35.58,47.38-49,12.4-8.32,26.78-14.25,40.37-20.42A818,818,0,0,1,177.49,257.34Z"/><path class="cls-1" d="M177.69,258.07c35.21-11.29,71.15-21.32,108.06-24.85,33-3.15,66.41-3,99.51-1,35.11,2.15,70.24,6.53,104.54,14.42a359.1,359.1,0,0,1,44.56,13,132,132,0,0,1,24,11.18,313.79,313.79,0,0,1,48.94,37.53c7.73,7.23,15.22,14.95,21.21,23.7,4.19,6.13,8.63,13.79,7.84,21.52-1.35,13.31-19.63,17.62-30.61,17.67l-37.25.15-64.51.27-71.64.31-58.64.24c-8.51,0-17,.1-25.51.11-6.63,0-13.26,0-19.88-.06l-53-.17-69.68-.23-70.48-.22-55.24-.18c-8,0-16-.26-24-.08-9.41.22-18.8.82-28.23.86-3.93,0-7.86,0-11.8-.16-3.58-.13-9.1.35-12.18-1.65C-.68,367.6,2.45,361,4,357.39a67.5,67.5,0,0,1,6.74-12c10.57-15,27.1-25.83,42.5-35.37,9.2-5.7,19.09-10.18,29-14.59,10.69-4.79,21.36-9.61,32.19-14.1q31.15-12.92,63.3-23.24c.92-.3.53-1.75-.4-1.45q-34,11-67.06,24.82c-10.33,4.34-20.54,9-30.76,13.56-10,4.49-20,9.14-29.23,15.13-14.83,9.66-30.45,19.78-40.78,34.48a68.54,68.54,0,0,0-6.75,12C1.33,359.81-.35,363.44.07,367c.84,7.23,10.46,6.4,15.82,6.59,14.92.54,29.77-.73,44.67-.68l39.25.12,64.65.21,73.87.24,64.93.21,39.8.12q6.36,0,12.7,0l46.12-.2,69.54-.29,71.28-.3,52.41-.22,12.08-.05a47.37,47.37,0,0,0,18.55-4.46c6.41-2.9,11.72-8,12.16-15.32.46-7.66-3.69-15.15-7.83-21.27-12.2-18-29.92-32.61-47.13-45.64-7.56-5.72-15.31-11.21-23.35-16.22a132.08,132.08,0,0,0-23.48-11.13c-31-11.7-64-18.22-96.81-22.7a729.73,729.73,0,0,0-106-6.66c-29.8.31-60.06,2.11-89.17,8.84q-33.78,7.81-66.83,18.43C176.38,256.91,176.77,258.36,177.69,258.07Z"/><path class="cls-2" d="M396.84,310c13.75-2.15,30.45-5.15,40.08-13.33,4.66-4,8-9.38,6.59-14.81-3.5-13.55-46.86-14.5-60.49-15.66-24.13-2.06-48.7-1.43-71.56,4.15-6.15,1.51-12.26,3.41-17.06,6.67s-8.18,8.07-7.65,13.13S291.85,300,297.5,303s12.29,4.53,18.88,5.75A241.13,241.13,0,0,0,396.84,310Z"/><path class="cls-2" d="M397,310.73c11.61-1.82,23.81-3.74,34.28-9.39,5-2.69,9.9-6.6,12.19-11.94,1.57-3.69,1.52-8-1.1-11.17a19.43,19.43,0,0,0-7.45-5,61.34,61.34,0,0,0-11.11-3.36,192.76,192.76,0,0,0-25.91-3.39c-3.63-.28-7.26-.51-10.9-.75-5-.33-10-.79-15-1a233,233,0,0,0-43.55,1.65,156.69,156.69,0,0,0-21,4.26c-6.1,1.71-12.5,4.07-17,8.69-3.94,4-5.82,9.58-3.31,14.88s8.08,8.89,13.39,11.09c6.49,2.7,13.52,3.93,20.42,5.06q10.78,1.77,21.69,2.57a241.78,241.78,0,0,0,44-.79q5.22-.58,10.41-1.39c1-.15.55-1.6-.39-1.45a236.26,236.26,0,0,1-42.26,2.7,227,227,0,0,1-42.15-4.79c-6.24-1.34-12.64-3.18-17.86-7-4.37-3.19-8.18-8.3-6.49-14,1.77-5.92,7.68-9.6,13.06-11.82,6.19-2.56,12.89-4,19.45-5.22a211.27,211.27,0,0,1,41.79-3.3c9.92.14,19.8,1,29.69,1.67,8.14.54,16.29,1.19,24.35,2.44a105.06,105.06,0,0,1,11.92,2.48,38.47,38.47,0,0,1,9.5,3.78c2.08,1.24,4.2,2.94,5,5.3,1.9,5.64-2.27,11.22-6.35,14.66s-9.29,5.78-14.4,7.51a119.55,119.55,0,0,1-17,4.16c-2.76.51-5.53,1-8.29,1.39C395.69,309.43,396.09,310.87,397,310.73Z"/><path class="cls-2" d="M360.21,335.19c9.92-1.36,22-3.27,28.9-8.67,3.35-2.61,5.73-6.19,4.69-9.81-2.6-9-33.95-9.88-43.8-10.73-17.45-1.49-35.21-1.2-51.71,2.4-4.43,1-8.84,2.2-12.3,4.34s-5.86,5.33-5.46,8.7,3.74,6.6,7.84,8.62,8.91,3.08,13.67,3.92A189.72,189.72,0,0,0,360.21,335.19Z"/><path class="cls-2" d="M360.41,335.91c8.44-1.16,17.32-2.35,25-6.22,3.52-1.77,7.15-4.41,8.71-8.17A6.9,6.9,0,0,0,393,314a15,15,0,0,0-5.52-3.34,47.78,47.78,0,0,0-8.12-2.28A153.72,153.72,0,0,0,360.58,306c-6.29-.49-12.6-1-18.9-1.32a179.37,179.37,0,0,0-31.6,1,120.81,120.81,0,0,0-15,2.73c-4.35,1.11-9,2.66-12.28,5.87-2.79,2.73-4,6.56-2.09,10.14,2.06,3.8,6.26,6.1,10.15,7.57a75.4,75.4,0,0,0,14.85,3.39c5.17.81,10.38,1.4,15.59,1.78a189.32,189.32,0,0,0,31.5-.32c2.53-.24,5.06-.54,7.58-.88.95-.13.54-1.58-.4-1.45a185,185,0,0,1-59.81-1.6c-4.6-.89-9.37-2-13.38-4.54-3.12-1.95-6.54-5.34-5.31-9.37s5.79-6.43,9.53-7.79a78.07,78.07,0,0,1,14-3.3,165.48,165.48,0,0,1,29.75-1.94c7.16.14,14.29.77,21.43,1.26,5.75.39,11.51.84,17.22,1.67,5.25.77,10.92,1.66,15.67,4.16a8,8,0,0,1,3.77,3.37c1.69,3.7-1.62,7.56-4.34,9.65a32.22,32.22,0,0,1-10.38,4.89A92.6,92.6,0,0,1,366,333.59c-2,.32-4,.6-5.94.87C359.05,334.59,359.46,336,360.41,335.91Z"/><path class="cls-3" d="M394.52,181.33c-3-1.56-6.41-1.94-9.72-2.19-1.06-.08-3.05.18-3.89-.68-.36-.36-.6-5-.46-4.94a92,92,0,0,0-27.81,3.36l-.72,5c-12.56.18-21.37,12.83-25.46,23.38L316.87,230a7,7,0,0,1-1.5,2.62,2.35,2.35,0,0,1-2.78.48c-1.21-.77-1-2.57-.65-4,2-8,3.66-15.91,5.4-23.95.7-3.27,1.41-6.55,2.12-9.82.08-.39.5-3.92.88-4.06-7.54-1-15-3-22.43-4.54-2.94,9.71-5.88,19.46-7.78,29.44a101.86,101.86,0,0,0-1.81,14.86c-.19,4.83-1.09,9.62-.31,14.49s3.13,9.46,7.24,11.95a17.15,17.15,0,0,0,11,1.87c8-1,15.09-5.67,20.62-11.48s8.71-13.25,13.55-19.57c-.53,7.6-1.52,15.9-.67,23.48,4.45.23,9.11,2,13.64,2.62a132.39,132.39,0,0,0,15.78,1.33,142.26,142.26,0,0,0,31.48-3c.57-.13.45-14.56.5-16q.24-8,.49-16c.17-5.32.49-10.67.5-16a69.31,69.31,0,0,0-.85-13.5A14.58,14.58,0,0,0,396,182.2,13.11,13.11,0,0,0,394.52,181.33Z"/><path class="cls-3" d="M394.9,180.68c-3.67-1.84-7.73-2.17-11.76-2.32a4.61,4.61,0,0,1-1.11-.13,1.39,1.39,0,0,1-.51-.22,4.11,4.11,0,0,1-.22-1.49q-.09-.93-.12-1.86c0-.22,0-.43,0-.65,0-.49.12-.22-.18,0a.76.76,0,0,0-.53-1.28,93.31,93.31,0,0,0-28,3.39.73.73,0,0,0-.53.52l-.72,5,.73-.55c-12.69.27-21.32,12.15-25.73,22.82-3.35,8.06-6.34,16.29-9.5,24.43-.49,1.26-1.42,4.83-3.45,4.18-1.62-.52-.53-3.44-.27-4.49,1.06-4.26,2-8.55,3-12.84q1.56-7.2,3.1-14.41c.41-1.92.93-3.84,1.22-5.79.09-.6.18-1.2.28-1.8.06-.3.11-.61.19-.91s.29-.58,0-.38c.47-.31.51-1.28-.18-1.37-7.57-1.05-15-3-22.43-4.54a.78.78,0,0,0-.93.53c-2.83,9.36-5.66,18.75-7.56,28.36a108.18,108.18,0,0,0-2,14.67c-.28,4.84-1.05,9.82-.55,14.67a20.46,20.46,0,0,0,4.1,10.61,14.67,14.67,0,0,0,10.17,5.32c8.25.86,16.4-3.2,22.52-8.41a49.68,49.68,0,0,0,9.2-10.73c2.68-4.12,5-8.44,8-12.36l-1.4-.38c-.55,7.8-1.52,15.66-.67,23.48a.78.78,0,0,0,.75.75,46,46,0,0,1,8,1.45,72,72,0,0,0,7.86,1.47,130.31,130.31,0,0,0,16.52,1.07,132.82,132.82,0,0,0,16.32-1c2.72-.33,5.42-.74,8.12-1.21,1.26-.22,2.52-.46,3.77-.7.57-.12,1-.2,1.15-.76a8.72,8.72,0,0,0,.25-2.28c.06-1.28.09-2.56.11-3.84,0-2.73.06-5.46.06-8.19,0-9.26.59-18.54.9-27.8.19-5.86.4-11.88-.43-17.7-.71-5-2.83-9.88-7.48-12.36-.85-.45-1.61.84-.76,1.3,4.21,2.24,6.07,6.61,6.75,11.13a88.6,88.6,0,0,1,.49,15c-.22,9.75-.89,19.5-1,29.25,0,4.72.16,9.49-.25,14.2,0,.32-.06.45-.09.72s.05-.16,0-.17a10.47,10.47,0,0,0-2.15.41c-2.51.46-5,.88-7.56,1.23A134.48,134.48,0,0,1,374.5,255a127.44,127.44,0,0,1-17.79-.91,72.73,72.73,0,0,1-8.56-1.54,47.72,47.72,0,0,0-8.37-1.51l.75.75c-.85-7.82.12-15.68.67-23.48.06-.83-1-.91-1.4-.38-5,6.6-8.37,14.36-14.29,20.29C320,253.8,312.7,258.32,304.7,258.8c-4,.24-8.15-.66-11.13-3.5a17.44,17.44,0,0,1-4.83-9.92c-.74-4.62.09-9.31.31-13.93a106.19,106.19,0,0,1,1.64-14.12C292.58,207,295.6,197,298.63,187l-.92.53c7.46,1.57,14.86,3.48,22.43,4.54l-.18-1.38c-.77.51-.82,1.87-.95,2.68-.22,1.35-.46,2.67-.75,4q-1.49,6.87-3,13.74c-1,4.47-1.93,8.94-3,13.39a47.84,47.84,0,0,0-1.36,5.89c-.14,1.4.2,3,1.66,3.57a3.46,3.46,0,0,0,4-1.63,13.33,13.33,0,0,0,1.13-2.46l1.35-3.48,5.07-13.06c2.66-6.87,5.1-13.75,9.56-19.72s10.62-10.78,18.21-10.94a.75.75,0,0,0,.72-.55l.72-5-.52.52a92.25,92.25,0,0,1,27.61-3.33l-.53-1.28c-.63.56-.21,2.45-.15,3.15.09,1.09,0,2.59,1.08,3.22a5.13,5.13,0,0,0,2.41.51c1.08,0,2.13.06,3.2.16a21.65,21.65,0,0,1,7.68,1.95C395,182.41,395.76,181.12,394.9,180.68Z"/><path class="cls-4" d="M379.56,156.58c2.35-1.07,4.68-2.38,5.69-4.73a5.93,5.93,0,0,0-1.67-6.85,5.31,5.31,0,0,0-6.9.5c-.56-4.41-1.12-8.86-2.69-13s-4.25-8.06-8.14-10.21a23.61,23.61,0,0,0-9.88-2.44,71,71,0,0,0-11.2.07c-3.6.3-7.37,1-10.15,3.28a13.71,13.71,0,0,0-4.36,8.1,31.67,31.67,0,0,0-.39,7.72c.09,1.72.92,3.31.95,5,0,2-.44,4.32-.54,6.41-.42,8.92-1.57,23,9.88,25.28,4.84,1,9.72.34,14.55.93l.93,2.7c.13.34,6.62.22,7.26.18,4.29-.26,9.7-.59,13.67-2.33.29-3.16-.39-6.22-.47-9.36,0-1.23-.88-9.31.48-9.94C377.5,157.46,378.53,157,379.56,156.58Z"/><path d="M325.65,122.25a7.49,7.49,0,0,0-.11,7.17,21.08,21.08,0,0,0,4.86,5.8,27,27,0,0,1,9.83-10.43c-.75.46,7.81,9.09,8.74,9.72a26.71,26.71,0,0,0,11.09,4.24,47.85,47.85,0,0,0,11.22,0,27.92,27.92,0,0,0,2.57,6.66c.28.52.67,1.1,1.27,1.13.79.05,1.25-.87,1.48-1.64,1.54-5.31,2.49-11,1.57-16.42-.53-3.1-1.35-6.3-3.42-8.67-2.76-3.19-7.19-4.3-11.37-4.89a76.23,76.23,0,0,0-24.21.48c-3.34.61-6.72,1.27-9.68,3A10.32,10.32,0,0,0,325.65,122.25Z"/><path d="M325,121.88a8.46,8.46,0,0,0-.26,7.59,20.46,20.46,0,0,0,5.13,6.28.76.76,0,0,0,1.18-.15,26.52,26.52,0,0,1,9.56-10.16l-.91-1.18c-1,.79.78,2.53,1.24,3.08,1.33,1.59,2.77,3.09,4.22,4.57a35.87,35.87,0,0,0,3.21,3.08,24.55,24.55,0,0,0,9.46,4.14,41.31,41.31,0,0,0,13.45.34l-.73-.55a31.51,31.51,0,0,0,1.54,4.54c.49,1.14,1.05,2.88,2.19,3.55,2.81,1.66,3.61-3.95,4-5.47,1.38-6.11,1.66-12.86-.8-18.75a12.19,12.19,0,0,0-5.38-6.12,23.54,23.54,0,0,0-7.9-2.42,75.72,75.72,0,0,0-20.67-.28,52.43,52.43,0,0,0-10.9,2.2,13.44,13.44,0,0,0-7.58,5.71.75.75,0,0,0,1.3.75c2.78-4.87,9.09-5.88,14.14-6.72a75.37,75.37,0,0,1,18.25-.78c4.94.38,11.05.85,14.84,4.45A13.34,13.34,0,0,1,377,126.4a29,29,0,0,1,.72,8.41,43.32,43.32,0,0,1-1.8,9.7c-.18.6-.58,1.73-1.22.83a12.85,12.85,0,0,1-1-2,27.79,27.79,0,0,1-1.66-4.8.76.76,0,0,0-.72-.55,47.4,47.4,0,0,1-11,.05,24.82,24.82,0,0,1-9.55-3.33c-.37-.21-.72-.43-1.08-.66-.12-.08-.35-.24-.24-.15-.17-.13-.33-.28-.49-.43-.52-.48-1-1-1.53-1.48q-2-2-3.89-4c-.64-.7-1.28-1.41-1.87-2.16-.18-.24-.35-.47-.52-.72a1.17,1.17,0,0,0-.15-.27c.21.16-.06,0,0,0s0,.35-.17.51c.66-.54-.19-1.62-.91-1.18a28.14,28.14,0,0,0-10.1,10.7l1.18-.15c-3.36-3.12-7.17-7.22-4.63-12.06C326.75,121.78,325.45,121,325,121.88Z"/><path d="M341.84,203.64a200.28,200.28,0,0,0-2.47,38.59.75.75,0,0,0,1.5,0A198.51,198.51,0,0,1,343.29,204c.15-.94-1.3-1.35-1.45-.4Z"/><path class="cls-5" d="M346.19,121.62c4.17,5.54,9,11.68,16.32,12.74.94.14,1.35-1.31.39-1.45-6.93-1-11.47-6.8-15.41-12-.58-.76-1.88,0-1.3.76Z"/><path class="cls-5" d="M358.19,121.63a22.7,22.7,0,0,0,12.91,9.69.75.75,0,0,0,.4-1.44,21.17,21.17,0,0,1-12-9c-.51-.81-1.81-.06-1.29.76Z"/><path class="cls-5" d="M370.22,124.59a9.54,9.54,0,0,0,3.19,3.25.75.75,0,0,0,.75-1.3l-.42-.28-.22-.16s-.13-.11,0,0,0,0,0,0a10,10,0,0,1-.76-.69l-.34-.36-.17-.21-.08-.09,0,0,0,0-.09-.12c-.05-.07-.09-.14-.14-.2s-.19-.3-.28-.46a.76.76,0,0,0-1-.27.77.77,0,0,0-.27,1Z"/><path class="cls-5" d="M334.87,121.8a16,16,0,0,0-5.92,6.07c-.47.85.83,1.6,1.29.76a14.68,14.68,0,0,1,5.38-5.54.75.75,0,0,0-.75-1.29Z"/><path d="M347.34,138.84l5.34,4a.74.74,0,0,0,1-.26.76.76,0,0,0-.27-1l-5.34-4.05a.75.75,0,0,0-1,.27.76.76,0,0,0,.27,1Z"/><path d="M336,138.72a10.7,10.7,0,0,0-3.89,1.75.75.75,0,0,0-.27,1,.74.74,0,0,0,1,.27,10.8,10.8,0,0,1,1.74-1l.12-.05.24-.1.43-.15c.33-.11.67-.2,1-.28a.76.76,0,0,0,.53-.92.77.77,0,0,0-.92-.53Z"/><path d="M336.05,145.76l.11-.17a.71.71,0,0,0,.09-.28.51.51,0,0,0,0-.3.47.47,0,0,0-.13-.25.51.51,0,0,0-.21-.2l-.18-.07a.68.68,0,0,0-.4,0l-.18.07a.87.87,0,0,0-.27.27l-.1.17a.49.49,0,0,0-.09.28.61.61,0,0,0,0,.3.6.6,0,0,0,.14.26.55.55,0,0,0,.21.19l.18.08a.9.9,0,0,0,.4,0l.17-.08a.7.7,0,0,0,.27-.27Z"/><path d="M348.49,144.86l0,.14a.56.56,0,0,0,.14.25.51.51,0,0,0,.21.2.71.71,0,0,0,.28.09.61.61,0,0,0,.3,0l.18-.07a.87.87,0,0,0,.27-.27L350,145a.68.68,0,0,0,0-.4l0-.14a.56.56,0,0,0-.14-.25.51.51,0,0,0-.21-.2.66.66,0,0,0-.28-.09.61.61,0,0,0-.3,0l-.17.07a.7.7,0,0,0-.27.27l-.08.18a.68.68,0,0,0,0,.4Z"/><path d="M379.26,150.83l.18-.16c-.05,0-.08.06,0,0l.12-.08a3.3,3.3,0,0,1,.41-.23l.11-.05c.08,0-.12,0,0,0l.23-.08a3.89,3.89,0,0,1,.49-.12l.11,0c.11,0-.13,0,0,0l.24,0a2.8,2.8,0,0,1,.5,0h.12c.11,0,0,0,0,0s.19,0,.23,0a4.91,4.91,0,0,1,.51.15.74.74,0,0,0,.92-.52.78.78,0,0,0-.52-.93,4.67,4.67,0,0,0-4.67.94.75.75,0,0,0,0,1.06.76.76,0,0,0,1.06,0Z"/><path d="M335.25,165.32c.05-.47.17-1.72.89-1.66.35,0,.55.57.67.83.46.94.89,1.8,2,1.94a.75.75,0,0,0,.72-.55,1.74,1.74,0,0,1,3.32-.41.76.76,0,0,0,1.45,0,2.44,2.44,0,0,1,1-1.48c.3-.15,1,0,.83.43-.32.91,1.13,1.3,1.45.4.46-1.29-.83-2.44-2.06-2.42-1.43,0-2.24,1.49-2.64,2.67h1.45a3.21,3.21,0,0,0-6.21.41l.72-.55c-.33,0-.62-1-.73-1.2a2.9,2.9,0,0,0-1.13-1.36,2,2,0,0,0-2.24.35,3.83,3.83,0,0,0-1,2.6c-.12,1,1.39,1,1.5,0Z"/><path class="cls-4" d="M320.52,189.75c-.37,1.24-.7,2.13-.89,2.12a51,51,0,0,1-21.57-5.71c1.86-5.39,3.1-11.95,6.5-16.62,2.12-2.92,6.26-4.93,9.62-5.92a37.62,37.62,0,0,1,12.28-1.16c1.57.07,9.64-.17,10.12,1a1.92,1.92,0,0,1-.7,2.09,5.26,5.26,0,0,1-2.18.86,46.79,46.79,0,0,1-9.43,1.1l10.17-.6c1-.06,2.3.07,2.59,1s-.91,1.87-1.94,2.24a29,29,0,0,1-9.26,1.68c2.57,0,6.42-.83,8.79.45,4,2.14-4.3,4.38-6.25,4.68l7,.71c.84.08,1.93.46,1.85,1.29-.05.54-.59.87-1.08,1.09-2.77,1.26-5.37,1.3-8.33,1.37-.76,0-5.25,0-5.46.84C322.27,182.79,321.31,187.09,320.52,189.75Z"/><path d="M340.1,147.55,337.24,153c-.45.85-.93,1.7-1.34,2.57a3.38,3.38,0,0,0-.35,2.37,2,2,0,0,0,1.49,1.46,2.86,2.86,0,0,0,2.34-.88c1.57-1.32,3.07-2.72,4.61-4.08.73-.64-.34-1.7-1.06-1.06l-3.68,3.25c-.46.41-1.11,1.23-1.77,1.3s-.57-.72-.47-1.1a10.17,10.17,0,0,1,.93-1.94l1.18-2.27,2.27-4.34c.45-.86-.84-1.62-1.29-.76Z"/><path d="M373.72,228a13.45,13.45,0,0,0-3.09-1.52,15.07,15.07,0,0,0-9.91.43,20.92,20.92,0,0,0-11.59,10.93c-2.49,5.39-1.84,10.92-1.44,16.66.27,3.79.07,7.3.6,11.16,1.36,9.79,1.78,19.34,3.24,29.12a67.16,67.16,0,0,0,22-2.19l.47-3.34c-.31,2.26,13,2.92,14.23,2.93,4.36,0,8.95-1.36,11.76-4.7s3.42-8.11,3.55-12.54a92,92,0,0,0-2-22c-.16-.62-9.53,1.47-10.56,1.69a61.45,61.45,0,0,0-12-21.76A26.21,26.21,0,0,0,373.72,228Z"/><path d="M374.09,227.33c-9.51-6.1-21.52,1-25.68,10.27C346,243,346.57,248.89,347,254.66c.2,3.06.12,6.14.39,9.19.29,3.22.8,6.42,1.13,9.64.74,7.16,1.28,14.35,2.34,21.47a.75.75,0,0,0,.72.55,69,69,0,0,0,22.2-2.21.75.75,0,0,0,.53-.53l.46-3.34-1.47-.2c-.12,1.4,1.84,2,2.86,2.24a37.61,37.61,0,0,0,6.24,1c4.25.44,8.6.82,12.68-.75a13,13,0,0,0,7.06-6.09,23.54,23.54,0,0,0,2.17-9.85,87.85,87.85,0,0,0-.37-12.46c-.19-2-.45-4-.77-6-.16-1-.35-2-.54-3-.12-.62-.1-1.6-.63-2s-1.38-.22-2-.15c-1.15.13-2.29.34-3.42.55-1.94.36-3.87.78-5.8,1.2l.93.52a63.42,63.42,0,0,0-6.82-14.85c-2.85-4.52-6.3-9.27-10.79-12.28-.8-.54-1.55.76-.75,1.3a27.71,27.71,0,0,1,5.76,5.53,61.08,61.08,0,0,1,11.15,20.7.76.76,0,0,0,.92.52,66.43,66.43,0,0,1,9.46-1.75l.41,0c.18,0,.19.07.14,0,.07.09.21-.25-.13,0l-.17,0c0,.17.07.35.11.53.11.53.21,1.07.31,1.6.35,1.89.65,3.8.88,5.71a93.11,93.11,0,0,1,.65,11.2c0,6.13-.42,13.39-6.34,16.84-3.71,2.16-7.85,2.11-12,1.79a58.71,58.71,0,0,1-6.34-.79,14.63,14.63,0,0,1-2.6-.68,3.8,3.8,0,0,1-.77-.41c-.13-.09-.06-.08-.06-.09.07-.83-1.36-1-1.47-.2l-.47,3.34.53-.52A67.69,67.69,0,0,1,351.53,294l.72.55c-.9-6.09-1.41-12.22-2-18.35-.56-5.85-1.49-11.66-1.63-17.55-.13-5.44-1.2-11.1-.11-16.49a20.23,20.23,0,0,1,7.89-12.12c4.93-3.59,11.6-4.85,16.95-1.42C374.15,229.15,374.91,227.85,374.09,227.33Z"/><path class="cls-4" d="M351.69,294.36c.47,4.31,1.21,8.61,1.48,12.94.2,3.27,1.14,7.58-.29,10.64-1.05,2.24-3.25,3.69-5.35,5-1.84,1.17-10.8,4.9-8.83,7.59a3.17,3.17,0,0,0,3,1.08c5.18-.65,10.72-2.68,15.52-4.73s12-3,14.92-7.87c1.12-1.86,1.19-4.15,1.23-6.32q.18-10.45.37-20.92"/><path d="M340,228a13.38,13.38,0,0,0-3.08-1.52,15.1,15.1,0,0,0-9.92.43,20.93,20.93,0,0,0-11.58,10.93c-2.49,5.39-1.84,10.92-1.44,16.66.27,3.79.07,7.3.6,11.16,1.36,9.79,1.78,19.34,3.24,29.12a67.16,67.16,0,0,0,22-2.19c.16-1.11.31-2.23.47-3.34-.32,2.26,13,2.92,14.23,2.93,4.36,0,8.95-1.36,11.76-4.7s3.42-8.11,3.55-12.54a92,92,0,0,0-2-22c-.15-.62-9.52,1.47-10.55,1.69a61.45,61.45,0,0,0-12-21.76A26,26,0,0,0,340,228Z"/><path d="M340.36,227.33c-9.51-6.1-21.52,1-25.68,10.27-2.45,5.44-1.84,11.29-1.46,17.06.2,3.06.12,6.14.39,9.19.29,3.22.8,6.42,1.13,9.64.74,7.16,1.28,14.35,2.33,21.47a.76.76,0,0,0,.73.55A69,69,0,0,0,340,293.3a.75.75,0,0,0,.53-.53c.15-1.11.31-2.23.46-3.34l-1.47-.2c-.12,1.4,1.84,2,2.86,2.24a37.44,37.44,0,0,0,6.24,1c4.24.44,8.6.82,12.67-.75a13.11,13.11,0,0,0,7.07-6.09,23.54,23.54,0,0,0,2.17-9.85,89.36,89.36,0,0,0-.37-12.46c-.19-2-.45-4-.77-6q-.25-1.51-.54-3c-.13-.62-.1-1.6-.63-2s-1.38-.22-2-.15c-1.15.13-2.29.34-3.42.55-1.94.36-3.87.78-5.8,1.2l.92.52a62.62,62.62,0,0,0-6.82-14.85c-2.85-4.52-6.29-9.27-10.78-12.28-.8-.54-1.55.76-.75,1.3a27.91,27.91,0,0,1,5.75,5.53,59.38,59.38,0,0,1,4.66,6.48,61.37,61.37,0,0,1,6.5,14.22.76.76,0,0,0,.92.52,66.43,66.43,0,0,1,9.46-1.75l.4,0c.18,0,.2.07.15,0,.07.09.21-.25-.13,0l-.17,0c0,.17.07.35.11.53.11.53.21,1.07.31,1.6.35,1.89.65,3.8.87,5.71a91.11,91.11,0,0,1,.66,11.2c0,6.13-.42,13.39-6.34,16.84-3.71,2.16-7.86,2.11-12,1.79a58.71,58.71,0,0,1-6.34-.79,14.63,14.63,0,0,1-2.6-.68,3.87,3.87,0,0,1-.78-.41c-.12-.09-.05-.08-.05-.09.07-.83-1.36-1-1.48-.2-.15,1.11-.31,2.23-.46,3.34l.52-.52A67.63,67.63,0,0,1,317.8,294l.72.55c-.9-6.09-1.41-12.22-2-18.35-.56-5.85-1.49-11.66-1.63-17.55-.13-5.44-1.2-11.1-.11-16.49a20.18,20.18,0,0,1,7.89-12.12c4.93-3.59,11.6-4.85,16.95-1.42C340.42,229.15,341.17,227.85,340.36,227.33Z"/><path class="cls-4" d="M318,294.36c.47,4.31,1.21,8.61,1.48,12.94.19,3.27,1.13,7.58-.3,10.64-1,2.24-3.24,3.69-5.34,5-1.85,1.17-10.8,4.9-8.83,7.59a3.17,3.17,0,0,0,3,1.08c5.18-.65,10.71-2.68,15.52-4.73s12-3,14.91-7.87c1.13-1.86,1.2-4.15,1.24-6.32l.37-20.92"/><path class="cls-5" d="M347.15,236.34a175,175,0,0,0,.71,44.39q.9,6.24,2.26,12.4c.2.95,1.65.55,1.44-.39a173.46,173.46,0,0,1-3.87-43.82q.26-6.31,1-12.58c.1-1-1.4-1-1.5,0Z"/><path class="cls-5" d="M339.72,256.17q.45,18.24.92,36.46a.75.75,0,0,0,1.5,0q-.47-18.22-.92-36.46c0-1-1.53-1-1.5,0Z"/><path class="cls-5" d="M343.37,259.23l-2.58,6a.78.78,0,0,0,.27,1,.77.77,0,0,0,1-.27q1.29-3,2.57-6a.77.77,0,0,0-.27-1,.74.74,0,0,0-1,.27Z"/><path class="cls-5" d="M375,255.3l-2,37.12c0,1,1.45,1,1.5,0l2-37.12c.05-1-1.45-1-1.5,0Z"/><path class="cls-5" d="M378.43,257.15,375,261.86a.73.73,0,0,0,.27,1,.76.76,0,0,0,1-.27l3.45-4.7a.75.75,0,0,0-.27-1,.77.77,0,0,0-1,.27Z"/><path class="cls-5" d="M390.64,254a69,69,0,0,1,3.49,11.86c.19.95,1.63.55,1.44-.4a68.92,68.92,0,0,0-3.48-11.86c-.35-.89-1.8-.5-1.45.4Z"/><path class="cls-4" d="M344.13,269.9c1.92-.08,4-19.31,4-21.91-5.75-1.15-11.43-.94-17.16-1.54-5.9-.62-11.79-1.2-17.73-1.39a6.2,6.2,0,0,0-3,.4,2.14,2.14,0,0,0-1.23,2.48c.4,1.11,1.82,1.38,3,1.48l9.27.78a25,25,0,0,0-12-.33c-.74.16-1.6.49-1.76,1.22-.22,1,1.1,1.7,2.14,1.94l9.13,2.12a11.65,11.65,0,0,0-10.09-.45c-.78.38-1.62,1.07-1.45,1.91.14.69.88,1.06,1.53,1.31a34.17,34.17,0,0,0,8.33,2c-3.23-.35-7.08-1.42-10.17.37-2.91,1.68-1.08,4.28,1.48,5.37C319.6,270.35,332.07,270.17,344.13,269.9Z"/><path class="cls-3" d="M396.56,182.18c8.27,6.38,13.42,15.91,17.84,25.36a180,180,0,0,1,7.09,18.71c2.17,6.43,3.58,14.25,1.59,20.87-1.79,6-6.37,10.81-11.65,14.13-8.45,5.31-18.75,7.93-28.55,9.2-13.21,1.7-26.61.14-39.92.54a97.59,97.59,0,0,1,2.31-22.15c6.7-.93,13.5-.81,20.26-1.19s13.61-1.29,19.75-4.13,11.55-7.84,13.57-14.3c2.46-7.88-.37-16.33-3.19-24.09"/><path class="cls-3" d="M396,182.71c7.79,6.06,12.74,14.77,16.93,23.53a146.79,146.79,0,0,1,6.14,15.31c1.72,5,3.48,9.95,4,15.23.5,5-.08,10.07-2.66,14.48a28.52,28.52,0,0,1-9.94,9.68c-8.72,5.31-19,7.81-29.09,8.93-12.78,1.42-25.64,0-38.46.37l.75.75A98.7,98.7,0,0,1,346,249l-.52.52c12.08-1.64,24.67.07,36.4-3.89,9.56-3.22,17.9-10.71,18.61-21.27.46-6.7-1.85-13.27-4.1-19.47-.33-.9-1.78-.51-1.45.4,2,5.42,4,11,4.1,16.88a20.28,20.28,0,0,1-5,14c-7.12,8.12-18.25,10.15-28.51,10.73-6.83.38-13.68.29-20.46,1.21a.75.75,0,0,0-.53.53A100.52,100.52,0,0,0,342.21,271a.76.76,0,0,0,.75.75c11.85-.34,23.72.84,35.55-.09,10.46-.83,21.21-3.13,30.51-8.13a33.78,33.78,0,0,0,11.11-9.1,23,23,0,0,0,4.64-13.35,44.84,44.84,0,0,0-2.79-15.7c-1.81-5.36-3.64-10.72-5.9-15.91-4.45-10.23-10-20.83-19-27.81-.76-.59-1.83.47-1.07,1.06Z"/><path d="M391.37,208.52c3.45,5.75,7.23,12,7.2,18.92a16.21,16.21,0,0,1-2.1,8.2,12.75,12.75,0,0,1-7,5.44c-3.37,1.18-6.94,1.63-10.27,2.91-.89.34-.51,1.8.4,1.45,6-2.33,13.27-2.24,17.45-7.94,3.9-5.31,3.61-12.5,1.45-18.43a67.1,67.1,0,0,0-5.81-11.31.75.75,0,0,0-1.3.76Z"/><path d="M397.18,242.91l2.75,3a.75.75,0,0,0,1.06,0,.76.76,0,0,0,0-1.06l-2.75-3a.75.75,0,0,0-1.06,1.06Z"/><path d="M400.48,241.82l3.25,1.87a.75.75,0,0,0,1-.27.76.76,0,0,0-.27-1l-3.25-1.87a.75.75,0,0,0-1,.27.76.76,0,0,0,.27,1Z"/><path d="M379,175.93a68.3,68.3,0,0,1-24.7,2.72c-1-.07-1,1.43,0,1.5a69.62,69.62,0,0,0,25.1-2.77c.92-.28.53-1.73-.4-1.45Z"/><path d="M350.85,185c.3,2.47,2.31,3.91,4.58,4.54a30.09,30.09,0,0,0,8.13.94,35.23,35.23,0,0,0,8.43-1.08,22.48,22.48,0,0,0,6.84-2.75,7.59,7.59,0,0,0,3.77-5.72c.07-1-1.43-1-1.5,0-.17,2.51-2.35,4.18-4.43,5.23a27.65,27.65,0,0,1-8.07,2.41,33.88,33.88,0,0,1-8.94.21c-2.4-.26-6.93-.67-7.31-3.78-.12-1-1.62-1-1.5,0Z"/><path d="M354.64,183v2.36a.76.76,0,0,0,.75.75.77.77,0,0,0,.75-.75V183a.75.75,0,1,0-1.5,0Z"/><path d="M360.25,183.46c-.07.79-.14,1.57-.22,2.36a.79.79,0,0,0,.22.53.77.77,0,0,0,.53.22.73.73,0,0,0,.53-.22.85.85,0,0,0,.22-.53c.08-.79.15-1.57.22-2.36a.73.73,0,0,0-.22-.53.75.75,0,0,0-.53-.22.77.77,0,0,0-.53.22.87.87,0,0,0-.22.53Z"/><path d="M367.29,183.46v1.93a.75.75,0,1,0,1.5,0v-1.93a.76.76,0,0,0-.75-.75.77.77,0,0,0-.75.75Z"/><path d="M372.9,183l.42,1.72a.79.79,0,0,0,.35.45.78.78,0,0,0,.58.07.76.76,0,0,0,.52-.92l-.43-1.71a.75.75,0,0,0-.92-.53.76.76,0,0,0-.52.92Z"/><path d="M377.05,181.69l.64,1.5a.79.79,0,0,0,.45.35.74.74,0,0,0,.58-.08.71.71,0,0,0,.34-.45l0-.2a.79.79,0,0,0-.1-.37c-.22-.5-.43-1-.65-1.51a.74.74,0,0,0-.45-.34.72.72,0,0,0-.57.08.73.73,0,0,0-.35.44l0,.2a.8.8,0,0,0,.11.38Z"/><path d="M307.24,234.41l-3,3.43a.75.75,0,1,0,1.07,1.06l3-3.43a.76.76,0,0,0,0-1.06.75.75,0,0,0-1.06,0Z"/><path d="M309.05,236.7,306.69,241a.75.75,0,1,0,1.3.76l2.36-4.29a.76.76,0,0,0-.27-1,.77.77,0,0,0-1,.26Z"/><path d="M311.07,250.1a46.47,46.47,0,0,0,9.64.56c1,0,1-1.55,0-1.5a44.63,44.63,0,0,1-9.24-.5.76.76,0,0,0-.92.52.75.75,0,0,0,.52.92Z"/><path d="M311.08,254.66a57.86,57.86,0,0,0,9.49.55.75.75,0,0,0,0-1.5,55.43,55.43,0,0,1-9.1-.5.77.77,0,0,0-.92.52.76.76,0,0,0,.53.93Z"/><path d="M310.77,259.28a36.06,36.06,0,0,0,8,2.2.79.79,0,0,0,.93-.52.77.77,0,0,0-.53-.93,36.06,36.06,0,0,1-8-2.2.77.77,0,0,0-.93.52.79.79,0,0,0,.53.93Z"/><path d="M335,166c-3.15.11-6.3.36-9.43.72a.78.78,0,0,0-.75.75.75.75,0,0,0,.75.75c3.13-.36,6.28-.61,9.43-.72,1,0,1-1.54,0-1.5Z"/><path d="M333.66,170.61l-7.84,1.29a.75.75,0,0,0-.53.92.78.78,0,0,0,.93.53l7.84-1.29a.75.75,0,0,0,.52-.92.77.77,0,0,0-.92-.53Z"/><path d="M331.67,175.7l-6.43,1.57a.75.75,0,0,0,.39,1.45l6.44-1.57c.94-.23.54-1.68-.4-1.45Z"/><path d="M297.4,136.81a38.19,38.19,0,0,0-23.07,8.83A7.17,7.17,0,0,0,271.6,150a3.31,3.31,0,0,0,2.43,3.53c1.7.51,3.64.08,5.33-.26a34.82,34.82,0,0,0,5.73-1.68,36.08,36.08,0,0,0,10.06-6c3-2.5,6.09-5.68,7.25-9.5a7.42,7.42,0,0,0-3.42-8.82A14.26,14.26,0,0,0,289,126a13.53,13.53,0,0,0-9.19,6.07,15.26,15.26,0,0,0-1.35,11.09c1,4.22,3.35,8,5.9,11.39,1.83,2.46,5.2,6.53,8.57,3.92a6.58,6.58,0,0,0,2.1-4.16,49.5,49.5,0,0,0,.6-6.67,74.1,74.1,0,0,0-.83-14.42c-.62-4.05-1.78-8.3-4.93-11.14a9.24,9.24,0,0,0-10.17-1.62,17.49,17.49,0,0,0-8.06,8.21c-1.85,3.67-2.34,7.87,0,11.44,2.17,3.31,5.85,5.6,9.31,7.38a39.89,39.89,0,0,0,12.41,4c3.31.49,7.42,1,10.38-1,3.19-2.1,3-6.28.62-8.94a12.35,12.35,0,0,0-4.86-3.07,35.68,35.68,0,0,0-6.42-1.84,39.73,39.73,0,0,0-13.41-.27c-3.59.54-8.83,1.36-10.26,5.29a4.35,4.35,0,0,0,1.19,4.74,7.63,7.63,0,0,0,5.5,1.69,33.65,33.65,0,0,0,21.31-8.74c2.9-2.6,5.85-5.92,6.86-9.77.88-3.38-.23-7.43-3.56-9s-6.47.59-8.22,3.37a25.63,25.63,0,0,0-2.35,5.3,52,52,0,0,0-1.82,6.57,55.08,55.08,0,0,0-1.15,13.43c.13,3.05.06,8.17,3.41,9.68a4.35,4.35,0,0,0,4.7-1,8.75,8.75,0,0,0,2.2-5.21,28.24,28.24,0,0,0-.76-12.76,18.93,18.93,0,0,0-6.3-9.23c-2.6-2-6.34-3.78-9.72-3.06a3.72,3.72,0,0,0-3.09,2.75c-.39,2.06,1.26,3.82,2.41,5.31,2.39,3.09,5.09,6.21,8.82,7.66a9.8,9.8,0,0,0,9.72-1.14c.75-.61-.31-1.67-1.06-1.06-2.55,2.06-6.29,1.78-9.08.38-3.16-1.59-5.47-4.46-7.57-7.21-.86-1.12-2.68-3.11-1.33-4.49,1-1,2.75-1,4-.72a14.56,14.56,0,0,1,8.05,4.7,18.71,18.71,0,0,1,4.34,9,25.85,25.85,0,0,1-.24,11.21c-.43,1.66-1.51,3.59-3.45,3.69-1.55.07-2.42-1.36-2.83-2.66a20.1,20.1,0,0,1-.68-5,53,53,0,0,1,1.85-17.19c.88-3.19,1.9-6.89,4.13-9.44a4.94,4.94,0,0,1,3.71-2,4.66,4.66,0,0,1,3.68,2.28c2,3.1.63,6.78-1.27,9.56a31.69,31.69,0,0,1-16.08,11.71c-3.16,1-6.89,1.93-10.23,1.51-1.7-.22-3.71-1.2-3.87-3.12s1.39-3.2,2.88-3.91a22.07,22.07,0,0,1,5.37-1.49,38,38,0,0,1,17.26.92c3.17.92,7.34,2.3,8.35,5.86s-2.34,5.32-5.39,5.54a30.76,30.76,0,0,1-10.08-1.31,38.63,38.63,0,0,1-10.13-4.44c-2.81-1.74-5.87-4-7-7.27-1.21-3.59.42-7.41,2.47-10.36,1.88-2.69,4.67-5.21,8-5.8s6.52,1.42,8.31,4.22c2,3.21,2.58,7.2,3,10.9a74,74,0,0,1,.36,12.45,38.25,38.25,0,0,1-.57,5.55c-.27,1.28-.78,2.87-2.14,3.35-1.69.6-3.29-.92-4.31-2.06a40.68,40.68,0,0,1-3.28-4.44c-3.64-5.49-6.48-13.35-2.05-19.26,3.58-4.78,12.23-6.51,17.16-2.87,6.53,4.82-1.66,13.06-5.77,16.26a33.91,33.91,0,0,1-13.62,6.39,11.5,11.5,0,0,1-4.87.44c-2-.45-1.77-2.34-.86-3.71a14,14,0,0,1,3.81-3.42,36.85,36.85,0,0,1,19.78-6.69c1,0,1-1.54,0-1.5Z"/><path class="cls-6" d="M415.09,23.11c.1,2,.57,8.23.61,8.65A9.32,9.32,0,0,0,413,30.43a3.2,3.2,0,0,0-2.85.51c-1.27,1.11-1,3.23,0,4.62a5.07,5.07,0,0,0,2.46,1.95,3.32,3.32,0,0,0,3-.45c-.06.52-.48,7.56.22,7.51l10.81-.78a3.44,3.44,0,1,0,4.33.12c.63-.11,7.71-1.39,7.72-.81,0-2.63-.09-5.26-.13-7.89a3.2,3.2,0,1,1-4.95-4.05,3.34,3.34,0,0,1,4.66-.06c.12-3.27.06-6.48-.07-9.76l-8.92,1.77a4.13,4.13,0,0,0,1.25-5,3.54,3.54,0,0,0-5.2-1.13c-2.18,1.5-2.11,3.87-2.12,6.21l-8.19-.65A5.37,5.37,0,0,0,415.09,23.11Z"/><path class="cls-6" d="M414.34,23.11c.16,2.89.37,5.77.61,8.65l1.13-.64c-1.56-1-3.39-2-5.29-1.36a3.37,3.37,0,0,0-2.19,3.64c.31,3.35,4.29,6.53,7.44,4.3l-1.13-.64a29.13,29.13,0,0,0-.06,6.92,1.88,1.88,0,0,0,.4,1.07c.62.61,2.12.16,2.87.11l8.57-.62-.53-1.28a4.16,4.16,0,1,0,5.39.12l-.33,1.25c1.2-.21,2.4-.41,3.61-.59.78-.12,1.56-.22,2.34-.29a8.85,8.85,0,0,1,.89,0,1.08,1.08,0,0,0,.31,0,.61.61,0,0,1-.36-.41.76.76,0,0,0,1.48-.2c0-2.63-.09-5.26-.13-7.89,0-.59-.85-1.07-1.28-.54-1.3,1.65-4.12,1.29-4.43-1a2.45,2.45,0,0,1,4.14-2.06.76.76,0,0,0,1.28-.53c.11-3.25.06-6.51-.07-9.76a.76.76,0,0,0-.95-.72l-8.92,1.76.73,1.26c2.88-2.32,2.3-7.56-1.75-8.08a4.85,4.85,0,0,0-4.48,2.07c-1.14,1.6-1.11,3.66-1.12,5.53l.75-.75-8.19-.65a.77.77,0,0,0-.75.75c0,.2,0,.4,0,.6,0,1,1.54,1,1.5,0,0-.2,0-.4,0-.6l-.75.75,8.19.65a.74.74,0,0,0,.75-.75c0-2.41.2-6,3.44-6.14a2.66,2.66,0,0,1,2.68,2,3.48,3.48,0,0,1-1.33,3.58c-.63.52.08,1.39.73,1.26l8.92-1.77-.95-.72c.13,3.25.18,6.51.07,9.76l1.28-.53a3.92,3.92,0,1,0,.29,5.17l-1.28-.53c0,2.63.09,5.26.13,7.89l1.47-.2c-.31-1.29-3.15-.57-4-.46-1.56.21-3.12.47-4.67.74a.76.76,0,0,0-.33,1.26,2.67,2.67,0,1,1-3.27-.12.76.76,0,0,0-.53-1.28l-7.45.54-1.87.13a8.17,8.17,0,0,0-1.11.08l-.38,0,.52.28s0-.11-.07-.29-.05-.43-.06-.65a37.65,37.65,0,0,1,.14-6.1.75.75,0,0,0-1.13-.65c-2.17,1.53-4.83-.69-5.17-3a1.92,1.92,0,0,1,1.47-2.36c1.37-.25,2.65.62,3.74,1.32a.75.75,0,0,0,1.13-.65c-.24-2.88-.45-5.76-.61-8.65C415.78,22.15,414.28,22.14,414.34,23.11Z"/><path class="cls-6" d="M305.6,72.46c2.71-.12,5.43-.23,8.13-.37l-.59-8.42c0-.2-3.54-.06-7.93.2-.12-2.71-.23-5.41-.37-8.11l-8.42.59c-.2,0-.05,3.62.21,8.08-4,.28-7.41.54-8.12.62q0,3.14.11,6.27a1.5,1.5,0,0,0,1.91,1.83l6.65-.3c.28,4,.54,7.42.62,8.13l6.27-.11A1.5,1.5,0,0,0,305.9,79C305.79,76.79,305.7,74.63,305.6,72.46Z"/><path class="cls-6" d="M305.6,73.21c2.71-.12,5.42-.23,8.13-.37a.76.76,0,0,0,.75-.75l-.41-5.86a12.7,12.7,0,0,0-.21-2.76.86.86,0,0,0-.69-.58,10,10,0,0,0-2.73,0c-1.74.06-3.49.16-5.23.26l.75.75c-.12-2.71-.23-5.41-.37-8.11a.76.76,0,0,0-.75-.75l-5.86.41a12.7,12.7,0,0,0-2.76.21.88.88,0,0,0-.59.76,12.27,12.27,0,0,0,0,2.71c.07,1.78.16,3.55.27,5.33l.75-.75c-2.71.19-5.42.34-8.12.62a.76.76,0,0,0-.75.75c0,1.6.05,3.19.08,4.79,0,1.14-.21,2.78.79,3.6s2.46.43,3.56.38l5-.22-.75-.75c.19,2.71.34,5.43.62,8.13a.76.76,0,0,0,.75.75l4.79-.08c1.14,0,2.78.21,3.6-.79s.43-2.43.38-3.53c-.07-1.62-.14-3.24-.22-4.87,0-1-1.54-1-1.5,0,.06,1.2.11,2.41.16,3.61l.09,1.81a5.09,5.09,0,0,1,0,1.74c-.31.86-2.68.53-3.46.54l-3.87.07.75.75c-.28-2.7-.43-5.42-.62-8.13a.77.77,0,0,0-.75-.75l-3.7.16-1.84.09a5.27,5.27,0,0,1-1.77,0c-.86-.31-.53-2.68-.55-3.46l-.06-3.87-.75.75c2.7-.28,5.41-.43,8.12-.62a.78.78,0,0,0,.75-.75c-.15-2.49-.37-5-.3-7.5a1.21,1.21,0,0,0,0-.37.35.35,0,0,1-.17.29c-.26.26-.19.32.21.2a6.1,6.1,0,0,0,1.47-.1l1.1-.08,5.12-.36-.75-.75c.14,2.7.25,5.4.37,8.11a.76.76,0,0,0,.75.75c2.44-.14,4.92-.37,7.36-.28.1,0,.27,0,.24,0,.14,0,.08,0-.17-.15s-.32-.19-.2.21a6.1,6.1,0,0,0,.1,1.47l.08,1.1.36,5.12.75-.75c-2.71.14-5.42.25-8.13.37C304.64,71.75,304.64,73.25,305.6,73.21Z"/><path class="cls-7" d="M257.9,102.48c.68-7.21.75-14.72,1.09-22,0-.3-31.54.35-34.6.54a100,100,0,0,0-1.49,16.73c.13,5.61,1.26,11.33,4,16,5.87,9.84,20.5,12.42,27.22,2.16C256.64,112.05,257.46,107.18,257.9,102.48Z"/><path class="cls-7" d="M258.65,102.48c.35-3.77.54-7.56.69-11.34.07-1.88.13-3.76.2-5.64,0-.9.07-1.81.1-2.71a9.12,9.12,0,0,0,.08-2.55c-.21-.71-1.15-.6-1.73-.61-1.08,0-2.16,0-3.24,0-7.49,0-15,.2-22.46.38-2.63.06-5.28.07-7.9.23a.75.75,0,0,0-.72.56c-1,6.79-2,13.68-1.29,20.56.59,5.6,2.26,11.47,6.14,15.72,5.81,6.38,16.24,8.42,23.19,2.66,5.08-4.21,6.34-11,6.94-17.25.09-1-1.41-1-1.5,0-.51,5.34-1.48,11.15-5.38,15.15a13.61,13.61,0,0,1-10.67,4,17.12,17.12,0,0,1-10.79-4.87c-3.8-3.7-5.56-9.05-6.28-14.2-1-7.12.05-14.33,1.08-21.38l-.72.55c5.74-.36,11.53-.32,17.28-.43,3.68-.07,7.36-.13,11.05-.16,1.31,0,2.63,0,4,0a18.75,18.75,0,0,0,2.12,0c.19,0-.05,0-.06,0s0,0,0,0c-.6-.94-.43-.37-.54-.17a4.11,4.11,0,0,0-.06,1.45c0,.54-.05,1.08-.07,1.62-.08,2.06-.14,4.12-.22,6.18-.15,4.09-.34,8.17-.72,12.25C257.06,103.44,258.56,103.43,258.65,102.48Z"/><path d="M229.06,90.51A4.41,4.41,0,0,0,230.93,95a3.09,3.09,0,0,0,2.46.38,3.87,3.87,0,0,0,2.08-1.52,4.26,4.26,0,0,0,.79-2.83.78.78,0,0,0-.75-.75.76.76,0,0,0-.75.75,2.68,2.68,0,0,1-.12,1.2,2.18,2.18,0,0,1-.22.5l-.18.28-.09.13q0-.08,0,0a2.41,2.41,0,0,1-.82.65c-.08,0-.09,0,0,0l-.14.05a1.47,1.47,0,0,1-.28.08c-.09,0-.1,0,0,0h-.45c.16,0-.12,0-.15,0L232,93.9c.13,0-.12-.07-.15-.08l-.24-.16A2.84,2.84,0,0,1,231,93a2.73,2.73,0,0,1-.44-1,3,3,0,0,1,0-1A.77.77,0,0,0,230,90a.74.74,0,0,0-.92.52Z"/><path d="M245.71,91a4.67,4.67,0,0,0,3,4.66,3.81,3.81,0,0,0,4.53-2.2,4.93,4.93,0,0,0,.4-3.27.76.76,0,0,0-.92-.52.75.75,0,0,0-.52.92c.34,1.5-.6,3.49-2.18,3.75h-.17a1.83,1.83,0,0,1-.33,0l-.21,0a1.73,1.73,0,0,1-.32-.11,2.88,2.88,0,0,1-.94-.71,3.3,3.3,0,0,1-.82-2.46.75.75,0,0,0-.75-.75.76.76,0,0,0-.75.75Z"/><path d="M235.61,110.93c.74-2.44,2.25-5.72,5.21-5.85a2.8,2.8,0,0,1,2.7,1.59,3.07,3.07,0,0,1-.05,3c-.54.81.76,1.56,1.29.76a4.74,4.74,0,0,0-1.39-6.21c-2.43-1.63-5.49-.2-7.09,1.87a13.21,13.21,0,0,0-2.11,4.39.75.75,0,0,0,1.44.4Z"/><path class="cls-5" d="M230.51,96.93a5.57,5.57,0,0,0-.44,2.34,2.69,2.69,0,0,0,.93,1.88,2,2,0,0,0,2.2.28,2.5,2.5,0,0,0,1.25-1.65,5.11,5.11,0,0,0-.32-2.7.75.75,0,1,0-1.45.4,8.34,8.34,0,0,1,.26.89,2,2,0,0,1,.05.24.36.36,0,0,1,0,.1s0-.11,0,0a3.93,3.93,0,0,1,0,.49s0,.07,0,.1,0,.13,0,0,0,.07,0,.1a1.21,1.21,0,0,1-.05.18s0,.11,0,0,0,0,0,0l-.08.14s-.1.17-.05.08-.06.06-.08.09l-.08.08c.07-.07,0,0-.07,0l-.09,0,.06,0s-.12,0-.15.05-.11,0,0,0,0,0,0,0h-.1c-.08,0,.06,0,.07,0a.83.83,0,0,0-.15,0c-.13,0,.11.07,0,0s-.17-.07-.18-.1.11.09.05,0l-.06,0a.57.57,0,0,1-.11-.11l-.06-.06c-.07-.07.08.11,0,0s-.07-.1-.1-.16-.06-.14-.07-.14l0,0,0-.07c0-.06,0-.12,0-.19s0,0,0-.07,0,0,0,0a3,3,0,0,1,0-.52.41.41,0,0,1,0-.11c0,.08,0,0,0,0l.06-.28c.09-.34.2-.68.32-1a.75.75,0,0,0-.52-.92.77.77,0,0,0-.93.52Z"/><path class="cls-8" d="M377,23.29c.77-7.2.84-14.72,1.24-22,0-.3-35.71.34-39.17.54-.91,5.54-1.83,11.12-1.68,16.73s1.42,11.32,4.56,16c6.64,9.84,23.2,12.43,30.8,2.17C375.52,32.86,376.45,28,377,23.29Z"/><path class="cls-8" d="M377.7,23.29c.43-4.13.65-8.28.82-12.43.09-2.11.17-4.23.26-6.35,0-1,.11-1.93.14-2.89,0-.49,0-.91-.55-1.09a5.89,5.89,0,0,0-1.78-.09c-1.32,0-2.64,0-4,0-8.35,0-16.69.2-25,.38-2.85.06-5.72.07-8.57.23a.77.77,0,0,0-.72.55c-1.16,7-2.33,14.15-1.36,21.26.77,5.69,2.93,11.49,7.27,15.44,6.7,6.1,18,7.92,25.54,2.34,5.57-4.1,7.24-10.8,7.95-17.35.1-.95-1.4-.95-1.5,0-.61,5.58-1.89,11.43-6.28,15.3a16.67,16.67,0,0,1-11.84,3.87A20.83,20.83,0,0,1,346.13,38c-4.18-3.37-6.46-8.44-7.44-13.63-1.41-7.42-.15-15,1.06-22.35l-.73.55c6.33-.35,12.69-.32,19-.43,6.55-.1,13.15-.39,19.7-.16.07,0,.25,0,.32,0s-.15-.07-.09,0l-.28-.17c-.28-.3-.38-.23-.29.18a3.36,3.36,0,0,0,0,.9c-.1,2.24-.19,4.47-.28,6.71-.18,4.57-.39,9.15-.87,13.7C376.1,24.25,377.6,24.25,377.7,23.29Z"/><path d="M361.41,25.6a10.49,10.49,0,0,1-2.56,4.33A4.75,4.75,0,0,1,355,31.4c-2.79-.42-3.75-3.65-3.18-6,.22-.93-1.22-1.33-1.44-.39a6.66,6.66,0,0,0,2.37,7.13c2.43,1.67,5.49.62,7.39-1.35A12.36,12.36,0,0,0,362.85,26c.32-.92-1.13-1.31-1.44-.4Z"/><path d="M346.16,15.36a3.3,3.3,0,0,1,1.94-3.8,2.91,2.91,0,0,1,3.67,1.73,2.94,2.94,0,0,1,.05,2.43.76.76,0,0,0,.53.92.77.77,0,0,0,.92-.52,4.78,4.78,0,0,0-2.09-5.67,4.37,4.37,0,0,0-5.89,1.65,4.43,4.43,0,0,0-.57,3.66.75.75,0,0,0,1.44-.4Z"/><path d="M364.36,15.34a3,3,0,0,1,2.3-3.22,2.69,2.69,0,0,1,3,1.76,2.62,2.62,0,0,1,0,2.16.75.75,0,0,0,1.45.39,4.5,4.5,0,0,0-1.6-5.09A4.11,4.11,0,0,0,364,12a4.27,4.27,0,0,0-1.15,3.31.78.78,0,0,0,.75.75.76.76,0,0,0,.75-.75Z"/><path class="cls-5" d="M340.25,5.79a27.21,27.21,0,0,0-1,8.61c.05,1,1.55,1,1.5,0a25.6,25.6,0,0,1,.92-8.21.75.75,0,0,0-1.45-.4Z"/><path class="cls-5" d="M340.9,18.07a.75.75,0,0,0,0-1.5.75.75,0,0,0,0,1.5Z"/><path class="cls-9" d="M305,3c-2.61,2.4-3.79,6.09-5.49,9.12-1.06-2.38-1.85-5.28-3.66-7.21a8,8,0,0,0-7.65-2.58c-3.63,1-5.7,5.11-5.34,8.84s2.58,7,5.11,9.79A42.64,42.64,0,0,0,301.85,31c1.47.66,3.15,1.24,4.66.7,1.67-.6,2.59-2.36,3.32-4a123.61,123.61,0,0,0,5.66-15.26c1-3.4,1.71-7.54-.75-10.09S307.62.53,305,3Z"/><path class="cls-9" d="M304.43,2.46c-2.69,2.54-3.86,6.11-5.61,9.27h1.3c-1.46-3.33-2.44-6.85-5.68-8.93a7.73,7.73,0,0,0-9.18.21,9.7,9.7,0,0,0-3.16,8.45c.44,3.77,2.61,7,5.09,9.79a42.91,42.91,0,0,0,9,7.6,40.33,40.33,0,0,0,5.26,2.83c1.71.77,3.65,1.44,5.49.68a6.7,6.7,0,0,0,3.17-3.48c.93-1.89,1.71-3.86,2.49-5.81A85.33,85.33,0,0,0,316.67,11c.8-3.47.89-7.83-2.5-10C311.11-.95,307,.2,304.43,2.46c-.73.64.34,1.7,1.06,1.06,2-1.77,5.26-2.76,7.71-1.37,2.81,1.6,2.7,5.24,2.12,8a72.4,72.4,0,0,1-3.26,10.23q-1,2.73-2.17,5.4a16.91,16.91,0,0,1-2.12,4.12c-1.24,1.52-2.94,1.5-4.66.87a30.1,30.1,0,0,1-4.66-2.3,41.79,41.79,0,0,1-8.13-6.11c-4.17-4-9.12-10.42-5.61-16.37a6.07,6.07,0,0,1,8.48-2.17c3.3,1.84,4.22,5.46,5.63,8.69a.75.75,0,0,0,1.3,0c1.68-3,2.79-6.53,5.37-9C306.19,2.85,305.13,1.79,304.43,2.46Z"/><path d="M299,11.72a10.57,10.57,0,0,1-2.21,4.41.76.76,0,0,0,.53,1.28l7.66,0-.53-1.28-3.74,4.42a.76.76,0,0,0,.33,1.25l3.21,1.1c.92.31,1.31-1.14.4-1.45l-3.21-1.1.33,1.26,3.74-4.42a.76.76,0,0,0-.53-1.28l-7.66,0,.53,1.28a12.21,12.21,0,0,0,2.6-5.07c.22-.94-1.23-1.34-1.45-.4Z"/><path class="cls-5" d="M288.13,4.34a6.29,6.29,0,0,0-3,7.14.75.75,0,0,0,1.44-.4,4.72,4.72,0,0,1,.2-3.08,4.63,4.63,0,0,1,2.15-2.36.75.75,0,0,0-.76-1.3Z"/><path class="cls-5" d="M290.8,5.15a.75.75,0,0,0,0-1.5.75.75,0,0,0,0,1.5Z"/><path d="M249.52,59.14c5.69-2,11.35-4.19,16.85-6.63,5.31-2.36,10.2-5.32,15.39-7.91a2.82,2.82,0,0,0,1.53-1.3,2.65,2.65,0,0,0-.16-1.83c-1.06-3-2.87-5.24-4.58-7.87-1.29-2-2.78-3.4-5.3-3.68a7.79,7.79,0,0,0-8.09,5.46,8.21,8.21,0,1,0-16,2.33,6.66,6.66,0,0,0-9.69-2.07c-3.08,2.49-2.74,7.32,0,9.89-1.95.18-3.17.06-4.36,1.85a8.24,8.24,0,0,0-1.21,5.22c.24,2.74,1.52,5.27,2.78,7.72.37.71.83,1.5,1.62,1.66a2.7,2.7,0,0,0,1.19-.13C242.83,60.94,246.2,60.33,249.52,59.14Z"/><path d="M249.72,59.87q7.46-2.58,14.71-5.7c4.73-2,9.24-4.46,13.78-6.89,1.09-.58,2.19-1.15,3.29-1.71a5.21,5.21,0,0,0,2.32-1.66c1.05-1.77-.64-4.47-1.52-6a58.8,58.8,0,0,0-3.72-5.58,7.64,7.64,0,0,0-4.3-3,8.54,8.54,0,0,0-9.85,5.84l1.48.2c0-5.38-5.36-10-10.7-8.93-5,1-8.23,6.66-6.81,11.46l1.38-.58a7.45,7.45,0,0,0-10.54-2.48c-3.67,2.67-3.43,8.18-.36,11.21l.53-1.28a9.25,9.25,0,0,0-3.22.56,5.29,5.29,0,0,0-2.36,2.72c-1.28,2.87-.78,6,.36,8.86a30.28,30.28,0,0,0,2,4.26,2.73,2.73,0,0,0,3.1,1.47,84.64,84.64,0,0,0,10.39-2.78c.9-.32.51-1.77-.4-1.45-2.66.94-5.42,1.54-8.16,2.21-.69.17-1.38.38-2.08.53a1.24,1.24,0,0,1-1.55-.74A26.47,26.47,0,0,1,235.82,57c-1-2.34-1.69-5-.93-7.46a4.53,4.53,0,0,1,1.88-2.77,7,7,0,0,1,2.64-.45.76.76,0,0,0,.53-1.28c-2.42-2.39-2.78-6.89.25-9a5.93,5.93,0,0,1,8.29,2.08.75.75,0,0,0,1.37-.58A7.85,7.85,0,0,1,255.37,28c4.46-1,9,3,9,7.43a.75.75,0,0,0,1.47.2A7,7,0,0,1,274,30.82a6.61,6.61,0,0,1,3.74,2.93C278.86,35.37,280,37,281,38.68a17.79,17.79,0,0,1,1.3,2.67,2.71,2.71,0,0,1,.29,1.57c-.17.56-.73.79-1.21,1-1.89,1-3.77,1.95-5.64,3-4,2.13-7.93,4.18-12.07,6q-7.07,3-14.35,5.55C248.41,58.73,248.8,60.18,249.72,59.87Z"/><path class="cls-8" d="M267.34,52.38c-2.19.8-4.35,1.4-6.49,2.3q1-5,2-10c-2.7,1.06-9.33,3.67-9.7,4.2s-.44,8.23-.68,11.38a22.29,22.29,0,0,0,6-1.43,95.54,95.54,0,0,0,.69,13.52A70,70,0,0,0,267.34,52.38Z"/><path class="cls-8" d="M267.14,51.66c-2.16.78-4.37,1.43-6.49,2.3l.92.92q1-5,2-10c.1-.5-.34-1.15-.92-.92-2.06.8-4.11,1.61-6.14,2.47-.94.4-1.88.79-2.8,1.24a2.53,2.53,0,0,0-1.27,1,5.1,5.1,0,0,0-.26,1.74c-.08,1-.12,2.07-.16,3.11-.09,2.26-.13,4.53-.3,6.79a.76.76,0,0,0,.75.75,24.26,24.26,0,0,0,6.23-1.46l-.95-.72a98.53,98.53,0,0,0,.69,13.52.76.76,0,0,0,1.4.37,71.52,71.52,0,0,0,8.23-20.12c.22-.94-1.22-1.34-1.45-.4A70.42,70.42,0,0,1,258.54,72l1.39.38a98.53,98.53,0,0,1-.69-13.52.76.76,0,0,0-.95-.73,22.47,22.47,0,0,1-5.83,1.41l.75.75c.15-2.06.2-4.14.27-6.21,0-1,.08-2,.14-3,0-.58.2-1.24.18-1.81,0-.22-.16.12-.07.11-.12,0,.11-.06.18-.1.27-.15.55-.28.83-.42.84-.4,1.71-.77,2.57-1.13,1.9-.79,3.81-1.55,5.73-2.3l-.92-.92q-1,5-2,10c-.09.5.35,1.16.93.93,2.12-.88,4.33-1.53,6.49-2.31C268.44,52.78,268.05,51.33,267.14,51.66Z"/><path class="cls-5" d="M238.72,47.85a5.16,5.16,0,0,0-1.34,7.1.75.75,0,1,0,1.29-.75,3.17,3.17,0,0,1-.6-1.34,4,4,0,0,1,0-1.34,3.45,3.45,0,0,1,.48-1.35,3.22,3.22,0,0,1,.95-1,.75.75,0,0,0-.76-1.3Z"/><path class="cls-5" d="M242,42.32c-.06,0-.11-.11-.16-.16l-.08-.09c-.09-.11.1.13,0,0a4.28,4.28,0,0,1-.26-.42.47.47,0,0,0-.05-.1c-.06-.15,0,.1,0,0a2,2,0,0,1-.08-.22,4.15,4.15,0,0,1-.11-.48l0,.19a3.05,3.05,0,0,1,0-.74l0,.2v0a.83.83,0,0,0-.08-.58.74.74,0,0,0-.45-.34.75.75,0,0,0-.92.52,3.84,3.84,0,0,0,.14,1.78,3.93,3.93,0,0,0,.94,1.5.76.76,0,0,0,1.06,0,.78.78,0,0,0,0-1.07Z"/><path class="cls-5" d="M274.39,32.77a4.23,4.23,0,0,0-5.81,2.44.76.76,0,0,0,.52.93.77.77,0,0,0,.92-.53l.06-.17c.06-.18-.07.14,0,0a2.69,2.69,0,0,1,.16-.29.83.83,0,0,1,.08-.12c0-.06.09-.14,0,0a2.85,2.85,0,0,1,.23-.26,1.7,1.7,0,0,1,.24-.22c.05,0,.09-.07,0,0l.14-.11.3-.18.14-.07s.19-.09.1,0l.07,0,.17-.06.31-.08.18,0h0l.35,0h.33c.17,0,0,0,0,0a.58.58,0,0,1,.14,0,1.89,1.89,0,0,1,.34.09s.2.09,0,0l.16.08a.75.75,0,1,0,.76-1.3Z"/><path class="cls-5" d="M252,173.91c-2.14-.06-4.19-.28-6.33-.25a43.1,43.1,0,0,1,2.81-4.15c.28-.34,2.87-3.87,2.9-3.87l-3.59.13a44.69,44.69,0,0,0,4.92-10.15,44.2,44.2,0,0,1-9.52-1.1q-3.09,5.41-6.2,10.82a16.6,16.6,0,0,0,3.71.35c-1.63,3.15-2.49,6.61-4.08,9.86a21.08,21.08,0,0,0,5.64.83,87.35,87.35,0,0,0-4,11.77A64.38,64.38,0,0,0,252,173.91Z"/><path d="M252,173.16c-2.11-.07-4.21-.27-6.33-.25l.65,1.13c1.11-1.72,2.25-3.39,3.47-5l1.33-1.79.56-.75c.09-.13.29-.36.23-.3a.76.76,0,0,0-.53-1.28l-3.59.13.65,1.13a46.91,46.91,0,0,0,5-10.33.76.76,0,0,0-.73-.95,44.34,44.34,0,0,1-9.32-1.08.77.77,0,0,0-.84.35L236.33,165a.76.76,0,0,0,.45,1.11,19.6,19.6,0,0,0,3.9.37l-.64-1.13c-1.62,3.18-2.54,6.65-4.09,9.86a.76.76,0,0,0,.45,1.1,22.66,22.66,0,0,0,5.84.86l-.65-1.13a90.08,90.08,0,0,0-4.1,11.95c-.15.58.55,1.27,1.1.85a66.42,66.42,0,0,0,14-14.51c.56-.79-.74-1.54-1.3-.76a64.18,64.18,0,0,1-13.5,14l1.1.84a87.46,87.46,0,0,1,4-11.59.77.77,0,0,0-.65-1.13,20.82,20.82,0,0,1-5.44-.81l.45,1.1c1.54-3.2,2.46-6.68,4.08-9.85a.76.76,0,0,0-.65-1.13,17.24,17.24,0,0,1-3.51-.32l.45,1.1q3.1-5.41,6.2-10.82l-.85.34a46.16,46.16,0,0,0,9.72,1.13l-.72-1a45.08,45.08,0,0,1-4.85,10,.76.76,0,0,0,.65,1.13l3.59-.13-.53-1.28a23.82,23.82,0,0,0-2.25,3c-1.2,1.62-2.41,3.36-3.57,5.16a.75.75,0,0,0,.64,1.13c2.12,0,4.22.18,6.33.25C252.94,174.7,252.94,173.2,252,173.16Z"/><path class="cls-7" d="M367.24,71.6c-4.35-3.09-9.63-3.46-14.7-3.13-2.68.18-5.34-.18-8,.14-4.6.55-9.19,2.17-12.54,5.36s-5.22,8.13-4,12.6c1.07,4,4.39,7,8.14,8.68a31.55,31.55,0,0,0,12,2.15c5.43.13,11-.3,15.88-2.75s8.78-7.32,8.77-12.75A13,13,0,0,0,367.24,71.6Z"/><path class="cls-7" d="M367.62,71a20.93,20.93,0,0,0-12-3.34c-2.32,0-4.63.17-7,.12a30.36,30.36,0,0,0-6.86.54,21,21,0,0,0-10.73,5.47A14.51,14.51,0,0,0,326.83,84a12.84,12.84,0,0,0,5.12,9.6c3.35,2.66,7.53,3.81,11.73,4.26,8.19.89,18,.53,24.54-5.19a14.73,14.73,0,0,0,5.31-10.79A13.83,13.83,0,0,0,367.62,71c-.78-.57-1.53.73-.76,1.29A12.34,12.34,0,0,1,372,81.33a12.54,12.54,0,0,1-3.65,9.13c-5.52,5.89-14.2,6.48-21.77,6.14-7-.32-16.21-2.66-18-10.65a12.23,12.23,0,0,1,2.74-10.17,18.15,18.15,0,0,1,9.43-5.69,25.18,25.18,0,0,1,6.69-.87c2.34,0,4.65,0,7-.09,4.39-.11,8.78.57,12.45,3.12C367.66,72.81,368.41,71.51,367.62,71Z"/><path class="cls-7" d="M352.81,102.42c.05-.17.09-.34.13-.51.57-2.43-.32-4.36-1.08-6.6-.51-1.51-2.39-3.4-4.08-2.14-.9.66-.93,2-1,3.07a11.51,11.51,0,0,1-1.56,6.05,11.82,11.82,0,0,1-4.75,4.28c.82.77,2.53,1,3.63,1.21a7.75,7.75,0,0,0,3.67-.3A7.84,7.84,0,0,0,352.81,102.42Z"/><path class="cls-7" d="M353.53,102.62a10.41,10.41,0,0,0-.6-6.53c-.59-1.67-1.4-3.53-3.31-4s-3.24,1.1-3.48,2.84c-.27,2-.11,4.09-1,6a10.91,10.91,0,0,1-5,5,.76.76,0,0,0-.15,1.18,6.78,6.78,0,0,0,3.43,1.31,9.26,9.26,0,0,0,4.7-.24,8.68,8.68,0,0,0,5.45-5.55c.3-.92-1.15-1.32-1.45-.4a7.06,7.06,0,0,1-4.4,4.5,7.58,7.58,0,0,1-3.81.26A6,6,0,0,1,341,106l-.15,1.17a12.63,12.63,0,0,0,5-4.54A13.41,13.41,0,0,0,347.55,96c.05-.89.07-2.26,1.16-2.51s1.8.78,2.21,1.5a15.13,15.13,0,0,1,1.17,3.35,7.06,7.06,0,0,1,0,3.84A.75.75,0,0,0,353.53,102.62Z"/><path class="cls-5" d="M344,85.42c1.63.19,2.66-2.23,1.55-3.37s-2.9-.06-3.07,1.27A1.89,1.89,0,0,0,344,85.42Z"/><path class="cls-5" d="M344,86.17a2.51,2.51,0,0,0,2.33-1.33,3,3,0,0,0,.15-2.78A2.31,2.31,0,0,0,343.79,81a2.88,2.88,0,0,0-2,2.17,2.75,2.75,0,0,0,.44,1.95,2.71,2.71,0,0,0,.76.75,2.42,2.42,0,0,0,1,.35.77.77,0,0,0,.53-.22.79.79,0,0,0,.22-.53.81.81,0,0,0-.22-.53.93.93,0,0,0-.53-.22s.16,0,.08,0h-.06l-.15,0c-.07,0,.07,0,.07,0s0,0-.06,0l-.13-.08s-.17-.12-.07,0l0,0-.11-.12s-.13-.15-.06-.06,0,0,0-.06l-.08-.13-.06-.13,0,.08,0-.09c0-.1-.05-.19-.07-.29s0,.16,0,0,0-.12,0-.18a.34.34,0,0,0,0-.14s0,.17,0,.09a.43.43,0,0,0,0,0,2.76,2.76,0,0,1,.08-.27c0-.12-.08.15,0,0a.83.83,0,0,0,.07-.13l.06-.1,0,0c.06-.1-.1.11,0,0l.16-.18.11-.09s.15-.13.05,0,0,0,0,0l.12-.08.1-.06s.18-.08.06,0l.06,0,.11,0,.11,0,.08,0h.15s.2,0,.05,0,0,0,.05,0l.13,0c.07,0-.09,0-.09,0l0,0,.11.06s.18.12.08,0,0,0,0,0l.09.09,0,0c.08.08-.05-.06-.05-.07l.07.11a.41.41,0,0,1,.05.09l0,0c0,.09,0-.08,0-.09s.05.15.07.22a.5.5,0,0,1,0,.12.09.09,0,0,1,0,0c0,.08,0-.12,0-.11s0,.17,0,.25a1.7,1.7,0,0,1,0,.22c0,.11,0-.2,0,0l0,.12-.06.23a.49.49,0,0,0,0,.11c-.05.14.07-.15,0,0a1.67,1.67,0,0,1-.12.23l-.08.12,0,0c-.06.09,0-.05.05-.06s-.11.13-.18.19l-.09.09c-.08.07.07-.05.07-.05l-.06,0-.22.13c-.14.07.14,0,0,0l-.11,0-.14,0c-.15,0,.16,0,0,0H344a.75.75,0,0,0-.75.75A.77.77,0,0,0,344,86.17Z"/><path class="cls-5" d="M350.81,85.42c1.64.19,2.66-2.23,1.55-3.37s-2.9-.06-3.07,1.27A1.9,1.9,0,0,0,350.81,85.42Z"/><path class="cls-5" d="M350.81,86.17a2.52,2.52,0,0,0,2.34-1.33,3,3,0,0,0,.14-2.78A2.3,2.3,0,0,0,350.58,81a2.86,2.86,0,0,0-2,2.17,2.69,2.69,0,0,0,.43,1.95,2.75,2.75,0,0,0,.77.75,2.38,2.38,0,0,0,1,.35.75.75,0,0,0,.75-.75.77.77,0,0,0-.22-.53.93.93,0,0,0-.53-.22s.17,0,.09,0h-.07l-.15,0c-.07,0,.07,0,.08,0s-.05,0-.06,0l-.14-.08s-.17-.12-.07,0,0,0,0,0l-.12-.12-.05-.06c.07.09,0,0,0-.06l-.08-.13a.75.75,0,0,0-.06-.13s.06.15,0,.08l0-.09c0-.1-.05-.19-.07-.29s0,.16,0,0v-.18c0-.05,0-.1,0-.14s0,.17,0,.09a.07.07,0,0,0,0,0,2.76,2.76,0,0,1,.08-.27c0-.12-.07.15,0,0l.06-.13a.61.61,0,0,1,.07-.1l0,0c.07-.1-.09.11,0,0l.16-.18.1-.09s.15-.13.05,0,0,0,0,0l.12-.08.11-.06s.17-.08.05,0l.06,0,.11,0,.12,0,.07,0h.15s.2,0,.05,0,0,0,.05,0l.13,0c.07,0-.09,0-.09,0l.06,0,.1.06s.18.12.08,0,0,0,0,0l.08.09s0,0,0,0-.05-.06-.05-.07a.34.34,0,0,0,.07.11.41.41,0,0,0,.05.09s0,0,0,0,0-.08,0-.09,0,.15.07.22l0,.12a.09.09,0,0,0,0,0c0,.08,0-.12,0-.11s0,.17,0,.25,0,.14,0,.22,0-.2,0,0l0,.12a1.55,1.55,0,0,1-.06.23s0,.07,0,.11.08-.15,0,0l-.12.23a.83.83,0,0,0-.08.12l0,0c0,.09.05-.05.06-.06s-.12.13-.18.19l-.1.09c-.08.07.07-.05.07-.05l-.05,0-.23.13c-.13.07.14,0,0,0l-.12,0-.14,0c-.15,0,.16,0,.05,0h-.3a.76.76,0,0,0-.75.75A.77.77,0,0,0,350.81,86.17Z"/><path class="cls-5" d="M357.62,85.42c1.64.19,2.67-2.23,1.56-3.37s-2.9-.06-3.07,1.27A1.89,1.89,0,0,0,357.62,85.42Z"/><path class="cls-5" d="M357.62,86.17A2.51,2.51,0,0,0,360,84.84a3,3,0,0,0,.14-2.78A2.29,2.29,0,0,0,357.39,81a2.86,2.86,0,0,0-2,2.17,2.79,2.79,0,0,0,.43,1.95,2.89,2.89,0,0,0,.77.75,2.43,2.43,0,0,0,1,.35.77.77,0,0,0,.54-.22.74.74,0,0,0,.21-.53.76.76,0,0,0-.21-.53,1,1,0,0,0-.54-.22s.17,0,.09,0h-.06l-.15,0c-.07,0,.06,0,.07,0s0,0-.06,0l-.14-.08s-.17-.12-.07,0,0,0,0,0l-.11-.12s-.13-.15-.06-.06,0,0,0-.06L357,84.1l-.06-.13s.05.15,0,.08l0-.09c0-.1-.06-.19-.08-.29s0,.16,0,0,0-.12,0-.18a.71.71,0,0,0,0-.14s0,.17,0,.09a.43.43,0,0,0,0,0,2.76,2.76,0,0,1,.08-.27c0-.12-.08.15,0,0a.83.83,0,0,1,.07-.13L357,83l0,0c.07-.1-.09.11,0,0l.16-.18.11-.09s.15-.13.05,0,0,0,0,0l.12-.08.11-.06s.18-.08.06,0l.05,0,.12,0,.11,0,.08,0h.14s.2,0,.06,0,0,0,.05,0l.13,0c.07,0-.09,0-.09,0l.05,0,.11.06s.18.12.07,0,0,0,0,0l.09.09,0,0c.08.08-.05-.06-.05-.07l.07.11a.41.41,0,0,1,.05.09l0,0c.05.09,0-.08,0-.09s.06.15.08.22a.5.5,0,0,1,0,.12.09.09,0,0,1,0,0c0,.08,0-.12,0-.11s0,.17,0,.25,0,.14,0,.22,0-.2,0,0a.5.5,0,0,1,0,.12,1.55,1.55,0,0,1-.07.23l0,.11c-.06.14.07-.15,0,0l-.12.23-.08.12,0,0c-.06.09,0-.05.05-.06l-.18.19-.09.09c-.08.07.06-.05.07-.05l-.06,0-.22.13c-.14.07.14,0,0,0l-.11,0-.14,0c-.15,0,.15,0,0,0h-.3a.76.76,0,0,0-.75.75A.78.78,0,0,0,357.62,86.17Z"/><path class="cls-5" d="M336.27,74.2a9.24,9.24,0,0,0-4.76,8.11.75.75,0,0,0,1.5,0,7.72,7.72,0,0,1,4-6.81c.85-.46.09-1.76-.76-1.3Z"/><path class="cls-5" d="M339.2,73v.18a.59.59,0,0,0,.07.29.63.63,0,0,0,.39.39A.59.59,0,0,0,340,74l.2,0a.78.78,0,0,0,.33-.19l.12-.15a.75.75,0,0,0,.1-.38V73a.46.46,0,0,0-.06-.28.51.51,0,0,0-.16-.25.55.55,0,0,0-.24-.15.57.57,0,0,0-.29-.07l-.2,0a.92.92,0,0,0-.33.19l-.11.16a.7.7,0,0,0-.11.37Z"/><path class="cls-9" d="M440.49,149c.77-7.21.84-14.73,1.24-22,0-.3-35.7.35-39.16.54-.92,5.54-1.83,11.12-1.69,16.73s1.42,11.32,4.56,16c6.65,9.83,23.2,12.42,30.8,2.16C439.06,158.58,440,153.72,440.49,149Z"/><path class="cls-9" d="M441.24,149c.43-4.14.65-8.28.82-12.43.09-2.12.17-4.24.26-6.36,0-1,.11-1.93.14-2.89,0-.49,0-.91-.54-1.09a6.32,6.32,0,0,0-1.79-.09h-4c-8.34,0-16.69.21-25,.38-2.85.06-5.71.08-8.56.23a.77.77,0,0,0-.73.55c-1.15,7-2.33,14.16-1.36,21.26.77,5.69,2.94,11.5,7.27,15.44,6.71,6.11,18,7.93,25.55,2.34,5.56-4.1,7.23-10.8,7.94-17.34.1-1-1.4-1-1.5,0-.61,5.57-1.89,11.42-6.28,15.29a16.67,16.67,0,0,1-11.84,3.87,20.85,20.85,0,0,1-11.95-4.48c-4.18-3.37-6.46-8.43-7.44-13.63-1.41-7.41-.15-15,1.06-22.35l-.72.55c6.32-.35,12.68-.32,19-.42,6.55-.11,13.15-.4,19.7-.17a.87.87,0,0,0,.32,0s-.15-.06-.09,0l-.28-.17c-.28-.29-.37-.23-.29.18a3,3,0,0,0,0,.9c-.11,2.24-.2,4.48-.29,6.71-.18,4.58-.39,9.15-.87,13.71C439.64,150,441.14,150,441.24,149Z"/><path d="M415.17,157.47c1-2.89,3.22-6.32,6.76-5.82,2.81.4,3.25,3.85,3.22,6.17a.75.75,0,0,0,1.5,0c0-2.27-.37-5.25-2.28-6.75-2.49-1.95-6.16-.71-8.1,1.4a12.82,12.82,0,0,0-2.54,4.6c-.32.91,1.13,1.31,1.44.4Z"/><path d="M408.62,136.51l6.31,5.63a.75.75,0,1,0,1.06-1.06l-6.31-5.63a.76.76,0,0,0-1.06,0,.75.75,0,0,0,0,1.06Z"/><path d="M433.09,135.47l-6.36,5.58a.75.75,0,1,0,1.06,1.06l6.36-5.57a.76.76,0,0,0,0-1.07.77.77,0,0,0-1.06,0Z"/><path d="M431.24,144.4a1,1,0,0,0,0-2,1,1,0,0,0,0,2Z"/><path d="M412.27,144.75a1,1,0,0,0,0-2,1,1,0,0,0,0,2Z"/><path class="cls-5" d="M403.4,132.21a17.09,17.09,0,0,0-.81,7.27.77.77,0,0,0,.75.75.76.76,0,0,0,.75-.75,16,16,0,0,1,.76-6.87c.31-.92-1.14-1.31-1.45-.4Z"/><path class="cls-5" d="M403.66,143.33a.75.75,0,0,0,0-1.5.75.75,0,0,0,0,1.5Z"/><path d="M410.6,77.2a38.53,38.53,0,0,0,22.1,10c2.61.27,7.15-.39,6.66-4-.26-2-2.05-3.24-3.54-4.29a33.53,33.53,0,0,0-5.57-3.21,36.1,36.1,0,0,0-12-3.14c-3.71-.3-7.8-.21-11.22,1.39a7.45,7.45,0,0,0-4.35,8.49c.79,3.72,3.68,6.78,6.86,8.7A13.06,13.06,0,0,0,421,92.52a16.27,16.27,0,0,0,8.18-7.66c2-3.86,2.85-8.23,3.39-12.51.38-3-.18-7.67-4.27-7.38-2,.14-3.63,1.41-5.12,2.61-1.75,1.41-3.44,2.91-5.05,4.48a73.17,73.17,0,0,0-8.61,10c-2.44,3.42-4.5,7.44-3.91,11.77a9.21,9.21,0,0,0,6.34,7.56,17.62,17.62,0,0,0,10.56-.08c3.63-1.08,7-3.26,8.28-7s.42-8.28-.69-12.07a39.8,39.8,0,0,0-5.42-11.44c-2.13-3.11-5-7.11-9-7.86s-6.61,2.63-6.66,6.24a14.17,14.17,0,0,0,1.72,6.24,36.51,36.51,0,0,0,3.05,5.24,39.37,39.37,0,0,0,8.13,8.62,36.71,36.71,0,0,0,5,3.33,8.58,8.58,0,0,0,5.55,1.29,4.48,4.48,0,0,0,3.67-3.14,6.14,6.14,0,0,0-1.5-5.46c-2.5-3.06-6.34-5.37-9.91-7a34.48,34.48,0,0,0-11.89-3c-3.84-.26-8.12,0-11.63,1.71-3.12,1.56-5.33,4.79-4.71,8.37.68,3.86,4.54,5,8,4.39a23,23,0,0,0,5.39-2,53.46,53.46,0,0,0,5.56-3,54.87,54.87,0,0,0,9.68-7.7,49.81,49.81,0,0,0,4.1-4.61c1.16-1.5,2.29-3.39,2-5.36a4,4,0,0,0-3.14-3.27,6.93,6.93,0,0,0-5.29,1.24,28.44,28.44,0,0,0-8.5,8.49,19.66,19.66,0,0,0-3.24,11.21c.11,3.54,1.31,7.76,4.15,10.11,1.25,1,3,1.76,4.59.89s1.89-2.77,2.11-4.4c.59-4.29,1.13-8.87-.71-13a9.74,9.74,0,0,0-7.63-6c-1-.1-.95,1.4,0,1.5,3.18.33,5.6,3,6.62,5.92,1.31,3.71.77,7.89.19,11.7-.21,1.39-.7,3.45-2.56,3-1.63-.35-2.75-1.92-3.51-3.28a15.27,15.27,0,0,1-1.52-10,20.14,20.14,0,0,1,4.34-9.14,29.52,29.52,0,0,1,3.54-3.62,15.62,15.62,0,0,1,4.57-3.07c1.42-.52,3.47-.47,4.27,1.06s-.43,3.63-1.41,4.91a49.12,49.12,0,0,1-7.34,7.57,53,53,0,0,1-8.75,6c-2.85,1.56-6.18,3.42-9.52,3.43a4.43,4.43,0,0,1-4-2,5.15,5.15,0,0,1-.26-4.21c1.09-3.33,4.71-4.7,7.88-5.23a32,32,0,0,1,20.34,3.75,32.62,32.62,0,0,1,4.42,2.94,11.09,11.09,0,0,1,3.64,4.09,3.17,3.17,0,0,1-1.65,4.38c-1.76.63-3.62-.11-5.18-1a37.26,37.26,0,0,1-14.35-14.16c-1.67-2.91-3.82-6.84-2.35-10.24a4,4,0,0,1,3.77-2.58c1.84.08,3.49,1.32,4.77,2.55,5.09,4.9,8.45,11.94,9.86,18.8.71,3.44,1,7.54-1.29,10.48-2,2.52-5.33,3.71-8.41,4.22a13.69,13.69,0,0,1-8.78-1.1c-3.09-1.71-4.32-5.12-3.82-8.53.54-3.71,2.85-6.92,5.08-9.81a73,73,0,0,1,7.59-8.41c1.4-1.33,2.84-2.6,4.34-3.81,1.3-1,3.11-2.58,4.92-2.23,3.36.65,2,6.26,1.64,8.44-1.12,6.67-4,14.55-11.27,16.51-3.51,1-7.13-.2-10-2.22-2.66-1.85-5.21-4.83-5.39-8.22-.42-7.57,10.51-7.44,15.51-6.84a34,34,0,0,1,10.58,3.07,34.84,34.84,0,0,1,4.62,2.67c1.22.84,3.54,2.26,3.18,4-.26,1.31-1.95,1.7-3.07,1.8a17.47,17.47,0,0,1-4.78-.44,36.78,36.78,0,0,1-18.35-9.19c-.71-.66-1.77.4-1.06,1.06Z"/></g></g></svg>