<svg xmlns="http://www.w3.org/2000/svg" viewBox="0 0 161.41 161.41"><defs><style>.cls-1{fill:#f9f9fa;}.cls-2{fill:#082b48;}</style></defs><g id="Layer_2" data-name="Layer 2"><g id="Layer_1-2" data-name="Layer 1"><rect class="cls-1" width="161.41" height="161.41"/><path class="cls-2" d="M68,48a2.94,2.94,0,0,0,2.51-2.27,3.08,3.08,0,0,0-.82-3.22c-1.52-1.62-1.55-2-.22-3.75a4.38,4.38,0,0,1,3.39-1.83,10,10,0,0,0,6-2.17,4,4,0,0,1,4.63.15A3.32,3.32,0,0,1,84,38.37a3.51,3.51,0,0,1-2.48,2.1,25.89,25.89,0,0,0-3.23.93,3.13,3.13,0,0,0-1,4.74,5.18,5.18,0,0,0,2.76,1.63,6,6,0,0,0,2.73-.13c-.09-.4-.41-.35-.67-.41-.93-.24-1.87-.44-2.78-.73a2.35,2.35,0,0,1-1.79-2.42c0-1.07.54-1.73,1.79-2.11.65-.2,1.32-.35,2-.51a6,6,0,0,0,2.18-1A3.79,3.79,0,0,0,85,36.3a5.37,5.37,0,0,0-.33-1c-.68-1.5-1-2.07,1.36-2.65a5.9,5.9,0,0,1,4.35.28,1.39,1.39,0,0,1,.83,2c-.52,1.5-.61,3,.66,4.13a4.65,4.65,0,0,0,4.9,1.16,5.91,5.91,0,0,0,2.79-2,5.59,5.59,0,0,0-1.94.69,4.7,4.7,0,0,1-3.61.41c-1.49-.57-2.39-1.64-2.12-3.2.09-.52.22-1,.34-1.53a1.31,1.31,0,0,1,.76-1c1.2-.32,2.33-.91,3.68-.36,3.16,1.28,6.31,2.6,9.59,3.58.45.14.94.25,1.1.79a1.29,1.29,0,0,1-.83,1,3.87,3.87,0,0,0-2.48,4.25,4.69,4.69,0,0,0,3.76,4.18c0-.74-.5-1-.94-1.26a3.9,3.9,0,0,1-1.9-3.54,3.23,3.23,0,0,1,2.36-3,8.18,8.18,0,0,1,5,.2,4.86,4.86,0,0,1,2.8,2.68,8.44,8.44,0,0,1,.65,1.56,3.48,3.48,0,0,0,1.84,2.26,5.51,5.51,0,0,1,2.92,4,2.42,2.42,0,0,1-2,3.13c-2.06.32-2.67,0-3.3-1.88a11.45,11.45,0,0,0-.54-1.59,3.14,3.14,0,0,0-6,1.76,21.47,21.47,0,0,1,.19,2.65c0,1.85-.46,2.39-2.28,2.48-.68,0-1.36,0-2.19,0a1.86,1.86,0,0,0,1.44,1c2.52.62,4.68-1.64,4.18-4.37-.09-.51-.28-1-.38-1.51a2.45,2.45,0,0,1,.93-2.67,2.15,2.15,0,0,1,3.19.86c.39.7.64,1.48,1,2.21.88,2,1.48,2.34,3.65,1.82.47-.11.93-.27,1.39-.39a2,2,0,0,1,2.28.91,5.85,5.85,0,0,1,.75,4.74,1.39,1.39,0,0,1-2.19,1,7.54,7.54,0,0,0-5.16-.49,3.84,3.84,0,0,0-2.94,3.17c-.29,1.34.21,2.23,1.57,3,.06-.62-.32-1.08-.45-1.6-.47-1.78.14-3,1.91-3.53a7.58,7.58,0,0,1,5.72.72,2.49,2.49,0,0,1,1.3,1.8c.34,2.08.14,4-1.7,5.45a6.87,6.87,0,0,0-2.76,4.53,4.66,4.66,0,0,1-3.82,4,5.59,5.59,0,0,1-6.1-1.83c-1.19-1.38-1-2.38.51-3.34.43-.26.89-.49,1.39-.76-1.92-.56-2.81-.07-3.14,1.76a27.55,27.55,0,0,1-.76,2.65,6.06,6.06,0,0,0,0,3.9c.21.56.38,1.14.54,1.72A2.24,2.24,0,0,1,105.68,84a2.16,2.16,0,0,1-3-.52c-1-1.16-2-2.4-3-3.61a6.41,6.41,0,0,0-3.45-2.31c-2.54-.59-3.93-2.33-4.9-4.58,3.64-1.07,4.7-2.47,4.29-5.58a2.77,2.77,0,0,0-2.81-2.75c0,.48.33.66.63.9a3.7,3.7,0,0,1,1,4.55,1.65,1.65,0,0,1-.61.74c-2.63,1.51-5.35,2.44-8.4,1.34a3.86,3.86,0,0,1-2.72-2.66c-.55-2.06.28-3.19,2.4-3.23h.78c-1.74-1.45-3.47-1-4,1.07-.61,2.33-1,2.53-3.28,1.67a4.54,4.54,0,0,1-2.49-2,2.79,2.79,0,0,0-2.56-1.5c-2.22-.08-3.6-1.49-4.57-3.29-.59-1.1.46-2.63,1.9-2.91a4,4,0,0,1,2.15.13l4,1.4a3.37,3.37,0,0,0,4.46-2.34,3,3,0,0,0-.83-3.1.54.54,0,0,0-.73-.11c-.14.44.22.77.39,1.15a2.31,2.31,0,0,1-.14,2.7,2.63,2.63,0,0,1-2.92.92A17.37,17.37,0,0,1,75,59.2a7.42,7.42,0,0,0-3.12-.82,4.54,4.54,0,0,0-3.24,1.41,1.74,1.74,0,0,1-2.2.34,6.56,6.56,0,0,1-4-6.12c0-.12,0-.24,0-.36a1.57,1.57,0,0,1,.86-1.48,1.3,1.3,0,0,1,1.5.51,7.26,7.26,0,0,0,3.81,1.94,4.73,4.73,0,0,0,3.92-.84,24.85,24.85,0,0,1-3.21,0,9.13,9.13,0,0,1-5.78-3.42A3.81,3.81,0,0,1,63,46.3a6.28,6.28,0,0,1,2.81-3.49c1.38-.71,2.56-.59,3.3.31a3,3,0,0,1-.06,3.59c-.31.46-.91.67-1.06,1.26-.11,0-.27,0-.09.16s.13-.06.1-.16m40.13,17.16c0,.1,0,.23.15.07s-.05-.11-.13-.09a1.42,1.42,0,0,0-.33-1.12A4,4,0,0,0,103,62.4,4.21,4.21,0,0,0,100.34,67a8.49,8.49,0,0,0,.79-1.64c1.33-2.6,3.56-3.06,5.82-1.21.39.32.65.82,1.19,1M99.65,51.22a6.37,6.37,0,0,0-3.66,1,3.43,3.43,0,0,0-1.57,3.41c.38,2.11,3.27,3.78,5.61,3.17-.94-.37-1.8-.68-2.64-1a2.93,2.93,0,0,1-2-2.85c0-1.38.89-2.07,2-2.55a7.77,7.77,0,0,0,2.25-1.12m-11.42,0c.06.08.13.16.19.25,1.78-.49,3.38-1.27,4-3.21a3.38,3.38,0,0,0-1.31-3.85,3.89,3.89,0,0,0-4-.72c.81.34,1.66.53,2.47.82a2.76,2.76,0,0,1,1.9,2,3,3,0,0,1-1.29,3.35c-.63.48-1.31.9-2,1.35m10.46-1.53c1-1.91.82-3.22-.57-4.22-1.18-.85-2.06-.83-2.93.15,2.82-.18,3.34,1.72,3.5,4.07m-9.63,6c0,2.54-1.13,3.92-3.58,4.26a2.15,2.15,0,0,0,3-.39,2.78,2.78,0,0,0,.57-3.87M124.6,11.35c-.11-1.32-.79-1.85-2.38-2-1.42-.14-2.83-.36-4.23-.55h-.1c-1.83-.14-3.5-.23-5-.3-4.6-.25-9,0-9,0h-.09c-1.87.11-2.79.24-2.79.24-.6.09-1.06.12-1.45.18A76.32,76.32,0,0,0,75.7,16.63a45.46,45.46,0,0,0-21.16,21.9,52.15,52.15,0,0,0-4.23,15,65.47,65.47,0,0,0-.25,13.13c.16,2.12.57,4.22.55,6.36a9.75,9.75,0,0,1-1.27,4.84c-3.05,5.43-6.28,10.76-9.63,16-.63,1-1.42,1.91-1.94,2.93,0,0-2.15,3.79-.08,7.23a3,3,0,0,0,.21.33,2.67,2.67,0,0,0,.34.42,4.57,4.57,0,0,0,.44.44,19.19,19.19,0,0,0,6.68,4,1.74,1.74,0,0,1,1.41,1.84c-.07,1.2,0,2.4-.21,3.61-.41,2.65-.13,4.87,3.3,6.28l.46.2c.85.43.89.73.3,1.6-.18.26-.4.5-.6.75-.61.8-1.27,1.57-1.82,2.41-.9,1.35-.77,2.18.37,3.3a24.66,24.66,0,0,0,2.86,2.23,3.34,3.34,0,0,1,1.48,3.64,32.13,32.13,0,0,0-.61,6.11,11.26,11.26,0,0,0,8.26,10.93,27.55,27.55,0,0,0,3.13.5H64s5.41.37,11.12.37a69.3,69.3,0,0,0,12.78-1.18l1.51-.28A70.92,70.92,0,0,0,100.26,149a28.13,28.13,0,0,0,4.86-2.06,1.66,1.66,0,0,0,.6-2.49c-.59-1.06-1.44-1.27-2.93-.63A69,69,0,0,1,76.94,149c-4.47.12-8.94,0-13.41-.2a7.51,7.51,0,0,1-7.38-7.41,27.47,27.47,0,0,1,.64-5.86c.73-3.63.18-5.23-2.63-6.71-2.08-1.1-1.78-2.3-.59-3.61.44-.48.89-.93,1.32-1.41a12.84,12.84,0,0,0,1-1.21c.8-1.11.74-1.72-.3-2.59A16.13,16.13,0,0,0,52,117.73a2.57,2.57,0,0,1-1.59-2.93c.15-1.25.09-2.49.16-3.73a4.7,4.7,0,0,0-2.93-4.93c-1.31-.63-2.61-1.26-3.9-1.92-2.92-1.52-3.48-3.42-1.9-6.35a2.38,2.38,0,0,1,.17-.31c3-5,6-9.9,9.12-14.77a19.44,19.44,0,0,0,3.11-13.68,42.39,42.39,0,0,1-.54-5.4,64.92,64.92,0,0,1,.7-11.31,46.29,46.29,0,0,1,5-15.13C63.68,29.54,70,24,77.76,20a67.52,67.52,0,0,1,25.38-7.56,65.57,65.57,0,0,1,16,.47c1.19.18,2.38.45,3.57.51,1.38.07,2-.67,1.87-2"/></g></g></svg>