<svg xmlns="http://www.w3.org/2000/svg" viewBox="0 0 1014.62 1163.54"><defs><style>.cls-1{isolation:isolate;}.cls-2{fill:#f7dad7;mix-blend-mode:multiply;opacity:0.5;}.cls-3{fill:#285c77;}.cls-4{fill:#fbb8a1;}.cls-5{fill:#1f3f5c;}.cls-6{fill:#fff;}.cls-7{fill:#0c4a6e;}.cls-8{fill:#bae6fd;}.cls-9{fill:#fef7f2;}.cls-10{fill:#cb767e;}.cls-11{fill:#ce9fa7;}.cls-12{fill:#9b635c;}.cls-13{fill:#5e5b5a;}.cls-14{fill:#e0f2fe;}.cls-15{fill:none;stroke:#1f3f5c;stroke-miterlimit:10;stroke-width:2px;}.cls-16{fill:#f8ae6e;}</style></defs><g class="cls-1"><g id="Layer_2" data-name="Layer 2"><g id="STORY_3" data-name="STORY 3"><ellipse class="cls-2" cx="507.31" cy="1132.5" rx="507.31" ry="31.04"/><polygon class="cls-3" points="238.51 875.34 74.49 875.34 11.78 613.06 175.81 613.06 238.51 875.34"/><rect x="71.09" y="867.66" width="250.83" height="16.81"/><rect x="298.99" y="880.4" width="9.13" height="261.47"/><rect x="196.94" y="880.4" width="9.13" height="261.47"/><rect x="98.77" y="880.4" width="9.13" height="261.47"/><rect x="39.67" y="609.37" width="9.13" height="269.66" transform="translate(-171.84 30.69) rotate(-13.45)"/><polygon class="cls-4" points="357.99 1099.3 393.65 990.77 342.67 996.88 316.33 1109.63 365.13 1101.57 357.99 1099.3"/><path class="cls-5" d="M309.52,1085.3s40.31,17.13,59.64-8.91l87.94,48.7-160.61.12Z"/><polygon class="cls-6" points="456.83 1139.41 296.23 1139.53 296.49 1125.21 457.1 1125.1 456.83 1139.41"/><path class="cls-6" d="M367.89,1098.54a2.7,2.7,0,0,0,1.14-.85,56.82,56.82,0,0,1,13-12.34,2.54,2.54,0,0,0,.8-3.62A2.85,2.85,0,0,0,379,1081a60.73,60.73,0,0,0-14.38,13.61,2.54,2.54,0,0,0,.56,3.66A2.89,2.89,0,0,0,367.89,1098.54Z"/><path class="cls-6" d="M381.19,1105.39a2.64,2.64,0,0,0,1.14-.85,56.5,56.5,0,0,1,13-12.34,2.56,2.56,0,0,0,.8-3.62,2.86,2.86,0,0,0-3.8-.77,60.94,60.94,0,0,0-14.38,13.61,2.54,2.54,0,0,0,.57,3.66A2.87,2.87,0,0,0,381.19,1105.39Z"/><path class="cls-6" d="M394.49,1112.24a2.64,2.64,0,0,0,1.14-.85,56.73,56.73,0,0,1,13-12.34,2.54,2.54,0,0,0,.8-3.62,2.86,2.86,0,0,0-3.8-.77,61.24,61.24,0,0,0-14.38,13.6,2.53,2.53,0,0,0,.57,3.66A2.87,2.87,0,0,0,394.49,1112.24Z"/><path class="cls-7" d="M245.23,724.07l161.56,42.28a60,60,0,0,1,38.62,73.14l-58.54,207.34-51.43-10.29-11.32-215L160.93,781.44l-18.24-62Z"/><polygon class="cls-4" points="324.81 1099.3 360.47 990.77 309.49 996.88 283.15 1109.63 331.95 1101.57 324.81 1099.3"/><path class="cls-5" d="M276.34,1085.3s40.31,17.13,59.64-8.91l87.94,48.7-160.61.12Z"/><polygon class="cls-6" points="423.65 1139.41 263.05 1139.53 263.31 1125.21 423.92 1125.1 423.65 1139.41"/><path class="cls-6" d="M334.71,1098.54a2.7,2.7,0,0,0,1.14-.85,56.82,56.82,0,0,1,13-12.34,2.54,2.54,0,0,0,.8-3.62,2.85,2.85,0,0,0-3.79-.77,60.73,60.73,0,0,0-14.38,13.61,2.53,2.53,0,0,0,.57,3.66A2.87,2.87,0,0,0,334.71,1098.54Z"/><path class="cls-6" d="M348,1105.39a2.64,2.64,0,0,0,1.14-.85,56.5,56.5,0,0,1,13-12.34,2.55,2.55,0,0,0,.8-3.62,2.86,2.86,0,0,0-3.8-.77,61.16,61.16,0,0,0-14.38,13.61,2.54,2.54,0,0,0,.57,3.66A2.87,2.87,0,0,0,348,1105.39Z"/><path class="cls-6" d="M361.31,1112.24a2.64,2.64,0,0,0,1.14-.85,56.73,56.73,0,0,1,13-12.34,2.54,2.54,0,0,0,.8-3.62,2.84,2.84,0,0,0-3.79-.77,60.94,60.94,0,0,0-14.39,13.6,2.54,2.54,0,0,0,.57,3.66A2.87,2.87,0,0,0,361.31,1112.24Z"/><path class="cls-7" d="M131.61,713.34s-43.34,53.54-20.7,110c10.41,26,35.72,42.87,63.68,43.46l138.65,2.91-38.7,176.89,81.54,16.71,65.08-199.83a55.89,55.89,0,0,0-36.86-70.77L205.69,738.27Z"/><path class="cls-8" d="M364.71,1042.55l-3.43-1,53.18-183.11a52.81,52.81,0,0,0-35-64.91L231,757.24l.85-3.47L380.39,790.1a56.41,56.41,0,0,1,37.5,69.35Z"/><rect class="cls-9" x="309.12" y="857.58" width="29.97" height="3.58" transform="translate(-502.66 459.35) rotate(-43.52)"/><path class="cls-10" d="M219.76,525s35.29,4.79,47.63,16.91,18.48,75.85,9,99.33-30.2,45.94-31.14,82.83L131.61,713.34,118.75,582.55l8.4-36.18c3.31-14.25-4.76-20.74,9.35-22.87l43.66-4.62Z"/><path class="cls-10" d="M259.51,536.43s35.72,11.65,33.23,74.54,24.06,66.8.24,125.6l-47.75-12.5-35-2.07-5.62-157.88Z"/><path class="cls-10" d="M246.82,724.75l-3.19-1.37,18.92-44c27.53-70.26,10.62-105.2,10.44-105.55l3.1-1.56c.74,1.46,17.78,36.68-10.33,108.43Z"/><path d="M246.08,705a15.93,15.93,0,0,1-12.8-25.2L292,597.63a6.17,6.17,0,0,1,5.11-2.33l90.65,4.24a6.16,6.16,0,0,1,4.86,9.53l-58.91,85a27.08,27.08,0,0,1-22.53,11.65Z"/><path class="cls-4" d="M192.4,670l20.62-23a16.41,16.41,0,0,1,12.2-5.44h32.64l-8.66,10.11-13.33,2.37c-1.73.16-3,1-3,2.79h0c0,1.86,1.45,2.72,3.3,2.72h58.25s3.85,17.63-26,29.18-48.13,0-76,9.15Z"/><path class="cls-10" d="M132.74,524.1s-31.43,2.13-39.8,58.62S61.55,648.63,56.32,697.8s83.14,5,83.14,5S168.26,599.46,162,559.7C162,559.7,177.34,515.81,132.74,524.1Z"/><path class="cls-10" d="M194.68,659.64c2.63-.81,15.59,62.36,15.59,62.36s-63.6,35.66-113.72,29.35c-55.27-7-37.45-70.48-37.45-70.48l44.49-10S133.19,678.58,194.68,659.64Z"/><path class="cls-11" d="M139.33,673.43l1.86-3.22c.16-.27,16.05-28.09,22.65-74.64l3.44.49c-5.42,38.21-17.06,64.06-21.4,72.71l49.81-8.7.59,3.42Z"/><path class="cls-11" d="M123.64,689.85l-4.26-1.8c5.76-13.69,21.93-18.95,22.61-19.17l1.4,4.41C143.25,673.33,128.57,678.16,123.64,689.85Z"/><rect class="cls-11" x="206.32" y="694.65" width="3.47" height="27.98" transform="translate(-166.46 72.09) rotate(-14.11)"/><polygon class="cls-4" points="181.97 519.91 228.31 567.85 230.31 529.7 181.97 519.91"/><polygon class="cls-4" points="259.92 500.27 227.49 544.78 181.97 519.91 236.6 445.06 259.92 500.27"/><path d="M240.93,526.33c.57-.77,1.19-33.7,1.19-33.7l16.18,14.58Z"/><path class="cls-4" d="M306,401.1s22.39,11.38,14.32,41.5c0,0-6.09,21.77-15.11,53-4.76,16.52-23.81,25.15-38.71,16.57-9.12-5.25-18.77-12.76-26.11-23.3l-9.65-17.11c-20.67-45.73,26.55-93.62,72-72.3C303.79,400,304.88,400.53,306,401.1Z"/><path class="cls-4" d="M308,472.7l7.55,13.61a2.51,2.51,0,0,1-2.69,3.68l-11.09-2.24Z"/><path d="M307.82,447.51s8.25,1.2,7.74,4.93c0,0-.41,2.51-7.59,1.31s-8.93-2.22-9.2-4.74S304,446.62,307.82,447.51Z"/><path class="cls-10" d="M294.85,489.73a1.34,1.34,0,0,1,.6.7c0,.09,1.1,2.63,5.59,4.83a1.34,1.34,0,1,1-1.18,2.4c-5.52-2.69-6.81-6-6.93-6.31a1.34,1.34,0,0,1,1.92-1.62Z"/><path d="M305.77,468.12c-.6,2.18-2.24,3.62-3.67,3.23s-2.12-2.47-1.52-4.65,2.24-3.62,3.67-3.23S306.36,465.94,305.77,468.12Z"/><path d="M257.76,444.49s8.72-76.61,61.81-27.62c0,0-11.75-47.08-74.1-40.48-13.06,1.38-29.38,11.66-35.4,23.33-9.73,18.89-4,39.43,3.87,76.39l28.53-17.69C245.29,453.81,257.76,444.49,257.76,444.49Z"/><path d="M244.37,417l3.12,33.7c87.71.19,63.05-48.65,63.05-48.65S252,362.55,244.37,417Z"/><path d="M244,379.71c10.36-7.3,7.26-25.06-3.17-32.27s-24.49-6.27-36.71-2.87c-6.58,1.83-13.08,4.33-18.59,8.37-6.28,4.59-11,11-15.33,17.44-9.67,14.47-17.8,30-28.24,43.88s-23.7,26.45-40.13,32.18c22.59.21,45.43.4,67.47-4.61S212.83,426,226.46,408Z"/><polygon points="280.01 443.84 263.55 457 255.65 433.08 280.01 443.84"/><path d="M297.79,402.37s25.9,13.16,23.89,33.39c0,0,28.56-15.41-13.09-38.66C283.8,383.25,297.79,402.37,297.79,402.37Z"/><path class="cls-4" d="M232.45,447.35a16.55,16.55,0,1,0,21.57-9.1A16.55,16.55,0,0,0,232.45,447.35Z"/><path d="M253.32,460.76a1.44,1.44,0,0,1-.5-.1,1.34,1.34,0,0,1-.74-1.75s1.79-4.55,0-8c-1-1.91-3-3.22-5.85-3.87a1.34,1.34,0,0,1-1-1.6,1.36,1.36,0,0,1,1.61-1c3.68.84,6.25,2.61,7.63,5.26,2.39,4.58.22,10,.13,10.25A1.34,1.34,0,0,1,253.32,460.76Z"/><polygon class="cls-12" points="728.04 561.64 760.63 601.07 795.53 567.61 746.53 509.13 728.04 561.64"/><path d="M747.12,584.73c-.56-.69-3-31.18-3-31.18l-12.35,12.58Z"/><path class="cls-12" d="M679.71,472.31s-20.12,11.82-10.93,39.29c0,0,6.88,19.84,17,48.3,5.35,15,23.5,22,36.83,13.16A74.66,74.66,0,0,0,745.52,550l8-16.41c16.57-43.57-29.92-85.29-70.83-63C681.68,471.16,680.7,471.72,679.71,472.31Z"/><path class="cls-12" d="M681.88,538.81l-6.23,13.05a2.33,2.33,0,0,0,2.71,3.25l10.15-2.7Z"/><path d="M680.64,515.45s-7.58,1.57-6.89,5c0,0,.52,2.31,7.1.79s8.16-2.57,8.26-4.92S684.13,514.4,680.64,515.45Z"/><path d="M688.56,560.64a1.19,1.19,0,0,1-.6-2.23c.21-.12,5.32-3.06,9.11-3.06a1.2,1.2,0,0,1,0,2.39c-2.62,0-6.6,2-7.91,2.74A1.2,1.2,0,0,1,688.56,560.64Z"/><path d="M683.46,539.71a6.38,6.38,0,0,1-.9-.05,1.2,1.2,0,0,1,.32-2.37,6.61,6.61,0,0,0,6.08-2.77,1.2,1.2,0,0,1,2,1.34A8.85,8.85,0,0,1,683.46,539.71Z"/><path d="M726.88,509.8s6.26-67.9-60.08-21.46c0,0,15.4-45.69,67.61-42.38,12.17.78,27.9,9.15,34.14,19.63,10.1,17,4.43,35.05-.76,69.77,0,0-13,5-25.94-13.51C739,517.74,726.88,509.8,726.88,509.8Z"/><path d="M722.54,519.41S700.26,504.05,706,480.24c0,0-59.43,38-63.68,4.54-5.61-44.24,85-39,85-39l17.7,20.77-9.16,46.16Z"/><path class="cls-12" d="M748.7,506.31a15.37,15.37,0,1,1-20.51-7.21A15.37,15.37,0,0,1,748.7,506.31Z"/><path d="M730,519.87a1.21,1.21,0,0,1-1.08-.68c-.1-.2-2.41-5.1-.46-9.46,1.12-2.52,3.4-4.3,6.75-5.28a1.2,1.2,0,0,1,.67,2.3c-2.65.77-4.41,2.1-5.23,3.95-1.5,3.36.41,7.42.43,7.46a1.2,1.2,0,0,1-.56,1.6A1.22,1.22,0,0,1,730,519.87Z"/><polygon class="cls-12" points="620.82 1102.23 615.95 1008.33 663.61 1005.8 668.55 1106.66 622.58 1106.95 620.82 1102.23"/><path d="M673.84,1086.93s-39.41,16.21-57.93-9.35l-81.14,49.3,151.29-1Z"/><rect class="cls-6" x="534.82" y="1126.39" width="151.29" height="13.93" transform="translate(-7.29 3.96) rotate(-0.37)"/><path class="cls-6" d="M616.9,1099.15a2.73,2.73,0,0,1-1.1-.84,55.06,55.06,0,0,0-12.47-12.16,2.47,2.47,0,0,1-.74-3.53,2.78,2.78,0,0,1,3.7-.71,59.17,59.17,0,0,1,13.84,13.41,2.47,2.47,0,0,1-.6,3.55A2.79,2.79,0,0,1,616.9,1099.15Z"/><path class="cls-6" d="M603.88,1105.66a2.64,2.64,0,0,1-1.1-.84,55.34,55.34,0,0,0-12.47-12.16,2.47,2.47,0,0,1-.74-3.53,2.78,2.78,0,0,1,3.7-.71,59.43,59.43,0,0,1,13.84,13.41,2.46,2.46,0,0,1-.6,3.55A2.79,2.79,0,0,1,603.88,1105.66Z"/><path class="cls-6" d="M590.86,1112.17a2.64,2.64,0,0,1-1.1-.84,55,55,0,0,0-12.48-12.16,2.46,2.46,0,0,1-.73-3.52,2.77,2.77,0,0,1,3.7-.71,59.46,59.46,0,0,1,13.84,13.4,2.47,2.47,0,0,1-.6,3.56A2.81,2.81,0,0,1,590.86,1112.17Z"/><path d="M640.3,770s-38.16-4.49-41.5,98.58l-7.86,175.17H693.56Z"/><polygon class="cls-12" points="718.86 1102.23 690.15 1008.33 737.82 1005.8 766.59 1106.66 720.62 1106.95 718.86 1102.23"/><path d="M767.19,1086.93s-39.41,16.21-57.93-9.35l-81.14,49.3,151.29-1Z"/><rect class="cls-6" x="628.17" y="1126.39" width="151.29" height="13.93" transform="translate(-7.29 4.56) rotate(-0.37)"/><path class="cls-6" d="M710.25,1099.15a2.73,2.73,0,0,1-1.1-.84,55,55,0,0,0-12.48-12.16,2.47,2.47,0,0,1-.73-3.53,2.78,2.78,0,0,1,3.7-.71,59.39,59.39,0,0,1,13.84,13.41,2.47,2.47,0,0,1-.6,3.55A2.79,2.79,0,0,1,710.25,1099.15Z"/><path class="cls-6" d="M697.23,1105.66a2.64,2.64,0,0,1-1.1-.84,55.25,55.25,0,0,0-12.48-12.16,2.47,2.47,0,0,1-.73-3.53,2.78,2.78,0,0,1,3.7-.71,59.64,59.64,0,0,1,13.84,13.41,2.46,2.46,0,0,1-.6,3.55A2.79,2.79,0,0,1,697.23,1105.66Z"/><path class="cls-6" d="M684.21,1112.17a2.64,2.64,0,0,1-1.1-.84,55.25,55.25,0,0,0-12.48-12.16,2.46,2.46,0,0,1-.73-3.52,2.77,2.77,0,0,1,3.7-.71,59.46,59.46,0,0,1,13.84,13.4,2.47,2.47,0,0,1-.6,3.56A2.81,2.81,0,0,1,684.21,1112.17Z"/><path d="M797,785.5,789.17,796l-82.85-33.59c-40.07-20.37-87.53,8.75-87.53,53.7v5.05a121.21,121.21,0,0,0,4.58,33l58,205H781.6L732.25,893.13l82.41,37.77s65.89,25.28,100.19-13.54S910.34,791,910.34,791Z"/><rect class="cls-13" x="719.51" y="861.58" width="3.09" height="35.53" transform="translate(-393.02 651.32) rotate(-39.08)"/><polygon class="cls-5" points="788.42 550.47 810.88 578.29 756.84 608.73 744.06 588.12 788.42 550.47"/><path class="cls-7" d="M811.75,570.38c13.85,11.35,38.52,34.6,63.78,73.09a319.93,319.93,0,0,1,37,78.24c11.13,34.83,25.67,92.54,23.25,128.4,0,0-61.23-.93-145.93-52.84,0,0-48.77-88.45-51.66-151.12,0,0-7.65-46,49-77.86A21.76,21.76,0,0,1,811.75,570.38Z"/><path class="cls-12" d="M711.66,674.49,654.11,729,545.74,764.32l18.51,22,107.5-12.13A33.62,33.62,0,0,0,689,767.06l45.85-36.64Z"/><path class="cls-12" d="M560.89,766l-17.54-14.24a12,12,0,0,0-9.45-2.54l-23.6,3.73,7.42,6.32,9.91.19a2.05,2.05,0,0,1,2.47,1.68h0c.22,1.34-.73,2.13-2.07,2.34l-42.12,6.67s-.77,13.18,22.13,18.12,56-2.08,56-2.08Z"/><path d="M528.1,763.45l-20.21-18.79a4.57,4.57,0,0,0-4-1.12L476,749.29a2,2,0,0,0-1.09,3.33l15.45,16.8Z"/><polygon class="cls-7" points="750.99 599.29 673.7 695.01 723.92 749.68 821.34 664.64 750.99 599.29"/><rect class="cls-14" x="746.55" y="695.25" width="75.91" height="3.1" transform="translate(-264.73 688.35) rotate(-41.15)"/><rect x="766.59" y="935.09" width="202.44" height="20.93"/><rect x="809.03" y="950.1" width="8.15" height="187.37"/><rect x="913.02" y="950.1" width="8.15" height="187.37"/><path class="cls-15" d="M365.68,338.45c15.84,18.64,37.64,30.4,58.23,35.87s41.37,8,59.8,5c5.58-.92,10.59-2,15.07-3.16,21.09-5.48,38.07-18.35,48-37.49,9.2-17.78,6.31-31.14-3-59.5-.94-2.84-3.43-5.44-6.1-6s-3.55,1.24-3.91,3.13c-1.17,6.32,1.08,14.06,4.94,21,12.43,22.34,40.68,34.69,58.64,28.15s25.37-28.33,21.51-51.27c-1.18-7-3.54-14.62-8.75-20.62a31.06,31.06,0,0,0-18.16-10.08c-12.79-2-23.38,5.74-24.82,18.17s6.4,28.51,18.37,37.67c19.5,14.93,41.21,9,62.4,15.95,10.66,3.5,21.33,10.49,30,19.65,7.77,8.22,14.12,18.74,14.93,28.55.9,10.92-6.73,19.93-17.95,16-6.6-2.34-12.53-8.82-14-15.75-1.37-6.53,1.91-10,5.73-12.35,12.15-7.41,29.67-4.68,45.62-4.39s31.25-2.12,43.13-9.77,20-21,19.71-37.8c-.08-4.66-.89-9.81-4.39-14.32-2-2.55-4.71-4.5-7.38-4.84-5.21-.67-6.83,4.63-6.65,9.63.61,16.56,14.2,34.93,29.72,45.37s32.5,14.34,48.44,16.13c20.09,2.24,40.17,1.39,54.87-8.06,17.78-11.44,28.67-49.43,35.74-70.95"/><circle class="cls-16" cx="408.37" cy="172.84" r="47.92" transform="translate(146.33 530.57) rotate(-76.72)"/><path d="M426,179.67h0a8.56,8.56,0,0,0,8.2-5.48l-2.26-.76a6.13,6.13,0,0,1-6,3.86h0c-4.8,0-5.86-3.63-5.9-3.79l-2.31.61C418.3,176,420.66,179.67,426,179.67Z"/><path d="M390.69,179.67h0a8.56,8.56,0,0,0,8.2-5.48l-2.26-.76a6.13,6.13,0,0,1-6,3.86h0c-4.79,0-5.86-3.63-5.9-3.79l-2.3.61C383,176,385.35,179.67,390.69,179.67Z"/><path d="M408.66,200.93a18.27,18.27,0,0,0,10.92-3.53l-1.52-1.82c-.34.28-8.33,6.7-19.52-.11l-1.24,2A21.7,21.7,0,0,0,408.66,200.93Z"/><circle class="cls-16" cx="540.81" cy="47.51" r="47.51" transform="translate(0.66 101.99) rotate(-10.78)"/><path d="M522.75,67.27a72.82,72.82,0,0,0,36.13,0s-.76,11.38-18.06,11.38S522.75,67.27,522.75,67.27Z"/><path d="M526.67,51.2c0,2.62-1.5,4.75-3.36,4.75S520,53.82,520,51.2s1.51-4.76,3.36-4.76S526.67,48.57,526.67,51.2Z"/><path d="M561.68,51.2c0,2.62-1.5,4.75-3.36,4.75S555,53.82,555,51.2s1.51-4.76,3.36-4.76S561.68,48.57,561.68,51.2Z"/></g></g></g></svg>