<?xml version="1.0" encoding="UTF-8"?>
<svg id="katman_1" data-name="katman 1" xmlns="http://www.w3.org/2000/svg" version="1.1" viewBox="0 0 841.89 595.28">
  <defs>
    <style>
      .cls-1 {
        fill: #7d3f98;
        stroke-width: 0px;
      }
    </style>
  </defs>
  <path class="cls-1" d="M390.78,318.24c32.25,0,48.8-10.12,48.8-31.88,0-18.78-13.65-31.28-43.3-31.28-35.93,0-50.29,16.03-53.56,44.75-5.24-.33-10.97-.45-18.78-.48,0-1.56.04-3.12.04-4.72,0-29.12-12.05-39.65-44.19-39.65-15.7,0-29.53,2.34-37.98,5.77l1.26,23.25c7.36-3.91,18.34-7.66,28.75-7.66,14.69,0,19.16,6.06,19.16,20.61l-.04,2.16c-1-.04-3.61-.04-5.02-.04-36.6,0-53.56,11.08-53.56,31.62s10.53,33.62,40.54,33.62c15.81,0,31.43-2.23,51.55-2.23-1.49-8.48-1.53-20.68-1.53-29.05,0-4.43.22-9.71.45-15.7,8.59.07,14.92.3,19.08.48,3.12,34,20.75,46.57,57.47,46.57,13.58,0,27.3-2.31,34.48-5.65l-1.26-23.25c-7.14,4.13-17.07,7.51-27.97,7.51-18.04,0-27.82-9.41-27.82-24.29v-.71c3.24.15,9.67.26,13.43.26ZM280.72,343.98c-11.16,0-15.92-3.72-15.92-13.06s6.06-14.1,21.31-14.1c1.41,0,3.12-.04,4.35.07-.07,8.7-.26,18.86.22,25.93-2.64.71-6.55,1.15-9.97,1.15ZM377.2,300.27v-.52c0-14.58,4.61-25.29,18-25.29,7.59,0,12.46,3.98,12.46,11.2,0,10.15-6.77,14.88-20.83,14.88-3.38,0-6.99-.04-9.63-.26ZM505.53,341.08c-10.79,0-13.95-4.28-13.95-19.94v-40.43h21.28v-22.47h-20.94c0-7.96.63-19.71,1.3-27.78h-19.71c-2.6,19.64-8.29,29.76-26.22,32.73-.07,5.28.22,12.5,0,17.52h11.94c-.19,11.16-.52,31.54-.52,50.1,0,23.69,12.27,33.4,35.34,33.4,11.23,0,19.49-1.64,22.24-2.42l-1.41-23.1c-2.01,1.38-5.99,2.38-9.34,2.38ZM729.96,294.62c0-29.12-12.05-39.65-44.15-39.65-15.73,0-29.53,2.34-37.98,5.77l1.26,23.25c7.36-3.91,18.3-7.66,28.75-7.66,14.69,0,19.16,6.06,19.16,20.61v2.16c-1.04-.04-3.61-.04-5.02-.04-36.64,0-53.56,11.08-53.56,31.62s10.53,33.62,40.54,33.62c15.81,0,31.43-2.23,51.52-2.23-1.45-8.48-1.49-20.68-1.49-29.05-.04-9.48.97-22.8.97-38.39ZM686.74,343.98c-11.2,0-15.92-3.72-15.92-13.06s6.06-14.1,21.31-14.1c1.38,0,3.09-.04,4.31.07-.04,8.7-.26,18.86.26,25.93-2.64.71-6.58,1.15-9.97,1.15ZM625,313.63c0-8.78.19-20.46.19-20.46,0-26.3-11.53-38.09-44.15-38.09-18.3,0-31.36,3.2-51.78,3.2,1.15,18.45,1.19,41.25,1.12,55.38.07,14.36-.48,40.1-1.12,48.39h35.04c-.82-8.33-1.49-32.25-1.41-48.39,0-9.19.11-20.31.48-35.22,3.5-1.19,7.92-2.08,12.72-2.08,12.27,0,16.22,5.77,16.22,21.57,0,0,.19,9.93.19,15.77,0,14.36-.48,40.1-1.12,48.39h35.04c-.82-8.41-1.53-32.32-1.41-48.47ZM191.01,250.36c-3.27-3.27-7.55-4.91-11.79-4.91s-8.59,1.64-11.87,4.95l-19.42,19.45-19.45-19.45c-3.31-3.35-7.59-4.98-11.87-4.98s-8.55,1.64-11.83,4.91l-23.66,23.66c-6.51,6.51-6.51,17.11.04,23.66l66.73,66.73,66.73-66.73c6.55-6.51,6.51-17.11,0-23.66l-23.62-23.62ZM757.79,261.03c0-3.53-2.16-5.02-6.36-5.02h-6.62v17.41h2.86v-7.44h2.68l4.5,7.44h3.24l-4.87-7.66c2.64-.26,4.57-1.56,4.57-4.72ZM747.67,263.56v-5.1h3.46c1.71,0,3.79.26,3.79,2.34,0,2.53-1.9,2.72-4.02,2.72h-3.24v.04ZM750.79,248.72c-8.33,0-15.47,6.29-15.47,15.73s6.43,15.73,15.47,15.73c8.26,0,15.4-6.25,15.4-15.73s-7.14-15.73-15.4-15.73ZM750.79,277.44c-7.48,0-12.13-5.84-12.13-12.98,0-7.66,5.28-12.98,12.13-12.98s12.01,5.36,12.01,12.98-5.28,12.98-12.01,12.98Z"/>
</svg>