<?xml version="1.0" encoding="utf-8"?>
<!-- Generator: Adobe Illustrator 25.4.1, SVG Export Plug-In . SVG Version: 6.00 Build 0)  -->
<svg version="1.1" id="katman_1" xmlns="http://www.w3.org/2000/svg" xmlns:xlink="http://www.w3.org/1999/xlink" x="0px" y="0px"
	 viewBox="0 0 841.9 595.3" style="enable-background:new 0 0 841.9 595.3;" xml:space="preserve">
<style type="text/css">
	.st0{fill:#FFFFFF;}
	.st1{fill:#008BCC;}
	.st2{enable-background:new    ;}
</style>
<g>
	
		<ellipse transform="matrix(7.088903e-02 -0.9975 0.9975 7.088903e-02 -154.0831 426.235)" class="st0" cx="151.8" cy="295.8" rx="36.5" ry="36.5"/>
	<g>
		<path class="st1" d="M207.2,345.2c-4,0-7,3.1-7,7s3.1,7,7,7c3.7,0,7-3.1,7-7C214.3,348.2,211.2,345.2,207.2,345.2z M207.2,358
			c-3.4,0-5.8-2.5-5.8-5.8c0-3.4,2.5-5.8,5.8-5.8s5.8,2.5,5.8,5.8C213.1,355.6,210.9,358,207.2,358z"/>
		<path class="st1" d="M210.9,350.4c0-1.5-0.6-2.1-2.8-2.1h-3.4v8h0.9v-3.4h1.8l2.1,3.4h1.2l-2.5-3.4
			C210,352.5,210.9,351.9,210.9,350.4z M207.2,351.6h-1.5v-2.5h2.1c0.9,0,1.8,0,1.8,1.2C210,351.9,208.2,351.6,207.2,351.6z
			 M152.1,305.3c-0.3,0-0.3,0-0.6,0.3l-11.6,17.8c3.7,1.5,7.7,2.5,12,2.5s8.3-0.9,12-2.5L152.1,305.3
			C152.4,305.3,152.1,305.3,152.1,305.3z M140.7,290.6l-17.5-1.5c-0.6,2.1-0.9,4.6-0.9,7c0,7.4,2.8,14.1,7,19.3l12.3-23.3
			C142.3,291.5,142,290.9,140.7,290.6z"/>
		<path class="st1" d="M179.6,268.2v-34.6h-55.5v34.6H89.5v55.5h34.6v34.6h55.5v-34.6h34.6v-55.5H179.6z M152.1,261.8
			c13.8,0,25.7,8,31,19.9h-24.5c-3.4,0-4.9-2.1-5.2-3.7c0-1.8,0.3-2.5,1.8-4.6c1.8-2.5,0.6-6.7-3.4-7c-4,0-5.2,4.6-3.4,7
			c1.5,2.1,1.8,2.8,1.8,4.6c0,1.5-1.5,3.7-5.2,3.7h-24.5C126.3,270.1,138.3,261.8,152.1,261.8z M117.7,296.1c0-4.3,0.9-8.3,2.1-12
			l23,2.1c4.3,0.6,4.9,4.9,3.7,7.4l-15.6,29.7C123,317,117.7,307.2,117.7,296.1z M170.8,324.9c-5.5,3.7-12,5.5-19,5.5
			s-13.5-2.1-19-5.5l16.9-24.8c1.2-1.8,3.1-1.5,4.3,0L170.8,324.9z M173.2,323.1l-15.6-29.4c-1.2-2.5-0.6-6.7,3.7-7.4l23-2.1
			c1.5,3.7,2.1,8,2.1,12C186.4,307.2,181.2,317,173.2,323.1z"/>
		<path class="st1" d="M174.4,276.8c-3.7-4.3-8.6-7.7-14.1-9.2c1.8,2.8,0.3,6.7-1.2,8.6c-0.3,0.3,0,0.6,0,0.6H174.4z M163.4,290.6
			c-1.2,0-1.2,0.6-0.9,1.2l12.3,23.3c4.3-5.2,7-12,7-19.3c0-2.5-0.3-4.9-0.9-7C180.9,288.8,163.4,290.6,163.4,290.6z M143.8,267.9
			c-5.5,1.5-10.4,4.9-14.1,9.2H145c0.3,0,0.3-0.3,0-0.6C143.5,274.4,142,270.7,143.8,267.9z"/>
	</g>
	<path class="st1" d="M600.1,271c-7-7.7-13.8-15.6-21.1-22.7c-5.8-5.5-12.6-3.1-18.7,2.8c-15.9,14.7-31.9,29.1-53.9,31
		c-5.5,0.6-9.5-0.9-13.2-5.8c-7.7-10.4-8.9-9.5-19.9-4.9c-9.8,4-20.5,5.5-30.6,8c-5.8,1.5-11.6,3.1-18.1,2.8c2.5-1.2,4.6-2.8,7-3.1
		c15.9-3.4,30-11.3,43.8-20.2c3.4-2.1,6.7-4,10.1-5.5c4.9-2.1,8.9-2.1,12.3,3.7c1.5,3.1,5.5,5.8,8.6,6.1c12,0.9,23.9,1.2,34-7.7
		c7-6.1,13.8-12.3,20.5-18.4c6.1-5.2,12-4.9,17.8,0.6c8.6,8,16.5,16.9,25.7,23.9c8.3,6.1,17.5,11.3,26.7,15.3
		c4.3,1.8,10.4,0,15.3-1.2c4-0.9,7.7-3.1,11-4.9c11.3-5.8,22.1-7,31.6,4.6c2.8,3.7,7.4,5.5,13.2,9.5c-4,0.3-6.4,0.9-8.6,0.6
		c-3.7-0.9-7.7-1.8-10.7-3.7c-13.2-7.4-25.7-3.1-38.9,1.5c-8.6,3.1-17.5,5.8-26.4,7c-15.9,2.1-26.4-10.1-38-18.7
		c0-0.6,0.3-1.5,0.3-2.1C587.3,269.8,593.7,270.4,600.1,271c4,2.8,8,5.8,12,8.6c1.2,0.9,3.4,0,5.2,0c-0.9-2.1-1.8-5.8-3.4-6.4
		C609.3,271.9,604.7,271.6,600.1,271z"/>
	<g class="st2">
		<path d="M260.9,236.6h22.3c3.7,0,6.6,1.3,8.6,3.9c2,2.6,3,5.8,3,9.5c0,3.2-0.7,5.9-2.1,8.2c-0.9,1.5-2.3,2.7-4.2,3.6
			c2.8,0.9,4.8,2.5,6.1,4.8s2,5.1,2,8.5c0,2.8-0.5,5.3-1.4,7.5c-0.9,2.2-2.2,4-3.8,5.3c-1,0.8-2.5,1.4-4.5,1.8
			c-2.7,0.5-4.5,0.7-5.3,0.7h-20.6V236.6z M272.9,257.7h5.2c1.9,0,3.2-0.4,3.9-1.3c0.7-0.9,1.1-2.2,1.1-3.9c0-1.6-0.4-2.8-1.1-3.7
			s-2-1.3-3.8-1.3h-5.3V257.7z M272.9,278.9h6.1c2.1,0,3.5-0.5,4.3-1.5c0.8-1,1.3-2.4,1.3-4.1c0-1.6-0.4-2.9-1.2-3.8
			c-0.8-1-2.3-1.5-4.4-1.5h-6V278.9z"/>
		<path d="M305.4,236.6h10.7v53.8h-10.7V236.6z"/>
		<path d="M355.5,290.4h-10v-6.3c-1.5,2.6-3,4.4-4.5,5.5c-1.5,1.1-3.4,1.7-5.6,1.7c-2.9,0-5.3-1.2-6.9-3.7s-2.5-6.2-2.5-11.4v-24.8
			h10.8v21.4c0,2.4,0.3,4.2,1,5.2c0.6,1,1.6,1.5,2.7,1.5c1.3,0,2.3-0.7,3.1-2.1c0.8-1.4,1.2-3.8,1.2-7.4v-18.8h10.7V290.4z"/>
		<path d="M396.1,274.6h-21.5c0.2,2.4,0.7,4.2,1.4,5.4c1,1.7,2.4,2.5,4,2.5c1.1,0,2.1-0.4,3-1.1c0.6-0.5,1.2-1.3,1.9-2.5l10.5,1.4
			c-1.6,3.9-3.6,6.7-5.8,8.4c-2.3,1.7-5.5,2.6-9.8,2.6c-3.7,0-6.6-0.7-8.7-2.2c-2.1-1.5-3.9-3.8-5.3-6.9c-1.4-3.2-2.1-6.9-2.1-11.2
			c0-6.1,1.4-11,4.2-14.8c2.8-3.8,6.7-5.7,11.6-5.7c4,0,7.2,0.8,9.5,2.5c2.3,1.7,4.1,4.1,5.3,7.3c1.2,3.2,1.8,7.4,1.8,12.5V274.6z
			 M385.2,267.5c-0.2-2.9-0.8-5-1.7-6.2c-0.9-1.2-2.1-1.9-3.6-1.9c-1.7,0-3.1,0.9-4.1,2.8c-0.6,1.2-1.1,2.9-1.2,5.3H385.2z"/>
	</g>
	<g class="st2">
		<path d="M289.6,340.7l10.4,4.4c-0.7,4.1-1.8,7.5-3.3,10.2c-1.5,2.7-3.4,4.8-5.6,6.2s-5.1,2.1-8.5,2.1c-4.2,0-7.6-0.9-10.3-2.6
			c-2.7-1.7-4.9-4.7-6.9-9s-2.9-9.8-2.9-16.4c0-8.9,1.7-15.7,5.1-20.5c3.4-4.8,8.2-7.2,14.4-7.2c4.9,0,8.7,1.4,11.5,4.1
			c2.8,2.7,4.8,7,6.2,12.6l-10.5,3.3c-0.4-1.6-0.8-2.8-1.2-3.6c-0.7-1.3-1.5-2.3-2.4-2.9s-2-1-3.2-1c-2.7,0-4.8,1.5-6.2,4.5
			c-1.1,2.2-1.6,5.8-1.6,10.6c0,6,0.6,10.1,1.9,12.3c1.3,2.2,3.1,3.3,5.5,3.3c2.3,0,4-0.9,5.2-2.7S289,344.1,289.6,340.7z"/>
		<path d="M308.2,323.8h10v6.4c1-2.8,2-4.7,3-5.7c1-1,2.3-1.6,3.8-1.6c1.6,0,3.3,0.7,5.2,2.1l-3.3,10.6c-1.3-0.7-2.3-1.1-3-1.1
			c-1.4,0-2.5,0.8-3.3,2.4c-1.1,2.3-1.7,6.5-1.7,12.8v13.1h-10.8V323.8z"/>
		<path d="M334.7,343.4c0-5.9,1.4-10.9,4.3-14.7c2.9-3.9,6.8-5.8,11.7-5.8c5.6,0,9.8,2.3,12.7,6.8c2.3,3.6,3.4,8.1,3.4,13.5
			c0,6-1.4,10.9-4.3,14.7s-6.8,5.7-11.8,5.7c-4.5,0-8.1-1.6-10.9-4.8C336.4,354.9,334.7,349.8,334.7,343.4z M345.4,343.3
			c0,3.5,0.5,6,1.5,7.7c1,1.7,2.3,2.5,3.8,2.5c1.5,0,2.8-0.8,3.8-2.5c1-1.6,1.5-4.3,1.5-7.9c0-3.4-0.5-5.9-1.5-7.5
			c-1-1.7-2.2-2.5-3.7-2.5c-1.6,0-2.8,0.8-3.9,2.5C345.9,337.3,345.4,339.9,345.4,343.3z"/>
		<path d="M373.1,351.9l10.6-1.4c0.4,1.8,1.1,3,1.8,3.8s1.8,1.1,3.2,1.1c1.4,0,2.6-0.4,3.3-1.3c0.6-0.6,0.9-1.4,0.9-2.4
			c0-1.1-0.4-1.9-1.2-2.5c-0.6-0.4-2.1-0.9-4.6-1.5c-3.7-0.9-6.3-1.7-7.7-2.5c-1.4-0.8-2.7-2.1-3.7-3.9c-1-1.8-1.5-3.9-1.5-6.3
			c0-2.6,0.5-4.8,1.6-6.6c1.1-1.9,2.5-3.2,4.4-4.2c1.9-0.9,4.4-1.4,7.5-1.4c3.3,0,5.8,0.4,7.4,1.1c1.6,0.7,2.9,1.8,4,3.3
			c1.1,1.5,1.9,3.5,2.6,6.1l-10.2,1.4c-0.3-1.2-0.7-2.2-1.3-2.8c-0.8-0.8-1.9-1.2-3.1-1.2c-1.2,0-2.1,0.3-2.6,0.9
			c-0.6,0.6-0.8,1.3-0.8,2.2c0,1,0.4,1.7,1.1,2.2c0.7,0.5,2.2,0.9,4.6,1.3c3.6,0.6,6.2,1.3,7.9,2.3s3.1,2.4,4,4.3s1.4,3.9,1.4,6.1
			c0,2.2-0.5,4.4-1.5,6.6c-1,2.1-2.5,3.8-4.6,5.1c-2.1,1.3-4.9,1.9-8.6,1.9c-5.1,0-8.7-1-10.9-3
			C375.1,358.6,373.7,355.7,373.1,351.9z"/>
		<path d="M409.1,351.9l10.6-1.4c0.4,1.8,1.1,3,1.8,3.8s1.8,1.1,3.2,1.1c1.4,0,2.6-0.4,3.3-1.3c0.6-0.6,0.9-1.4,0.9-2.4
			c0-1.1-0.4-1.9-1.2-2.5c-0.6-0.4-2.1-0.9-4.6-1.5c-3.7-0.9-6.3-1.7-7.7-2.5c-1.4-0.8-2.7-2.1-3.7-3.9c-1-1.8-1.5-3.9-1.5-6.3
			c0-2.6,0.5-4.8,1.6-6.6c1.1-1.9,2.5-3.2,4.4-4.2c1.9-0.9,4.4-1.4,7.5-1.4c3.3,0,5.8,0.4,7.4,1.1c1.6,0.7,2.9,1.8,4,3.3
			c1.1,1.5,1.9,3.5,2.6,6.1l-10.2,1.4c-0.3-1.2-0.7-2.2-1.3-2.8c-0.8-0.8-1.9-1.2-3.1-1.2c-1.2,0-2.1,0.3-2.6,0.9
			c-0.6,0.6-0.8,1.3-0.8,2.2c0,1,0.4,1.7,1.1,2.2c0.7,0.5,2.2,0.9,4.6,1.3c3.6,0.6,6.2,1.3,7.9,2.3c1.7,1,3.1,2.4,4,4.3
			s1.4,3.9,1.4,6.1c0,2.2-0.5,4.4-1.5,6.6c-1,2.1-2.5,3.8-4.6,5.1c-2.1,1.3-4.9,1.9-8.6,1.9c-5.1,0-8.7-1-10.9-3
			C411.1,358.6,409.7,355.7,409.1,351.9z"/>
		<path d="M466.6,343.4c0-5.9,1.4-10.9,4.3-14.7c2.9-3.9,6.8-5.8,11.7-5.8c5.6,0,9.8,2.3,12.7,6.8c2.3,3.6,3.4,8.1,3.4,13.5
			c0,6-1.4,10.9-4.3,14.7c-2.8,3.8-6.8,5.7-11.8,5.7c-4.5,0-8.1-1.6-10.9-4.8C468.3,354.9,466.6,349.8,466.6,343.4z M477.4,343.3
			c0,3.5,0.5,6,1.5,7.7c1,1.7,2.3,2.5,3.8,2.5c1.5,0,2.8-0.8,3.8-2.5c1-1.6,1.5-4.3,1.5-7.9c0-3.4-0.5-5.9-1.5-7.5
			c-1-1.7-2.2-2.5-3.7-2.5c-1.6,0-2.8,0.8-3.9,2.5S477.4,339.9,477.4,343.3z"/>
		<path d="M518.9,323.8h5.1v10.9h-5.1v28.1h-10.7v-28.1h-4v-10.9h4V322c0-1.6,0.1-3.3,0.4-5.3c0.2-1.9,0.7-3.5,1.4-4.7
			s1.6-2.2,2.8-2.9c1.2-0.7,3-1.1,5.4-1.1c1.9,0,4.6,0.3,8.2,0.9l-1.2,9c-1.3-0.3-2.3-0.4-3.1-0.4c-1,0-1.7,0.2-2.1,0.7
			c-0.4,0.5-0.7,1.2-0.9,2.1C518.9,320.9,518.9,322,518.9,323.8z"/>
		<path d="M556.3,308.9h11.9v53.8h-11.9V308.9z"/>
		<path d="M608.6,308.9v53.8h-10V357c-1.4,2.4-2.7,4.1-3.8,5c-1.5,1.1-3.3,1.7-5.2,1.7c-3.8,0-6.7-2-8.7-6.1c-2-4-3-8.9-3-14.7
			c0-6.5,1.1-11.4,3.3-14.8c2.2-3.4,5-5.1,8.5-5.1c1.7,0,3.2,0.4,4.5,1.2s2.6,2,3.6,3.5v-18.7H608.6z M597.8,343.1
			c0-3.1-0.5-5.3-1.4-6.8c-0.9-1.5-2.1-2.3-3.5-2.3c-1.2,0-2.3,0.7-3.1,2.2s-1.3,3.9-1.3,7.3c0,3.2,0.4,5.5,1.3,7
			c0.9,1.5,1.9,2.2,3.2,2.2c1.4,0,2.5-0.7,3.4-2.2C597.4,349,597.8,346.5,597.8,343.1z"/>
		<path d="M627.9,336.4l-10.2-1.5c0.4-2.5,0.9-4.5,1.7-5.9c0.7-1.4,1.8-2.7,3.1-3.7c1-0.8,2.3-1.3,4-1.8c1.7-0.4,3.6-0.6,5.6-0.6
			c3.2,0,5.8,0.3,7.7,0.8c1.9,0.5,3.6,1.5,4.9,3.1c0.9,1.1,1.6,2.7,2.2,4.7c0.5,2,0.8,3.9,0.8,5.8v17.2c0,1.8,0.1,3.3,0.2,4.3
			c0.2,1,0.5,2.4,1.1,4h-10c-0.4-1-0.7-1.8-0.8-2.3c-0.1-0.5-0.2-1.4-0.4-2.5c-1.4,1.9-2.8,3.2-4.2,4c-1.9,1.1-4.1,1.6-6.6,1.6
			c-3.3,0-5.9-1.1-7.6-3.2c-1.7-2.2-2.6-4.8-2.6-8c0-3,0.6-5.4,1.9-7.3c1.2-1.9,3.5-3.3,6.9-4.3c4-1.1,6.6-1.9,7.8-2.4
			c1.2-0.5,2.5-1,3.8-1.8c0-1.8-0.3-3.1-0.8-3.9c-0.5-0.7-1.5-1.1-2.9-1.1c-1.8,0-3.1,0.4-3.9,1.2
			C628.9,333.5,628.3,334.7,627.9,336.4z M637.2,344.2c-1.5,0.7-3,1.4-4.6,1.9c-2.2,0.8-3.5,1.6-4.1,2.4c-0.6,0.8-0.9,1.7-0.9,2.8
			c0,1.2,0.3,2.1,0.9,2.9c0.6,0.7,1.5,1.1,2.6,1.1c1.2,0,2.3-0.4,3.3-1.2c1-0.8,1.8-1.8,2.2-3s0.6-2.7,0.6-4.5V344.2z"/>
		<path d="M657.2,308.9h10.7v19.8c1.5-2.1,2.9-3.6,4.3-4.5c1.4-0.9,3.1-1.4,5.1-1.4c2.9,0,5.2,1.2,6.9,3.7c1.7,2.5,2.5,6.3,2.5,11.4
			v24.8h-10.8v-21.4c0-2.4-0.3-4.2-1-5.2c-0.6-1-1.6-1.5-2.7-1.5c-1.3,0-2.3,0.7-3.2,2.1c-0.8,1.4-1.2,3.8-1.2,7.4v18.7h-10.7V308.9
			z"/>
		<path d="M694.8,343.4c0-5.9,1.4-10.9,4.3-14.7c2.9-3.9,6.8-5.8,11.7-5.8c5.6,0,9.8,2.3,12.7,6.8c2.3,3.6,3.4,8.1,3.4,13.5
			c0,6-1.4,10.9-4.3,14.7c-2.8,3.8-6.8,5.7-11.8,5.7c-4.5,0-8.1-1.6-10.9-4.8C696.5,354.9,694.8,349.8,694.8,343.4z M705.6,343.3
			c0,3.5,0.5,6,1.5,7.7c1,1.7,2.3,2.5,3.8,2.5c1.5,0,2.8-0.8,3.8-2.5c1-1.6,1.5-4.3,1.5-7.9c0-3.4-0.5-5.9-1.5-7.5
			c-1-1.7-2.2-2.5-3.7-2.5c-1.6,0-2.8,0.8-3.9,2.5S705.6,339.9,705.6,343.3z"/>
	</g>
</g>
</svg>
