<svg xmlns="http://www.w3.org/2000/svg"
viewBox="0 0 841.9 595.3"
style="enable-background:new 0 0 841.9 595.3"
xml:space="preserve">
<style type="text/css">

	.t1{fill:#231F20;}
	.t2{fill:#008BCC;}
</style>
<circle transform="matrix(.07089 -.9975 .9975 .07089 -154.083 426.235)"
cx="151.8" cy="295.8"
style="fill:#fff" r="36.5"/>
<path class="t2" d="M207.2 345.2c-4 0-7 3.1-7 7s3.1 7 7 7c3.7 0 7-3.1 7-7 .1-4-3-7-7-7zm0 12.8c-3.4 0-5.8-2.5-5.8-5.8 0-3.4 2.5-5.8 5.8-5.8s5.8 2.5 5.8 5.8c.1 3.4-2.1 5.8-5.8 5.8z"/>
<path class="t2" d="M210.9 350.4c0-1.5-.6-2.1-2.8-2.1h-3.4v8h.9v-3.4h1.8l2.1 3.4h1.2l-2.5-3.4c1.8-.4 2.7-1 2.7-2.5zm-3.7 1.2h-1.5v-2.5h2.1c.9 0 1.8 0 1.8 1.2.4 1.6-1.4 1.3-2.4 1.3zm-55.1-46.3c-.3 0-.3 0-.6.3l-11.6 17.8c3.7 1.5 7.7 2.5 12 2.5s8.3-.9 12-2.5l-11.8-18.1c.3 0 0 0 0 0zm-11.4-14.7-17.5-1.5c-.6 2.1-.9 4.6-.9 7 0 7.4 2.8 14.1 7 19.3l12.3-23.3c.7-.6.4-1.2-.9-1.5z"/>
<path class="t2" d="M179.6 268.2v-34.6h-55.5v34.6H89.5v55.5h34.6v34.6h55.5v-34.6h34.6v-55.5h-34.6zm-27.5-6.4c13.8 0 25.7 8 31 19.9h-24.5c-3.4 0-4.9-2.1-5.2-3.7 0-1.8.3-2.5 1.8-4.6 1.8-2.5.6-6.7-3.4-7-4 0-5.2 4.6-3.4 7 1.5 2.1 1.8 2.8 1.8 4.6 0 1.5-1.5 3.7-5.2 3.7h-24.5c5.8-11.6 17.8-19.9 31.6-19.9zm-34.4 34.3c0-4.3.9-8.3 2.1-12l23 2.1c4.3.6 4.9 4.9 3.7 7.4l-15.6 29.7c-7.9-6.3-13.2-16.1-13.2-27.2zm53.1 28.8c-5.5 3.7-12 5.5-19 5.5s-13.5-2.1-19-5.5l16.9-24.8c1.2-1.8 3.1-1.5 4.3 0l16.8 24.8zm2.4-1.8-15.6-29.4c-1.2-2.5-.6-6.7 3.7-7.4l23-2.1c1.5 3.7 2.1 8 2.1 12 0 11-5.2 20.8-13.2 26.9z"/>
<path class="t2" d="M174.4 276.8c-3.7-4.3-8.6-7.7-14.1-9.2 1.8 2.8.3 6.7-1.2 8.6-.3.3 0 .6 0 .6h15.3zm-11 13.8c-1.2 0-1.2.6-.9 1.2l12.3 23.3c4.3-5.2 7-12 7-19.3 0-2.5-.3-4.9-.9-7l-17.5 1.8zm-19.6-22.7c-5.5 1.5-10.4 4.9-14.1 9.2H145c.3 0 .3-.3 0-.6-1.5-2.1-3-5.8-1.2-8.6zm456.3 3.1c-7-7.7-13.8-15.6-21.1-22.7-5.8-5.5-12.6-3.1-18.7 2.8-15.9 14.7-31.9 29.1-53.9 31-5.5.6-9.5-.9-13.2-5.8-7.7-10.4-8.9-9.5-19.9-4.9-9.8 4-20.5 5.5-30.6 8-5.8 1.5-11.6 3.1-18.1 2.8 2.5-1.2 4.6-2.8 7-3.1 15.9-3.4 30-11.3 43.8-20.2 3.4-2.1 6.7-4 10.1-5.5 4.9-2.1 8.9-2.1 12.3 3.7 1.5 3.1 5.5 5.8 8.6 6.1 12 .9 23.9 1.2 34-7.7 7-6.1 13.8-12.3 20.5-18.4 6.1-5.2 12-4.9 17.8.6 8.6 8 16.5 16.9 25.7 23.9 8.3 6.1 17.5 11.3 26.7 15.3 4.3 1.8 10.4 0 15.3-1.2 4-.9 7.7-3.1 11-4.9 11.3-5.8 22.1-7 31.6 4.6 2.8 3.7 7.4 5.5 13.2 9.5-4 .3-6.4.9-8.6.6-3.7-.9-7.7-1.8-10.7-3.7-13.2-7.4-25.7-3.1-38.9 1.5-8.6 3.1-17.5 5.8-26.4 7-15.9 2.1-26.4-10.1-38-18.7 0-.6.3-1.5.3-2.1 7.4.3 13.8.9 20.2 1.5 4 2.8 8 5.8 12 8.6 1.2.9 3.4 0 5.2 0-.9-2.1-1.8-5.8-3.4-6.4-4.6-1.3-9.2-1.6-13.8-2.2z"/>
<path d="M260.9 236.6h22.3c3.7 0 6.6 1.3 8.6 3.9 2 2.6 3 5.8 3 9.5 0 3.2-.7 5.9-2.1 8.2-.9 1.5-2.3 2.7-4.2 3.6 2.8.9 4.8 2.5 6.1 4.8s2 5.1 2 8.5c0 2.8-.5 5.3-1.4 7.5-.9 2.2-2.2 4-3.8 5.3-1 .8-2.5 1.4-4.5 1.8-2.7.5-4.5.7-5.3.7H261v-53.8zm12 21.1h5.2c1.9 0 3.2-.4 3.9-1.3.7-.9 1.1-2.2 1.1-3.9 0-1.6-.4-2.8-1.1-3.7s-2-1.3-3.8-1.3h-5.3v10.2zm0 21.2h6.1c2.1 0 3.5-.5 4.3-1.5.8-1 1.3-2.4 1.3-4.1 0-1.6-.4-2.9-1.2-3.8-.8-1-2.3-1.5-4.4-1.5h-6v10.9zm32.5-42.3h10.7v53.8h-10.7v-53.8zm50.1 53.8h-10v-6.3c-1.5 2.6-3 4.4-4.5 5.5-1.5 1.1-3.4 1.7-5.6 1.7-2.9 0-5.3-1.2-6.9-3.7s-2.5-6.2-2.5-11.4v-24.8h10.8v21.4c0 2.4.3 4.2 1 5.2.6 1 1.6 1.5 2.7 1.5 1.3 0 2.3-.7 3.1-2.1.8-1.4 1.2-3.8 1.2-7.4v-18.8h10.7v39.2zm40.6-15.8h-21.5c.2 2.4.7 4.2 1.4 5.4 1 1.7 2.4 2.5 4 2.5 1.1 0 2.1-.4 3-1.1.6-.5 1.2-1.3 1.9-2.5l10.5 1.4c-1.6 3.9-3.6 6.7-5.8 8.4-2.3 1.7-5.5 2.6-9.8 2.6-3.7 0-6.6-.7-8.7-2.2-2.1-1.5-3.9-3.8-5.3-6.9-1.4-3.2-2.1-6.9-2.1-11.2 0-6.1 1.4-11 4.2-14.8 2.8-3.8 6.7-5.7 11.6-5.7 4 0 7.2.8 9.5 2.5s4.1 4.1 5.3 7.3c1.2 3.2 1.8 7.4 1.8 12.5v1.8zm-10.9-7.1c-.2-2.9-.8-5-1.7-6.2-.9-1.2-2.1-1.9-3.6-1.9-1.7 0-3.1.9-4.1 2.8-.6 1.2-1.1 2.9-1.2 5.3h10.6zm-95.6 73.2 10.4 4.4c-.7 4.1-1.8 7.5-3.3 10.2-1.5 2.7-3.4 4.8-5.6 6.2s-5.1 2.1-8.5 2.1c-4.2 0-7.6-.9-10.3-2.6-2.7-1.7-4.9-4.7-6.9-9s-2.9-9.8-2.9-16.4c0-8.9 1.7-15.7 5.1-20.5 3.4-4.8 8.2-7.2 14.4-7.2 4.9 0 8.7 1.4 11.5 4.1 2.8 2.7 4.8 7 6.2 12.6l-10.5 3.3c-.4-1.6-.8-2.8-1.2-3.6-.7-1.3-1.5-2.3-2.4-2.9s-2-1-3.2-1c-2.7 0-4.8 1.5-6.2 4.5-1.1 2.2-1.6 5.8-1.6 10.6 0 6 .6 10.1 1.9 12.3 1.3 2.2 3.1 3.3 5.5 3.3 2.3 0 4-.9 5.2-2.7s1.8-4.3 2.4-7.7zm18.6-16.9h10v6.4c1-2.8 2-4.7 3-5.7s2.3-1.6 3.8-1.6c1.6 0 3.3.7 5.2 2.1l-3.3 10.6c-1.3-.7-2.3-1.1-3-1.1-1.4 0-2.5.8-3.3 2.4-1.1 2.3-1.7 6.5-1.7 12.8v13.1h-10.8v-39zm26.5 19.6c0-5.9 1.4-10.9 4.3-14.7 2.9-3.9 6.8-5.8 11.7-5.8 5.6 0 9.8 2.3 12.7 6.8 2.3 3.6 3.4 8.1 3.4 13.5 0 6-1.4 10.9-4.3 14.7s-6.8 5.7-11.8 5.7c-4.5 0-8.1-1.6-10.9-4.8-3.4-3.9-5.1-9-5.1-15.4zm10.7-.1c0 3.5.5 6 1.5 7.7 1 1.7 2.3 2.5 3.8 2.5s2.8-.8 3.8-2.5c1-1.6 1.5-4.3 1.5-7.9 0-3.4-.5-5.9-1.5-7.5-1-1.7-2.2-2.5-3.7-2.5-1.6 0-2.8.8-3.9 2.5-1 1.7-1.5 4.3-1.5 7.7zm27.7 8.6 10.6-1.4c.4 1.8 1.1 3 1.8 3.8s1.8 1.1 3.2 1.1c1.4 0 2.6-.4 3.3-1.3.6-.6.9-1.4.9-2.4 0-1.1-.4-1.9-1.2-2.5-.6-.4-2.1-.9-4.6-1.5-3.7-.9-6.3-1.7-7.7-2.5-1.4-.8-2.7-2.1-3.7-3.9-1-1.8-1.5-3.9-1.5-6.3 0-2.6.5-4.8 1.6-6.6 1.1-1.9 2.5-3.2 4.4-4.2 1.9-.9 4.4-1.4 7.5-1.4 3.3 0 5.8.4 7.4 1.1 1.6.7 2.9 1.8 4 3.3 1.1 1.5 1.9 3.5 2.6 6.1l-10.2 1.4c-.3-1.2-.7-2.2-1.3-2.8-.8-.8-1.9-1.2-3.1-1.2-1.2 0-2.1.3-2.6.9-.6.6-.8 1.3-.8 2.2 0 1 .4 1.7 1.1 2.2.7.5 2.2.9 4.6 1.3 3.6.6 6.2 1.3 7.9 2.3s3.1 2.4 4 4.3 1.4 3.9 1.4 6.1c0 2.2-.5 4.4-1.5 6.6-1 2.1-2.5 3.8-4.6 5.1-2.1 1.3-4.9 1.9-8.6 1.9-5.1 0-8.7-1-10.9-3-2-2-3.4-4.9-4-8.7zm36 0 10.6-1.4c.4 1.8 1.1 3 1.8 3.8s1.8 1.1 3.2 1.1c1.4 0 2.6-.4 3.3-1.3.6-.6.9-1.4.9-2.4 0-1.1-.4-1.9-1.2-2.5-.6-.4-2.1-.9-4.6-1.5-3.7-.9-6.3-1.7-7.7-2.5-1.4-.8-2.7-2.1-3.7-3.9-1-1.8-1.5-3.9-1.5-6.3 0-2.6.5-4.8 1.6-6.6 1.1-1.9 2.5-3.2 4.4-4.2 1.9-.9 4.4-1.4 7.5-1.4 3.3 0 5.8.4 7.4 1.1 1.6.7 2.9 1.8 4 3.3 1.1 1.5 1.9 3.5 2.6 6.1l-10.2 1.4c-.3-1.2-.7-2.2-1.3-2.8-.8-.8-1.9-1.2-3.1-1.2-1.2 0-2.1.3-2.6.9-.6.6-.8 1.3-.8 2.2 0 1 .4 1.7 1.1 2.2.7.5 2.2.9 4.6 1.3 3.6.6 6.2 1.3 7.9 2.3 1.7 1 3.1 2.4 4 4.3s1.4 3.9 1.4 6.1c0 2.2-.5 4.4-1.5 6.6-1 2.1-2.5 3.8-4.6 5.1-2.1 1.3-4.9 1.9-8.6 1.9-5.1 0-8.7-1-10.9-3-2-2-3.4-4.9-4-8.7zm57.5-8.5c0-5.9 1.4-10.9 4.3-14.7 2.9-3.9 6.8-5.8 11.7-5.8 5.6 0 9.8 2.3 12.7 6.8 2.3 3.6 3.4 8.1 3.4 13.5 0 6-1.4 10.9-4.3 14.7-2.8 3.8-6.8 5.7-11.8 5.7-4.5 0-8.1-1.6-10.9-4.8-3.4-3.9-5.1-9-5.1-15.4zm10.8-.1c0 3.5.5 6 1.5 7.7 1 1.7 2.3 2.5 3.8 2.5s2.8-.8 3.8-2.5c1-1.6 1.5-4.3 1.5-7.9 0-3.4-.5-5.9-1.5-7.5-1-1.7-2.2-2.5-3.7-2.5-1.6 0-2.8.8-3.9 2.5s-1.5 4.3-1.5 7.7zm41.5-19.5h5.1v10.9h-5.1v28.1h-10.7v-28.1h-4v-10.9h4V322c0-1.6.1-3.3.4-5.3.2-1.9.7-3.5 1.4-4.7s1.6-2.2 2.8-2.9c1.2-.7 3-1.1 5.4-1.1 1.9 0 4.6.3 8.2.9l-1.2 9c-1.3-.3-2.3-.4-3.1-.4-1 0-1.7.2-2.1.7-.4.5-.7 1.2-.9 2.1-.2.6-.2 1.7-.2 3.5zm37.4-14.9h11.9v53.8h-11.9v-53.8zm52.3 0v53.8h-10V357c-1.4 2.4-2.7 4.1-3.8 5-1.5 1.1-3.3 1.7-5.2 1.7-3.8 0-6.7-2-8.7-6.1-2-4-3-8.9-3-14.7 0-6.5 1.1-11.4 3.3-14.8 2.2-3.4 5-5.1 8.5-5.1 1.7 0 3.2.4 4.5 1.2s2.6 2 3.6 3.5V309h10.8zm-10.8 34.2c0-3.1-.5-5.3-1.4-6.8-.9-1.5-2.1-2.3-3.5-2.3-1.2 0-2.3.7-3.1 2.2s-1.3 3.9-1.3 7.3c0 3.2.4 5.5 1.3 7s1.9 2.2 3.2 2.2c1.4 0 2.5-.7 3.4-2.2 1-1.5 1.4-4 1.4-7.4zm30.1-6.7-10.2-1.5c.4-2.5.9-4.5 1.7-5.9.7-1.4 1.8-2.7 3.1-3.7 1-.8 2.3-1.3 4-1.8 1.7-.4 3.6-.6 5.6-.6 3.2 0 5.8.3 7.7.8 1.9.5 3.6 1.5 4.9 3.1.9 1.1 1.6 2.7 2.2 4.7.5 2 .8 3.9.8 5.8v17.2c0 1.8.1 3.3.2 4.3.2 1 .5 2.4 1.1 4h-10c-.4-1-.7-1.8-.8-2.3-.1-.5-.2-1.4-.4-2.5-1.4 1.9-2.8 3.2-4.2 4-1.9 1.1-4.1 1.6-6.6 1.6-3.3 0-5.9-1.1-7.6-3.2-1.7-2.2-2.6-4.8-2.6-8 0-3 .6-5.4 1.9-7.3 1.2-1.9 3.5-3.3 6.9-4.3 4-1.1 6.6-1.9 7.8-2.4 1.2-.5 2.5-1 3.8-1.8 0-1.8-.3-3.1-.8-3.9-.5-.7-1.5-1.1-2.9-1.1-1.8 0-3.1.4-3.9 1.2-.7.7-1.3 1.9-1.7 3.6zm9.3 7.8c-1.5.7-3 1.4-4.6 1.9-2.2.8-3.5 1.6-4.1 2.4-.6.8-.9 1.7-.9 2.8 0 1.2.3 2.1.9 2.9.6.7 1.5 1.1 2.6 1.1 1.2 0 2.3-.4 3.3-1.2 1-.8 1.8-1.8 2.2-3s.6-2.7.6-4.5v-2.4zm20-35.3h10.7v19.8c1.5-2.1 2.9-3.6 4.3-4.5 1.4-.9 3.1-1.4 5.1-1.4 2.9 0 5.2 1.2 6.9 3.7 1.7 2.5 2.5 6.3 2.5 11.4v24.8h-10.8v-21.4c0-2.4-.3-4.2-1-5.2-.6-1-1.6-1.5-2.7-1.5-1.3 0-2.3.7-3.2 2.1-.8 1.4-1.2 3.8-1.2 7.4v18.7h-10.7v-53.9zm37.6 34.5c0-5.9 1.4-10.9 4.3-14.7 2.9-3.9 6.8-5.8 11.7-5.8 5.6 0 9.8 2.3 12.7 6.8 2.3 3.6 3.4 8.1 3.4 13.5 0 6-1.4 10.9-4.3 14.7-2.8 3.8-6.8 5.7-11.8 5.7-4.5 0-8.1-1.6-10.9-4.8-3.4-3.9-5.1-9-5.1-15.4zm10.8-.1c0 3.5.5 6 1.5 7.7 1 1.7 2.3 2.5 3.8 2.5s2.8-.8 3.8-2.5c1-1.6 1.5-4.3 1.5-7.9 0-3.4-.5-5.9-1.5-7.5-1-1.7-2.2-2.5-3.7-2.5-1.6 0-2.8.8-3.9 2.5s-1.5 4.3-1.5 7.7z"
class="t1"/>
</svg>