<?xml version="1.0" encoding="utf-8"?>
<!-- Generator: Adobe Illustrator 25.4.1, SVG Export Plug-In . SVG Version: 6.00 Build 0)  -->
<svg version="1.0" id="Layer_1" xmlns="http://www.w3.org/2000/svg" xmlns:xlink="http://www.w3.org/1999/xlink" x="0px" y="0px"
	 viewBox="0 0 262.9 194.4" style="enable-background:new 0 0 262.9 194.4;" xml:space="preserve">
<style type="text/css">
	.st0{fill:#FFFFFF;}
	.st1{fill:#231F20;}
	.st2{fill:#008BCC;}
</style>
<circle class="st0" cx="43.8" cy="96.9" r="11.9"/>
<path class="st0" d="M86.6,81.7c-5.1,0-12.9-2.4-12.9-2.4S72,83.7,72,89.7s5,21.8,15.1,25.8c0,0,14.4-9.1,14.4-25
	c0-9.5-1.4-11.2-1.4-11.2S91.7,81.7,86.6,81.7z"/>
<path class="st1" d="M116.3,94V76.8h6.5c3.1-0.2,6.2,1.1,6.2,4.5c0,1.9-1.3,3.2-3,3.8c2.2,0.5,3.8,2,3.8,4.5c0,3.4-4.3,4.7-6.9,4.5
	L116.3,94L116.3,94z M122.9,83.7c1.6,0,2.4-0.6,2.4-2s-0.9-2-2.4-2H120v4.1L122.9,83.7C122.9,83.8,122.9,83.7,122.9,83.7z
	 M122.9,91.1c1.7,0,2.9-0.3,2.9-2.3s-1.2-2.3-2.9-2.3H120v4.6H122.9z M135.7,76.8V94h-3.6V76.8H135.7z M146.6,92.5
	c-0.8,1.1-1.9,1.8-3.7,1.8c-1.2,0-3.5-0.9-3.9-2.6c-0.2-0.7-0.2-1.5-0.2-1.9V82h3.6v7.2c0,1.3,0.4,2.8,2.1,2.8c1.1,0,2.1-1,2.1-2.8
	V82h3.6v9.8c0,0.7,0.1,1.4,0.1,2.1h-3.6C146.7,93.9,146.6,92.5,146.6,92.5z M156.5,89c0,1.6,0.2,3,2.1,3c1.2,0,1.9-0.5,2.2-1.6h3.2
	c-0.3,3-2.6,3.9-5.4,3.9c-4.1,0-5.8-2.3-5.8-6.3c0-3.6,2.1-6.4,5.8-6.4c2.2,0,4.1,0.8,5.1,2.9c0.3,0.7,0.5,1.4,0.6,2.1
	c0.1,0.7,0.1,1.5,0.1,2.3h-7.9C156.5,88.9,156.5,89,156.5,89z M160.7,86.6c0-1.3-0.4-2.5-2.1-2.5c-1.6,0-2,1.2-2.1,2.5H160.7
	L160.7,86.6z M176.5,82.3c0-1.8-1.1-3.3-3.3-3.3c-2.6,0-3.3,3.9-3.3,6.3s0.7,6.3,3.3,6.3c2.2,0,3.3-1.5,3.3-3.3h3.9
	c-0.2,4.3-3.3,5.9-7.2,5.9c-5,0-7.2-3.9-7.2-9c0-5,2.2-9,7.2-9c4,0,7.1,1.6,7.2,5.9h-3.9C176.5,82.1,176.5,82.3,176.5,82.3z
	 M185.6,82l0.1,2.2c0.8-1.9,2.3-2.4,4.1-2.3v3.2h-1.6c-0.6,0-1.4,0.4-1.7,0.9c-0.4,0.7-0.5,1.3-0.5,2.1V94h-3.6v-9.6
	c0-0.5-0.1-1.5-0.1-2.4H185.6z M197.6,94.4c-3.9,0-6.3-2.6-6.3-6.4c0-3.8,2.3-6.4,6.3-6.4c3.9,0,6.3,2.6,6.3,6.4
	C203.9,91.8,201.5,94.4,197.6,94.4z M197.6,92c2.2,0,2.6-2.1,2.6-4c0-1.9-0.4-4-2.6-4s-2.6,2.1-2.6,4C195.1,89.9,195.4,92,197.6,92z
	 M212.5,85.2c0-0.8-0.8-1.2-1.6-1.2c-1,0-1.4,0.3-1.4,1.1c0,1.9,6.9,0.8,6.9,5.3c0,2.6-3.2,3.9-5.4,3.9c-2.8,0-5.2-1.1-5.3-3.8h3.3
	c0.1,0.9,0.9,1.5,2,1.5c1,0,1.7-0.4,1.7-1.3c0-1-1.7-1.4-2.4-1.5c-2.3-0.5-4.4-1.1-4.4-3.8c0-2.5,3-3.6,5.1-3.6
	c2.5,0,4.7,0.9,4.8,3.6h-3.3C212.5,85.4,212.5,85.2,212.5,85.2z M224.4,85.2c0-0.8-0.8-1.2-1.6-1.2c-1,0-1.4,0.3-1.4,1.1
	c0,1.9,6.9,0.8,6.9,5.3c0,2.6-3.2,3.9-5.4,3.9c-2.8,0-5.2-1.1-5.3-3.8h3.3c0.1,0.9,0.9,1.5,2,1.5c1,0,1.7-0.4,1.7-1.3
	c0-1-1.7-1.4-2.4-1.5c-2.3-0.5-4.4-1.1-4.4-3.8c0-2.5,3-3.6,5.1-3.6c2.5,0,4.7,0.9,4.8,3.6h-3.3L224.4,85.2L224.4,85.2z
	 M116.3,117.4v-17.2h6.5c3.1-0.2,6.2,1.1,6.2,4.5c0,1.9-1.3,3.2-3,3.8c2.2,0.5,3.8,2,3.8,4.5c0,3.4-4.3,4.7-6.9,4.5h-6.6
	C116.3,117.5,116.3,117.4,116.3,117.4z M122.9,107.1c1.6,0,2.4-0.6,2.4-2s-0.9-2-2.4-2H120v4.1L122.9,107.1z M122.9,114.5
	c1.7,0,2.9-0.3,2.9-2.3s-1.2-2.3-2.9-2.3H120v4.6H122.9z M135.7,100.2v17.2h-3.6v-17.2H135.7z M146.6,115.9
	c-0.8,1.1-1.9,1.8-3.7,1.8c-1.2,0-3.5-0.9-3.9-2.7c-0.2-0.7-0.2-1.5-0.2-1.9v-7.8h3.6v7.3c0,1.3,0.4,2.8,2.1,2.8
	c1.1,0,2.1-1,2.1-2.8v-7.2h3.6v9.8c0,0.7,0.1,1.4,0.1,2.1h-3.6C146.7,117.3,146.6,115.9,146.6,115.9z M156.5,112.4
	c0,1.6,0.2,3,2.1,3c1.2,0,1.9-0.5,2.2-1.6h3.2c-0.3,3-2.6,3.9-5.4,3.9c-4.1,0-5.8-2.3-5.8-6.3c0-3.6,2.1-6.4,5.8-6.4
	c2.2,0,4.1,0.8,5.1,2.9c0.3,0.7,0.5,1.4,0.6,2.1s0.1,1.5,0.1,2.3L156.5,112.4L156.5,112.4z M160.7,110c0-1.3-0.4-2.5-2.1-2.5
	c-1.6,0-2,1.2-2.1,2.5H160.7L160.7,110z M176,105.1c-0.1-1.7-1.1-2.6-2.9-2.6c-1.4,0-2.7,0.7-2.7,2.2c0,1.9,1.7,2.1,3.2,2.4
	c2.6,0.7,6.5,1.4,6.5,4.9c0,4.3-3.7,5.8-7.4,5.8c-3.9,0-6.7-1.5-6.6-5.9h3.8c-0.1,1.9,1,3.2,2.9,3.2c1.5,0,3.4-0.5,3.4-2.3
	c0-2-2.5-2.2-3.9-2.6c-2.4-0.6-5.7-1.7-5.7-4.8c0-3.9,3.6-5.7,7.2-5.7c3.3,0,5.9,1.8,5.9,5.3C179.7,105,176,105.1,176,105.1z
	 M182.6,117.4v-17.2h3.6v6.7c0.7-1.1,1.9-1.8,3.7-1.8c1.2,0,3.5,0.9,3.9,2.6c0.2,0.7,0.2,1.5,0.2,1.9v7.8h-3.5v-7.2
	c0-1.3-0.4-2.7-2.1-2.7c-1.1,0-2.1,1-2.1,2.7v7.2H182.6L182.6,117.4z M200.9,100.2v3.1h-3.8v-3.1H200.9z M200.7,105.4v12h-3.6v-12
	H200.7z M207,112.4c0,1.6,0.2,3,2.1,3c1.2,0,1.9-0.5,2.2-1.6h3.2c-0.3,3-2.6,3.9-5.4,3.9c-4.1,0-5.8-2.3-5.8-6.3
	c0-3.6,2.1-6.4,5.8-6.4c2.2,0,4.1,0.8,5.1,2.9c0.3,0.7,0.5,1.4,0.6,2.1s0.1,1.5,0.1,2.3L207,112.4L207,112.4z M211.1,110
	c0-1.3-0.4-2.5-2.1-2.5c-1.6,0-2,1.2-2.1,2.5H211.1L211.1,110z M220.6,100.2v17.2H217v-17.2H220.6z M232,100.2h3.6v14.9
	c0,0.8,0.1,1.6,0.1,2.4h-3.6c0-0.6-0.1-1.1-0.1-1.7c-0.8,1.4-2.1,2.1-3.7,2.1c-3.5,0-5.2-3.3-5.2-6.4c0-3.2,1.9-6.4,5.6-6.4
	c1.2,0,2.5,0.7,3.2,1.7L232,100.2L232,100.2z M229.4,115.4c1.9,0,2.6-2.3,2.6-4c0-1.6-0.6-4-2.6-4c-2.3,0-2.6,2.1-2.6,4
	C226.8,113.2,227.1,115.4,229.4,115.4z M230,94c-0.6,0-1.1-0.5-1.1-1.1c0-0.6,0.5-1.1,1.1-1.1s1.1,0.5,1.1,1.1
	C231.1,93.5,230.7,94,230,94 M230,91.5c-0.7,0-1.3,0.6-1.3,1.3c0,0.7,0.6,1.3,1.3,1.3s1.3-0.6,1.3-1.3S230.7,91.5,230,91.5"/>
<path class="st1" d="M230,92.8h-0.3v-0.5h0.4c0.2,0,0.4,0,0.4,0.2C230.5,92.8,230.2,92.8,230,92.8 M230.7,92.5
	c0-0.3-0.1-0.4-0.5-0.4h-0.7v1.5h0.2v-0.7h0.3l0.5,0.7h0.2l-0.4-0.7C230.5,92.9,230.7,92.8,230.7,92.5 M237.7,117.3
	c-0.6,0-1.1-0.5-1.1-1.1s0.5-1.1,1.1-1.1s1.1,0.5,1.1,1.1S238.3,117.3,237.7,117.3 M237.7,114.8c-0.7,0-1.3,0.6-1.3,1.3
	c0,0.7,0.6,1.3,1.3,1.3s1.3-0.6,1.3-1.3C239,115.4,238.4,114.8,237.7,114.8"/>
<path class="st1" d="M237.6,116.1h-0.3v-0.5h0.4c0.2,0,0.4,0,0.4,0.2C238.1,116.1,237.9,116.1,237.6,116.1 M238.4,115.8
	c0-0.3-0.1-0.4-0.5-0.4h-0.7v1.5h0.2v-0.7h0.3l0.4,0.7h0.2l-0.4-0.7C238.2,116.2,238.4,116.1,238.4,115.8"/>
<g>
	<path class="st2" d="M61.9,113c-1.3,0-2.3,1-2.3,2.3c0,1.3,1,2.3,2.3,2.3c1.2,0,2.3-1,2.3-2.3C64.2,114,63.2,113,61.9,113z
		 M61.9,117.2c-1.1,0-1.9-0.8-1.9-1.9c0-1.1,0.8-1.9,1.9-1.9c1.1,0,1.9,0.8,1.9,1.9S63.1,117.2,61.9,117.2z"/>
	<path class="st2" d="M63.1,114.7c0-0.5-0.2-0.7-0.9-0.7h-1.1v2.6h0.3v-1.1H62l0.7,1.1h0.4l-0.8-1.1
		C62.8,115.4,63.1,115.2,63.1,114.7z M61.9,115.1h-0.5v-0.8h0.7c0.3,0,0.6,0,0.6,0.4C62.8,115.2,62.2,115.1,61.9,115.1z M43.9,100
		c-0.1,0-0.1,0-0.2,0.1l-3.8,5.8c1.2,0.5,2.5,0.8,3.9,0.8c1.4,0,2.7-0.3,3.9-0.8L43.9,100C44,100,43.9,100,43.9,100z M40.2,95.2
		l-5.7-0.5c-0.2,0.7-0.3,1.5-0.3,2.3c0,2.4,0.9,4.6,2.3,6.3l4-7.6C40.7,95.5,40.6,95.3,40.2,95.2z"/>
	<path class="st2" d="M52.9,87.9V76.6H34.8v11.3H23.5V106h11.3v11.3h18.1V106h11.3V87.9H52.9z M43.9,85.8c4.5,0,8.4,2.6,10.1,6.5h-8
		c-1.1,0-1.6-0.7-1.7-1.2c0-0.6,0.1-0.8,0.6-1.5c0.6-0.8,0.2-2.2-1.1-2.3c-1.3,0-1.7,1.5-1.1,2.3c0.5,0.7,0.6,0.9,0.6,1.5
		c0,0.5-0.5,1.2-1.7,1.2h-8C35.5,88.5,39.4,85.8,43.9,85.8z M32.7,97c0-1.4,0.3-2.7,0.7-3.9l7.5,0.7c1.4,0.2,1.6,1.6,1.2,2.4
		l-5.1,9.7C34.4,103.8,32.7,100.6,32.7,97z M50,106.4c-1.8,1.2-3.9,1.8-6.2,1.8c-2.3,0-4.4-0.7-6.2-1.8l5.5-8.1c0.4-0.6,1-0.5,1.4,0
		C44.5,98.3,50,106.4,50,106.4z M50.8,105.8l-5.1-9.6c-0.4-0.8-0.2-2.2,1.2-2.4l7.5-0.7c0.5,1.2,0.7,2.6,0.7,3.9
		C55.1,100.6,53.4,103.8,50.8,105.8z"/>
	<path class="st2" d="M51.2,90.7c-1.2-1.4-2.8-2.5-4.6-3c0.6,0.9,0.1,2.2-0.4,2.8c-0.1,0.1,0,0.2,0,0.2H51.2z M47.6,95.2
		c-0.4,0-0.4,0.2-0.3,0.4l4,7.6c1.4-1.7,2.3-3.9,2.3-6.3c0-0.8-0.1-1.6-0.3-2.3C53.3,94.6,47.6,95.2,47.6,95.2z M41.2,87.8
		c-1.8,0.5-3.4,1.6-4.6,3h5c0.1,0,0.1-0.1,0-0.2C41.1,89.9,40.6,88.7,41.2,87.8z"/>
</g>
<g>
	<path class="st2" d="M100.6,76.6c-4.4,2.2-8.8,3.4-13.9,3.4s-9.5-1.2-13.9-3.4c-2.9,5.7-3.3,14.9-0.8,22.6
		c2.4,7.4,7.1,14.2,14.7,18.4c7.7-4.2,12.3-11,14.7-18.4C104,91.5,103.5,82.3,100.6,76.6z M98.6,98.3c-2.2,6.3-5.5,11.9-11.8,15.8
		c-6.3-3.9-9.7-9.5-11.8-15.8c-1.9-5.6-2.4-12.2-0.3-17.3c3.2,1.1,5,1.4,6.7,1.7c1.6,0.3,3,0.4,5.4,0.4c2.3,0,3.8-0.2,5.4-0.4
		c1.7-0.3,3.6-0.6,6.7-1.7C100.9,86.1,100.5,92.7,98.6,98.3z"/>
	<path class="st2" d="M92.2,84.1c-1.8,0.2-3.7,0.4-5.5,0.4s-3.6-0.2-5.5-0.4c-1.8-0.3-3.6-0.7-5.5-1.2c-1.3,3.8-1.1,8.6,0,12.8
		c1.9,8,6.8,14.1,11,16.8c4.3-2.7,9.1-8.8,11-16.8c1-4.3,1.3-9,0-12.8C95.8,83.4,94.1,83.9,92.2,84.1z M85.7,108.8
		c-0.1,0.4,0.1,0.6,0.1,0.8c-0.1,0.3-0.3,0.2-0.4,0c-0.2-0.3-0.3-0.5-0.3-1c-0.1-0.8,0.3-1.1,0.5-1.3c0.2-0.2,0.4-0.3,0.4-0.3
		l0.1,1.3C85.9,108.3,85.7,108.4,85.7,108.8z M87.4,110.1c0,0.2-0.1,0.4-0.5,0.4c-0.3,0-0.5-0.1-0.5-0.5c-0.1-1.6-0.1-4.5-0.1-4.5
		s0.4,0.1,0.7,0.3c0.1,0,0.3,0.2,0.5,0.4c0,0.1,0.1,0.1,0.1,0.2C87.5,107.5,87.4,109.6,87.4,110.1z M88.7,107.1
		c-0.4,0.3-0.8,0.4-0.8,0.4v-1.2c0,0,0.1-0.1,0.1-0.3c-0.1-0.2-0.9-0.8-1.3-1c-0.5-0.2-1.1-0.4-1.5-0.5c-1-0.4-1.4-1.3-1-2.3
		c0.1-0.4,0.6-0.6,0.8-0.7c0.2-0.1,0.6-0.2,0.6-0.2l0.1,1.4c0,0-0.1,0-0.2,0.2c-0.1,0.2,0.1,0.4,0.2,0.4c0.7,0.3,1.6,0.7,2.3,1.1
		c0.9,0.5,1.2,0.9,1.2,1.6C89.3,106.5,89,106.9,88.7,107.1z M86.2,100.6c0.7,0.1,0.9,0.1,1.5,0.2l-0.1,2.8l-0.6-0.3l-0.6-0.3
		C86.4,103,86.2,100.6,86.2,100.6z M90.2,101.2c-0.1,0.5-0.4,0.9-0.9,1.2c-0.5,0.3-1.1,0.3-1.1,0.3V101c0,0,0.1,0,0.2-0.1
		c0.1-0.1,0.1-0.2,0.1-0.3s-0.1-0.2-0.2-0.3c-0.2-0.1-0.4-0.1-0.5-0.1l-2.4-0.3c-1.4-0.2-2.5-1.1-2.4-2.5c0.1-0.9,1-1.2,1.7-1.5
		l0.5,1c0.1,0.4,0.2,0.6,0.2,0.6s-0.3,0.1-0.3,0.3c0,0.2,0.3,0.3,0.4,0.3c1,0.1,2.4,0.3,3.1,0.6c0.5,0.2,0.9,0.4,1.2,0.8
		C90.2,100.2,90.3,100.7,90.2,101.2z M85.6,94.7c0,0,0.3,0,1.2,0.1c0.6,0,1.1,0.2,1.1,0.2l-0.1,3c-0.7-0.1-1.1-0.2-1.7-0.3
		c-0.2-1.1-0.5-1.5-0.9-2.3c-0.1-0.2,0-0.3,0-0.3c0.1-0.1,0.5-0.2,0.5-0.2S85.6,94.7,85.6,94.7z M88.3,97.7c0,0,0.1-1.4,0.1-2.1
		c0.4-0.1,0.5-0.5,0.3-0.8c-0.1-0.2-0.4-0.3-0.5-0.3c-0.8-0.2-1.5-0.2-2.3-0.3c-0.7-0.1-1.3-0.2-1.9-0.3c-1.3-0.3-2.5-1-3.1-2.2
		c-0.7-1.5-0.1-3.4,1.4-4.1c1.1-0.6,2.3-0.5,3.4,0c0.4,0.1,0.6,0.5,0.8,0.8c0.1,0.1,0.3,0.2,0.4,0.4c0.1,0.1-0.1,0.1-0.1,0.1
		c-0.2,0.1-1.1,0.1-1.3,0h-1.2c0.3,0.2,0.7,0.4,1.1,0.6c0.2,0.1,0.4,0.1,0.6,0.2c0.1,0,0.3,0.1,0.3,0.2s-0.2,0.1-0.4,0.2
		c-0.3,0.1-0.7,0.1-1.1,0c-0.6-0.1-0.9-0.5-1.3-0.3c-0.3,0.2-0.3,0.5-0.2,0.9c0.1,0.6,0.7,0.8,1.2,1c1.7,0.6,3.6,0.2,5.2,1.1
		c0.6,0.3,1.4,1,1.5,1.7C91.7,97.3,88.3,97.7,88.3,97.7z M91.3,88.4c-0.1,0.3-0.2,0.3-0.4,0.5c-0.4,0.4-1,0.8-1.6,1.3
		c-0.4,0.3-0.7,0.5-1,1c-0.1,0.1-0.2,0.3-0.2,0.3c-1-0.2-1.9-0.2-2.7-0.4v-0.8c0,0,0.9,0,1-0.6c0,0,0-0.2-0.1-0.3
		c-0.1-0.1-0.4-0.2-0.5-0.2c0.7,0.1,1.4,0.4,2.1,0.7c0-0.1-0.1-0.4-0.1-0.4c-0.1-0.1-0.2-0.2-0.5-0.3c-0.4-0.1-1.5-0.2-1.5-0.2h0.9
		c0.2,0,0.5-0.1,0.5-0.2c0.1-0.1,0-0.3-0.2-0.5L86.7,88c-0.1-0.2-0.3-0.4-0.4-0.6c-0.2-0.3-1-0.6-1-0.6s-0.1-0.5,0.1-0.7
		c0.1-0.2,0.5-0.2,0.6-0.1c0.5,0.3,1.2,0.6,1.9,0.8c0.2,0.1,0.2,0.1,0.2,0.4c0.1,0.5-0.1,1.2,0,1.5c0,0.1,0.2,0.1,0.2,0.1
		c0.7-0.4,1.1-1,1.8-1.3C90.6,87.3,91.5,87.7,91.3,88.4z M100.8,113.1c-1.2,0-2.2,1-2.2,2.2c0,1.2,1,2.2,2.2,2.2s2.2-1,2.2-2.2
		C103,114.1,102,113.1,100.8,113.1z M100.8,117.2c-1.1,0-1.9-0.8-1.9-1.9s0.8-1.9,1.9-1.9s1.9,0.8,1.9,1.9
		C102.7,116.4,101.9,117.2,100.8,117.2z"/>
	<path class="st2" d="M102,114.7c0-0.5-0.2-0.7-0.9-0.7H100v2.6h0.3v-1.1h0.5l0.7,1.1h0.4l-0.8-1.1C101.6,115.4,102,115.2,102,114.7
		z M100.8,115.2h-0.5v-0.8h0.7c0.3,0,0.6,0,0.6,0.4S101.1,115.2,100.8,115.2z M84.6,87.7c0.2,0.2,0.2,0.4,0.5,0.4
		c0.2,0,0.3-0.1,0.4-0.2h0.2c-0.3-0.3-1-0.3-1.5-0.4C84.4,87.7,84.5,87.6,84.6,87.7z"/>
</g>
</svg>
