<?xml version="1.0" encoding="utf-8"?>
<!-- Generator: Adobe Illustrator 25.4.1, SVG Export Plug-In . SVG Version: 6.00 Build 0)  -->
<svg version="1.1" id="Layer_1" xmlns="http://www.w3.org/2000/svg" xmlns:xlink="http://www.w3.org/1999/xlink" x="0px" y="0px"
	 viewBox="0 0 262.9 194.4" style="enable-background:new 0 0 262.9 194.4;" xml:space="preserve">
<style type="text/css">
	.st0{fill:#FFFFFF;}
	.st1{fill:#008BCC;}
	.st2{font-family:'Arial-Black';}
	.st3{font-size:24.5383px;}
	.st4{letter-spacing:1.4;}
</style>
<circle class="st0" cx="43.8" cy="96.9" r="11.9"/>
<path class="st0" d="M86.6,81.7c-5.1,0-12.9-2.4-12.9-2.4S72,83.7,72,89.7s5,21.8,15.1,25.8c0,0,14.4-9.1,14.4-25
	c0-9.5-1.4-11.2-1.4-11.2S91.7,81.7,86.6,81.7z"/>
<g>
	<path class="st1" d="M61.9,113c-1.3,0-2.3,1-2.3,2.3s1,2.3,2.3,2.3c1.2,0,2.3-1,2.3-2.3C64.2,114,63.2,113,61.9,113z M61.9,117.2
		c-1.1,0-1.9-0.8-1.9-1.9s0.8-1.9,1.9-1.9c1.1,0,1.9,0.8,1.9,1.9S63.1,117.2,61.9,117.2z"/>
	<path class="st1" d="M63.1,114.7c0-0.5-0.2-0.7-0.9-0.7h-1.1v2.6h0.3v-1.1H62l0.7,1.1h0.4l-0.8-1.1
		C62.8,115.4,63.1,115.2,63.1,114.7z M61.9,115.1h-0.5v-0.8h0.7c0.3,0,0.6,0,0.6,0.4C62.8,115.2,62.2,115.1,61.9,115.1z M43.9,100
		c-0.1,0-0.1,0-0.2,0.1l-3.8,5.8c1.2,0.5,2.5,0.8,3.9,0.8s2.7-0.3,3.9-0.8L43.9,100C44,100,43.9,100,43.9,100z M40.2,95.2l-5.7-0.5
		c-0.2,0.7-0.3,1.5-0.3,2.3c0,2.4,0.9,4.6,2.3,6.3l4-7.6C40.7,95.5,40.6,95.3,40.2,95.2z"/>
	<path class="st1" d="M52.9,87.9V76.6H34.8v11.3H23.5V106h11.3v11.3h18.1V106h11.3V87.9H52.9z M43.9,85.8c4.5,0,8.4,2.6,10.1,6.5h-8
		c-1.1,0-1.6-0.7-1.7-1.2c0-0.6,0.1-0.8,0.6-1.5c0.6-0.8,0.2-2.2-1.1-2.3c-1.3,0-1.7,1.5-1.1,2.3c0.5,0.7,0.6,0.9,0.6,1.5
		c0,0.5-0.5,1.2-1.7,1.2h-8C35.5,88.5,39.4,85.8,43.9,85.8z M32.7,97c0-1.4,0.3-2.7,0.7-3.9l7.5,0.7c1.4,0.2,1.6,1.6,1.2,2.4
		l-5.1,9.7C34.4,103.8,32.7,100.6,32.7,97z M50,106.4c-1.8,1.2-3.9,1.8-6.2,1.8s-4.4-0.7-6.2-1.8l5.5-8.1c0.4-0.6,1-0.5,1.4,0
		L50,106.4z M50.8,105.8l-5.1-9.6c-0.4-0.8-0.2-2.2,1.2-2.4l7.5-0.7c0.5,1.2,0.7,2.6,0.7,3.9C55.1,100.6,53.4,103.8,50.8,105.8z"/>
	<path class="st1" d="M51.2,90.7c-1.2-1.4-2.8-2.5-4.6-3c0.6,0.9,0.1,2.2-0.4,2.8c-0.1,0.1,0,0.2,0,0.2H51.2z M47.6,95.2
		c-0.4,0-0.4,0.2-0.3,0.4l4,7.6c1.4-1.7,2.3-3.9,2.3-6.3c0-0.8-0.1-1.6-0.3-2.3C53.3,94.6,47.6,95.2,47.6,95.2z M41.2,87.8
		c-1.8,0.5-3.4,1.6-4.6,3h5c0.1,0,0.1-0.1,0-0.2C41.1,89.9,40.6,88.7,41.2,87.8z"/>
</g>
<path class="st1" d="M190.1,88.8c-2.3-2.5-4.5-5.1-6.9-7.4c-1.9-1.8-4.1-1-6.1,0.9c-5.2,4.8-10.4,9.5-17.6,10.1
	c-1.8,0.2-3.1-0.3-4.3-1.9c-2.5-3.4-2.9-3.1-6.5-1.6c-3.2,1.3-6.7,1.8-10,2.6c-1.9,0.5-3.8,1-5.9,0.9c0.8-0.4,1.5-0.9,2.3-1
	c5.2-1.1,9.8-3.7,14.3-6.6c1.1-0.7,2.2-1.3,3.3-1.8c1.6-0.7,2.9-0.7,4,1.2c0.5,1,1.8,1.9,2.8,2c3.9,0.3,7.8,0.4,11.1-2.5
	c2.3-2,4.5-4,6.7-6c2-1.7,3.9-1.6,5.8,0.2c2.8,2.6,5.4,5.5,8.4,7.8c2.7,2,5.7,3.7,8.7,5c1.4,0.6,3.4,0,5-0.4c1.3-0.3,2.5-1,3.6-1.6
	c3.7-1.9,7.2-2.3,10.3,1.5c0.9,1.2,2.4,1.8,4.3,3.1c-1.3,0.1-2.1,0.3-2.8,0.2c-1.2-0.3-2.5-0.6-3.5-1.2c-4.3-2.4-8.4-1-12.7,0.5
	c-2.8,1-5.7,1.9-8.6,2.3c-5.2,0.7-8.6-3.3-12.4-6.1c0-0.2,0.1-0.5,0.1-0.7C185.9,88.4,188,88.6,190.1,88.8c1.3,0.9,2.6,1.9,3.9,2.8
	c0.4,0.3,1.1,0,1.7,0c-0.3-0.7-0.6-1.9-1.1-2.1C193.1,89.1,191.6,89,190.1,88.8z"/>
<text transform="matrix(0.7162 0 0 1 78.0998 95.1365)" class="st2 st3 st4">Blue</text>
<text transform="matrix(0.7162 0 0 1 79.1002 118.7365)" class="st2 st3 st4">Cross of Idaho</text>
</svg>
