<?xml version="1.0" encoding="utf-8"?>
<!-- Generator: Adobe Illustrator 25.4.1, SVG Export Plug-In . SVG Version: 6.00 Build 0)  -->
<svg version="1.1" id="katman_1" xmlns="http://www.w3.org/2000/svg" xmlns:xlink="http://www.w3.org/1999/xlink" x="0px" y="0px"
	 viewBox="0 0 841.9 595.3" style="enable-background:new 0 0 841.9 595.3;" xml:space="preserve">
<style type="text/css">
	.st0{enable-background:new    ;}
	.st1{fill:#3B4B85;}
</style>
<g class="st0">
	<path class="st1" d="M218.5,337.8h-15.9l-3-68.2l-13,68.2h-15.2l17-81.7h24l2.5,57.2l27.9-57.2h24.2L250,337.8h-15.3l16.1-67.7
		L218.5,337.8z"/>
	<path class="st1" d="M325.3,313.2h-40.1c0,0.6-0.1,1.1-0.1,1.4c0,3.9,1.1,7.1,3.4,9.5c2.2,2.4,5,3.6,8.2,3.6
		c5.3,0,9.5-2.7,12.4-8.2l14.3,2.4c-2.8,5.8-6.5,10.1-11.2,13c-4.7,2.9-9.9,4.3-15.7,4.3c-7.9,0-14.4-2.5-19.4-7.5
		c-5-5-7.5-11.7-7.5-20c0-8.1,2.2-15.3,6.7-21.6c6.1-8.5,14.9-12.8,26.2-12.8c7.2,0,13,2.2,17.3,6.7c4.3,4.5,6.4,10.7,6.4,18.8
		C326.4,306.6,326.1,310.1,325.3,313.2z M311.8,303.4c0-0.7,0.1-1.2,0.1-1.6c0-4.4-1-7.7-3-9.9c-2-2.2-4.6-3.3-7.9-3.3
		c-3.3,0-6.3,1.2-8.9,3.7c-2.6,2.5-4.4,6.2-5.3,11H311.8z"/>
	<path class="st1" d="M387.1,337.8h-15.2l1.3-6.4c-2.9,2.8-5.7,4.8-8.6,6c-2.8,1.2-6,1.8-9.5,1.8c-6.1,0-11.1-2.1-14.9-6.3
		c-3.8-4.2-5.7-10.4-5.7-18.5c0-9.5,2.7-18,8-25.7c5.3-7.7,12.4-11.5,21.2-11.5c7.9,0,13.9,3.2,17.9,9.5l6.4-30.6h16L387.1,337.8z
		 M350.1,313.7c0,4.2,1.1,7.5,3.2,9.9c2.1,2.4,4.8,3.6,7.9,3.6c2.9,0,5.6-1,8.1-3c2.5-2,4.5-5,6-9.1c1.5-4.1,2.3-8,2.3-11.8
		c0-4.3-1.2-7.7-3.5-10.4c-2.3-2.6-5-4-8-4c-4.7,0-8.5,2.6-11.5,7.8C351.7,302,350.1,307.7,350.1,313.7z"/>
	<path class="st1" d="M415.7,278.6h16l-12.4,59.2h-16L415.7,278.6z M420.4,256.1h16l-3,14.5h-16L420.4,256.1z"/>
	<path class="st1" d="M476.5,315.5L492,318c-2.6,6.9-6.4,12.2-11.4,15.8c-5,3.6-10.8,5.4-17.4,5.4c-7.5,0-13.5-2.2-17.9-6.7
		c-4.4-4.5-6.6-10.7-6.6-18.6c0-6.4,1.3-12.5,4-18.2c2.7-5.7,6.7-10.2,12.1-13.5c5.4-3.3,11.3-4.9,17.7-4.9c7,0,12.6,1.8,16.7,5.5
		c4.2,3.6,6.5,8.4,7,14.4l-15.2,1.6c-0.4-3.3-1.4-5.7-3-7.3c-1.7-1.6-3.8-2.3-6.5-2.3c-3.1,0-6,1.2-8.6,3.5
		c-2.7,2.3-4.7,5.7-6.2,10.3c-1.4,4.6-2.1,8.9-2.1,12.9c0,3.5,0.9,6.2,2.6,8.1c1.7,1.9,3.8,2.8,6.4,2.8c2.6,0,5-0.9,7.4-2.8
		C473.3,322,475.1,319.2,476.5,315.5z"/>
	<path class="st1" d="M523.6,295.4L508,294c1.8-5.3,4.9-9.4,9.3-12.4c4.4-3,10.3-4.5,17.6-4.5c7.6,0,13.2,1.5,16.9,4.6
		c3.6,3.1,5.5,6.8,5.5,11.2c0,1.8-0.2,3.7-0.5,5.7c-0.3,2-1.4,7.3-3.3,15.8c-1.6,7.1-2.3,12-2.3,14.8c0,2.5,0.4,5.3,1.3,8.4H537
		c-0.6-2.2-1-4.4-1.2-6.7c-2.3,2.6-5,4.6-8.1,6c-3,1.4-6.1,2.1-9.2,2.1c-4.9,0-9-1.6-12.1-4.8c-3.2-3.2-4.8-7.3-4.8-12.4
		c0-5.6,1.8-10.2,5.3-13.5c3.5-3.4,9.8-5.4,18.8-6.1c7.6-0.6,12.7-1.4,15.3-2.3c0.7-2.2,1-4,1-5.3c0-1.7-0.7-3.1-2.1-4.3
		c-1.4-1.2-3.4-1.7-6.1-1.7c-2.9,0-5.1,0.6-6.8,1.8C525.3,291.6,524.2,293.2,523.6,295.4z M538.8,310.2c-1,0.3-2.2,0.5-3.8,0.7
		c-8,1-13.3,2.4-15.7,4.2c-1.7,1.3-2.6,3.1-2.6,5.4c0,1.9,0.7,3.4,2,4.7s3.1,1.9,5.3,1.9c2.4,0,4.7-0.6,6.8-1.8s3.7-2.7,4.8-4.5
		c1.1-1.8,2-4.7,2.8-8.6L538.8,310.2z"/>
	<path class="st1" d="M578.1,278.6h16l-12.4,59.2h-16L578.1,278.6z M582.8,256.1h16l-3,14.5h-16L582.8,256.1z"/>
	<path class="st1" d="M653.4,337.8h-15.2l1.3-6.4c-2.9,2.8-5.7,4.8-8.6,6c-2.8,1.2-6,1.8-9.5,1.8c-6.1,0-11.1-2.1-14.9-6.3
		c-3.8-4.2-5.7-10.4-5.7-18.5c0-9.5,2.7-18,8-25.7s12.4-11.5,21.2-11.5c7.9,0,13.9,3.2,17.9,9.5l6.4-30.6h16L653.4,337.8z
		 M616.4,313.7c0,4.2,1.1,7.5,3.2,9.9c2.1,2.4,4.8,3.6,7.9,3.6c2.9,0,5.6-1,8.1-3c2.5-2,4.5-5,6-9.1c1.5-4.1,2.3-8,2.3-11.8
		c0-4.3-1.2-7.7-3.5-10.4c-2.3-2.6-5-4-8-4c-4.7,0-8.5,2.6-11.5,7.8C617.9,302,616.4,307.7,616.4,313.7z"/>
</g>
</svg>
