<svg xmlns="http://www.w3.org/2000/svg" viewBox="0 0 623.62 187.19"><defs><style>.cls-1{fill:#f58b1e;}.cls-2{fill:#e87322;}.cls-3{fill:#fcbd27;}.cls-4{fill:#c5c6c4;}.cls-5{fill:#9fa19f;}.cls-6{fill:#dfdfdc;}.cls-7{fill:#e4a822;}.cls-8{fill:#ffd92c;}.cls-9{fill:#f6bd27;}.cls-10{fill:#797b7e;}</style></defs><g id="Layer_2" data-name="Layer 2"><g id="layer"><path class="cls-1" d="M118.68,119.75c-2.9,11.19-5.75,22.73-8.53,34.5,12.48,8.06,24.71,16,36.9,22.82-9.33-17.69-18.69-37.16-28.37-57.32"/><path class="cls-2" d="M118.68,119.75c11.15,8,22,16,32.79,23.47q-2.19,16.36-4.42,33.85c-9.33-17.69-18.69-37.16-28.37-57.32"/><path class="cls-2" d="M118.68,119.75c-2.9,11.19-5.75,22.73-8.53,34.5C97.69,146.2,85,138,72.19,130.76a283.7,283.7,0,0,1,46.49-11"/><path class="cls-3" d="M118.68,119.75c-11.15-8-22.56-15.82-34.09-22.88-4.24,11.13-8.37,22.51-12.4,33.89a283.7,283.7,0,0,1,46.49-11"/><path class="cls-1" d="M131.37,73.91c-1.9,6.39-3.81,13-5.72,19.86,10,8,19.73,16.27,29.22,24.2-7.71-13.84-15.48-28.72-23.5-44.06"/><path class="cls-2" d="M131.37,73.91c9,8.11,17.7,16.49,26.14,24.73Q156.24,108,154.87,118c-7.71-13.84-15.48-28.72-23.5-44.06"/><path class="cls-3" d="M118.68,119.75c2.3-8.92,4.64-17.6,7-26,10,8,19.73,16.27,29.22,24.2a181.54,181.54,0,0,0-36.19,1.78"/><path class="cls-1" d="M118.68,119.75c11.15,8,22,16,32.79,23.47q1.74-13,3.4-25.25a181.54,181.54,0,0,0-36.19,1.78"/><path class="cls-4" d="M131.37,73.91q2.37-8,4.71-15.42c8.12,8.16,15.94,16.61,23.47,25a124.31,124.31,0,0,0-28.18-9.61"/><path class="cls-5" d="M131.37,73.91c9,8.11,17.7,16.49,26.14,24.73l2-15.12a124.31,124.31,0,0,0-28.18-9.61"/><path class="cls-5" d="M131.37,73.91q2.37-8,4.71-15.42C128,50.31,119.55,42.42,110.9,35.08c7,13,13.82,26.08,20.47,38.83"/><path class="cls-6" d="M131.37,73.91c-9-8.12-18.28-16-27.77-23.21,2.42-5.38,4.86-10.61,7.3-15.62,7,13,13.82,26.08,20.47,38.83"/><path class="cls-2" d="M50.06,78.72C44.65,90,39.42,101.4,34.3,112.54a263.41,263.41,0,0,1,37.89,18.22c-7.3-17.83-14.72-35.32-22.13-52"/><path class="cls-1" d="M50.06,78.72A263,263,0,0,1,84.59,96.87c-4.24,11.14-8.38,22.51-12.4,33.89-7.3-17.83-14.72-35.32-22.13-52"/><path class="cls-7" d="M50.06,78.72C44.65,90,39.42,101.4,34.3,112.54,22,108,10.25,105.26,0,105.29A158.51,158.51,0,0,1,50.06,78.72"/><path class="cls-8" d="M50.06,78.72c-11.35-4.8-22.44-8.15-32.63-9.4C11.37,81.47,5.61,93.6,0,105.29A158.51,158.51,0,0,1,50.06,78.72"/><path class="cls-8" d="M74.68,31.26C70.83,38,67.05,45,63.34,52.07A148,148,0,0,0,32.52,40.45a120,120,0,0,1,42.16-9.19"/><path class="cls-9" d="M74.68,31.26A168.9,168.9,0,0,0,45.79,17.75c-4.58,7.35-9,15-13.27,22.7a120,120,0,0,1,42.16-9.19"/><path class="cls-9" d="M50.06,78.72c4.31-9,8.74-17.93,13.28-26.65A148,148,0,0,0,32.52,40.45c5.76,12.13,11.64,25,17.54,38.27"/><path class="cls-7" d="M50.06,78.72c-11.35-4.8-22.44-8.15-32.63-9.4,4.83-9.68,9.84-19.38,15.09-28.87,5.76,12.13,11.64,25,17.54,38.27"/><path class="cls-5" d="M74.68,31.26q4.8-8.4,9.72-16.23a281.28,281.28,0,0,1,26.5,20,128.33,128.33,0,0,0-36.22-3.82"/><path class="cls-4" d="M74.68,31.26A275,275,0,0,1,103.6,50.7c2.42-5.39,4.86-10.61,7.3-15.62a128.33,128.33,0,0,0-36.22-3.82"/><path class="cls-9" d="M74.68,31.26q4.8-8.4,9.72-16.23A188.65,188.65,0,0,0,57.46,0C63.22,10.05,69,20.53,74.68,31.26"/><path class="cls-7" d="M74.68,31.26A168.9,168.9,0,0,0,45.79,17.75C49.58,11.64,53.47,5.69,57.46,0,63.22,10.05,69,20.53,74.68,31.26"/><path class="cls-10" d="M224.24,187.19c-24,0-40.71-18.18-40.71-40.27s16.95-40.49,40.93-40.49,40.72,18.18,40.72,40.27-17,40.49-40.94,40.49m0-68.15c-15.5,0-26.32,12.38-26.32,27.66s11,27.89,26.54,27.89,26.33-12.39,26.33-27.67S239.75,119,224.24,119Z"/><path class="cls-10" d="M307.12,160.75h-15.5v25.1H277.9V107.77h30.78c18.18,0,29.67,10.26,29.67,26.21,0,17.62-14.05,26.77-31.23,26.77m.45-40.49H291.62v28.11h15.95c10.37,0,16.84-5.69,16.84-14.05C324.41,125.06,317.83,120.26,307.57,120.26Z"/><polyline class="cls-10" points="383.75 185.85 369.92 185.85 369.92 120.49 345.16 120.49 345.16 107.77 408.52 107.77 408.52 120.49 383.75 120.49 383.75 185.85"/><path class="cls-10" d="M487.49,152.05c0,23.31-13.16,35-33.57,35s-33.25-11.72-33.25-34.36V107.77H434.4v44.39c0,14.5,7.47,22.31,19.74,22.31s19.63-7.36,19.63-21.75V107.77h13.72v44.28"/><polyline class="cls-10" points="540.81 166.66 540.36 166.66 515.93 130.08 515.93 185.85 502.44 185.85 502.44 107.77 517.05 107.77 540.81 144.69 564.57 107.77 579.18 107.77 579.18 185.85 565.46 185.85 565.46 129.85 540.81 166.66"/><polyline class="cls-10" points="600.1 123.36 598.31 123.36 598.31 109.35 593.06 109.35 593.06 107.72 605.35 107.72 605.35 109.35 600.1 109.35 600.1 123.36"/><polyline class="cls-10" points="616.16 119.07 616.07 119.07 610.37 110.72 610.37 123.36 608.65 123.36 608.65 107.72 610.44 107.72 616.14 116.26 621.83 107.72 623.62 107.72 623.62 123.36 621.86 123.36 621.86 110.69 616.16 119.07"/></g></g></svg>