<?xml version="1.0" encoding="utf-8"?>
<!-- Generator: Adobe Illustrator 25.4.1, SVG Export Plug-In . SVG Version: 6.00 Build 0)  -->
<svg version="1.1" id="katman_1" xmlns="http://www.w3.org/2000/svg" xmlns:xlink="http://www.w3.org/1999/xlink" x="0px" y="0px"
	 viewBox="0 0 841.9 595.3" style="enable-background:new 0 0 841.9 595.3;" xml:space="preserve">
<style type="text/css">
	.st0{fill:#F58B1E;}
	.st1{fill:#E87322;}
	.st2{fill:#FCBD27;}
	.st3{fill:#C5C6C4;}
	.st4{fill:#9FA19F;}
	.st5{fill:#DFDFDC;}
	.st6{fill:#E4A822;}
	.st7{fill:#FFD92C;}
	.st8{fill:#F6BD27;}
	.st9{fill:#797B7E;}
</style>
<g id="Layer_2_00000013167408836937074650000000397191041821113240_">
	<g id="layer">
		<path class="st0" d="M289.5,315.4c-2,7.6-3.9,15.5-5.8,23.5c8.5,5.5,16.8,10.9,25.1,15.5C302.5,342.4,296.1,329.2,289.5,315.4"/>
		<path class="st1" d="M289.5,315.4c7.6,5.4,15,10.9,22.3,16c-1,7.4-2,15.1-3,23C302.5,342.4,296.1,329.2,289.5,315.4"/>
		<path class="st1" d="M289.5,315.4c-2,7.6-3.9,15.5-5.8,23.5c-8.5-5.5-17.1-11.1-25.8-16C268.2,319.5,278.8,317,289.5,315.4"/>
		<path class="st2" d="M289.5,315.4c-7.6-5.4-15.4-10.8-23.2-15.6c-2.9,7.6-5.7,15.3-8.4,23.1C268.2,319.5,278.8,317,289.5,315.4"/>
		<path class="st0" d="M298.2,284.2c-1.3,4.3-2.6,8.8-3.9,13.5c6.8,5.4,13.4,11.1,19.9,16.5C308.9,304.8,303.6,294.7,298.2,284.2"/>
		<path class="st1" d="M298.2,284.2c6.1,5.5,12,11.2,17.8,16.8c-0.6,4.2-1.2,8.6-1.8,13.2C308.9,304.8,303.6,294.7,298.2,284.2"/>
		<path class="st2" d="M289.5,315.4c1.6-6.1,3.2-12,4.8-17.7c6.8,5.4,13.4,11.1,19.9,16.5C305.9,313.8,297.7,314.2,289.5,315.4"/>
		<path class="st0" d="M289.5,315.4c7.6,5.4,15,10.9,22.3,16c0.8-5.9,1.6-11.6,2.3-17.2C305.9,313.8,297.7,314.2,289.5,315.4"/>
		<path class="st3" d="M298.2,284.2c1.1-3.6,2.1-7.1,3.2-10.5c5.5,5.6,10.8,11.3,16,17C311.2,287.8,304.8,285.6,298.2,284.2"/>
		<path class="st4" d="M298.2,284.2c6.1,5.5,12,11.2,17.8,16.8l1.4-10.3C311.2,287.8,304.8,285.6,298.2,284.2"/>
		<path class="st4" d="M298.2,284.2c1.1-3.6,2.1-7.1,3.2-10.5c-5.5-5.6-11.2-10.9-17.1-15.9C289,266.7,293.6,275.6,298.2,284.2"/>
		<path class="st5" d="M298.2,284.2c-6.1-5.5-12.4-10.9-18.9-15.8c1.6-3.7,3.3-7.2,5-10.6C289,266.7,293.6,275.6,298.2,284.2"/>
		<path class="st1" d="M242.8,287.5c-3.7,7.7-7.2,15.4-10.7,23c8.9,3.4,17.5,7.6,25.8,12.4C252.9,310.8,247.9,298.9,242.8,287.5"/>
		<path class="st0" d="M242.8,287.5c8.1,3.5,16,7.7,23.5,12.4c-2.9,7.6-5.7,15.3-8.4,23.1C252.9,310.8,247.9,298.9,242.8,287.5"/>
		<path class="st6" d="M242.8,287.5c-3.7,7.7-7.2,15.4-10.7,23c-8.4-3.1-16.4-5-23.3-4.9C218.9,297.6,230.5,291.4,242.8,287.5"/>
		<path class="st7" d="M242.8,287.5c-7.7-3.3-15.3-5.5-22.2-6.4c-4.1,8.3-8,16.5-11.9,24.5C218.9,297.6,230.5,291.4,242.8,287.5"/>
		<path class="st7" d="M259.6,255.2c-2.6,4.6-5.2,9.3-7.7,14.2c-6.7-3.4-13.7-6.1-21-7.9C240,257.7,249.7,255.6,259.6,255.2"/>
		<path class="st8" d="M259.6,255.2c-6.2-3.7-12.8-6.8-19.7-9.2c-3.1,5-6.1,10.2-9,15.4C240,257.7,249.7,255.6,259.6,255.2"/>
		<path class="st8" d="M242.8,287.5c2.9-6.1,5.9-12.2,9-18.1c-6.7-3.4-13.7-6.1-21-7.9C234.8,269.7,238.8,278.5,242.8,287.5"/>
		<path class="st6" d="M242.8,287.5c-7.7-3.3-15.3-5.5-22.2-6.4c3.3-6.6,6.7-13.2,10.3-19.6C234.8,269.7,238.8,278.5,242.8,287.5"/>
		<path class="st4" d="M259.6,255.2c2.2-3.8,4.4-7.5,6.6-11c6.3,4.2,12.3,8.7,18,13.6C276.2,255.8,267.9,254.9,259.6,255.2"/>
		<path class="st3" d="M259.6,255.2c6.8,4,13.4,8.4,19.7,13.2c1.6-3.7,3.3-7.2,5-10.6C276.2,255.8,267.9,254.9,259.6,255.2"/>
		<path class="st8" d="M259.6,255.2c2.2-3.8,4.4-7.5,6.6-11c-5.8-3.9-12-7.3-18.3-10.2C251.8,240.8,255.7,247.9,259.6,255.2"/>
		<path class="st6" d="M259.6,255.2c-6.2-3.7-12.8-6.8-19.7-9.2c2.6-4.2,5.2-8.2,7.9-12.1C251.8,240.8,255.7,247.9,259.6,255.2"/>
		<path class="st9" d="M361.4,361.3c-16.3,0-27.7-12.4-27.7-27.4s11.5-27.6,27.9-27.6s27.7,12.4,27.7,27.4S377.6,361.3,361.4,361.3
			 M361.4,315c-10.5,0-17.9,8.4-17.9,18.8c0,10.4,7.5,19,18.1,19s17.9-8.4,17.9-18.8C379.4,323.5,371.9,314.9,361.4,315L361.4,315z"
			/>
		<path class="st9" d="M417.8,343.3h-10.5v17.1h-9.3v-53.1h20.9c12.4,0,20.2,7,20.2,17.8C439,337.1,429.4,343.3,417.8,343.3
			 M418.1,315.8h-10.9v19.1h10.9c7.1,0,11.5-3.9,11.5-9.6C429.5,319.1,425,315.8,418.1,315.8z"/>
		<polyline class="st9" points="469.9,360.4 460.5,360.4 460.5,315.9 443.6,315.9 443.6,307.3 486.8,307.3 486.8,315.9 469.9,315.9 
			469.9,360.4 		"/>
		<path class="st9" d="M540.5,337.4c0,15.9-9,23.8-22.8,23.8c-13.9,0-22.6-8-22.6-23.4v-30.6h9.3v30.2c0,9.9,5.1,15.2,13.4,15.2
			c8.3,0,13.4-5,13.4-14.8v-30.6h9.3V337.4"/>
		<polyline class="st9" points="576.8,347.4 576.5,347.4 559.8,322.5 559.8,360.4 550.7,360.4 550.7,307.3 560.6,307.3 576.8,332.4 
			592.9,307.3 602.9,307.3 602.9,360.4 593.5,360.4 593.5,322.3 576.8,347.4 		"/>
		<polyline class="st9" points="617.1,317.9 615.9,317.9 615.9,308.4 612.3,308.4 612.3,307.3 620.7,307.3 620.7,308.4 617.1,308.4 
			617.1,317.9 		"/>
		<polyline class="st9" points="628,315 628,315 624.1,309.3 624.1,317.9 622.9,317.9 622.9,307.3 624.1,307.3 628,313.1 
			631.9,307.3 633.1,307.3 633.1,317.9 631.9,317.9 631.9,309.3 628,315 		"/>
	</g>
</g>
</svg>
