<svg xmlns="http://www.w3.org/2000/svg" viewBox="0 0 1093 606"><g fill="none" stroke-width="2"><path stroke="#80a9c9" d="M280.66 169.67c-22.16-4.6-42.89-24.44-39.31-48.66 1.45-9.8 7.02-17.3 16.75-19.43 11.24-2.47 20.48 5.85 16.42 17.63q-.66 1.91-1.2 3.9a1 .99 9.9 0 0 .88 1.25q12.37 1.08 21.9-5.25c14.54-9.67 16.98-27.15 13.3-43.17-3.04-13.21-10.75-22.64-22.51-29.87q-26.81-16.49-59.12-6.95c-38.91 11.48-55.66 45.63-47.16 84.31 7.9 35.87 36.4 63.37 72.4 70.36 61.7 11.99 116.09-39.59 108.7-101.55-4.85-40.68-37.26-73.75-77.79-79.32q-26.71-3.67-52.39 7.62-1.94.85-3.69 1.76-11.88 6.18.65 1.46 15.45-5.82 31.93-6.65c29.25-1.46 59.67 13.57 76.42 37.55 16.31 23.34 18.1 53.68 6.39 79.32-11.12 24.36-34.86 41.44-62.57 35.69" vector-effect="non-scaling-stroke"/><path stroke="#d7dd8f" d="M201.9 42.96q-5.9 6.15.56.6 16.35-14.06 38.79-16.26c26.7-2.61 53.73 5.53 71.23 26.26 14.03 16.62 19.02 37.47 11.54 58.31-5.4 15.05-14.49 24.46-29.77 29.11q-14.5 4.42-26.44-2.76c-3.15-1.9-4.8-4.37-6.83-7.44q-.35-.53-.81-.21a.41.4-21.2 0 0-.17.38c3.32 27.91 32.55 35.38 53.65 21.67 19.83-12.89 27.47-35.7 26.76-58.4-2.14-68.17-89.09-90.91-136.12-53.46q-1.22.98-2.39 2.2" vector-effect="non-scaling-stroke"/><path stroke="#80a9c9" d="M422.52 240.54q-.34-8.4.47-11.3 3.22-11.51 14.65-14.56a1.01 1 60 0 0 .45-1.68l-8.54-8.57a.99.98-28.1 0 0-.92-.27c-13.21 2.88-21.67 12.43-23.35 25.61q-.68 5.31-.55 10.71a1 1 0 0 1-1 1.02h-9.98a1 1 0 0 0-1 1V258a1 1 0 0 0 1 1h10.32a1 .99.6 0 1 1 1.01q-.32 26.66-.35 53.33c-.01 8.38-1.75 14.45-7.53 20.31q-1.42 1.45-2.84 2.93a1 1 0 0 0 .22 1.55l12.83 7.55a1.01 1.01 0 0 0 1.15-.1q13.63-11.45 13.86-29.56.35-28 .08-56a1 .99 89.7 0 1 .99-1.01l12.02-.01a1 1 0 0 0 1-1v-15.5a1 1 0 0 0-1-1h-11.98a1 1 0 0 1-1-.96m-37.62-20.96a10.64 10.64 0 0 0-10.64-10.64 10.64 10.64 0 0 0-10.64 10.64 10.64 10.64 0 0 0 10.64 10.64 10.64 10.64 0 0 0 10.64-10.64m80.88-.01a10.63 10.63 0 0 0-10.63-10.63 10.63 10.63 0 0 0-10.63 10.63 10.63 10.63 0 0 0 10.63 10.63 10.63 10.63 0 0 0 10.63-10.63m86.66 43.74q7.97 5.88 17.72 10.98c6.32 3.31 12.95 8.76 9.05 16.65-3.26 6.57-10.21 7.42-16.48 4.53q-4.93-2.28-8.41-6.75a.99.99 0 0 0-1.55-.02L542 301.67a1.01 1-46 0 0 .02 1.3c16.88 19.15 52.61 13 56.52-14.5 3.03-21.33-15.25-28.25-30.18-37.1-16.36-9.7 1.67-23.11 13.69-12.64q1.17 1.02 2.29 2.15a1.01 1 42.9 0 0 1.46-.05l10.27-11.69a1 1 0 0 0-.05-1.37q-12.88-12.7-30.51-9.26c-9.07 1.76-17.68 8.37-20.79 17.08-3.38 9.45-.62 21.58 7.72 27.72m-368.49 21.47q7.28-.27 8.85-.44 15.68-1.7 25.17-12.89c8.91-10.53 9.38-25.78 1.19-36.68-13.26-17.65-34.1-14.87-53.16-14.75a1 1 0 0 0-.99 1l-.01 89.73a1 1 0 0 0 1 1h16.03a1 1 0 0 0 1-1l-.04-24.97a1 1 0 0 1 .96-1m581.69-35.59-7.5-9.11a1 .99-35 0 0-1.28-.22l-13.3 7.97a1 1 0 0 0-.11 1.64q10.19 8.12 10.5 21.53.45 19.85.29 39.74a1 1 0 0 0 1 1.01h15.26a1 1 0 0 0 1-1l.04-39.79a1 1 0 0 1 .24-.65c4.97-5.77 10.94-11.63 18.76-12.84a1 .99 80.5 0 0 .83-1.17l-3.17-16.54a1 1 0 0 0-1.18-.79q-11.44 2.36-19.93 10.31a1 .99-41.2 0 1-1.45-.09m-508.58 6.38c5.34.41 9.37 3.86 9.66 9.25a1 .99 90 0 1-1.04 1.05c-14.28-.69-32.59 2.37-36.72 18.93-4.13 16.55 10.64 29.51 26.07 29.14q10.22-.24 17.98-8.03a1 1 0 0 1 1.55.17q2.47 3.89 5.88 7a1.01 1-38.8 0 0 1.18.12l13.43-7.86a1 1 0 0 0 .09-1.66c-17.43-12.95-7.01-30.26-12.29-46.83-6.12-19.21-30.2-21.73-45.23-12.58a1.01 1-27.6 0 0-.4 1.25l5.37 12.44a1 .99-25.9 0 0 1.39.48q6.29-3.39 13.08-2.87m53.63 50.74c13.64 11.87 36.09 10.03 46.84-4.63a1 1 0 0 0-.23-1.41l-13.25-9.37a1 1 0 0 0-1.34.16c-5.99 6.97-18.1 7.79-23.22-1.23q-4.96-8.73-3.1-18.26c2.67-13.68 15.12-20.6 26.48-9.41a1 .99-40.1 0 0 1.28.1l13.17-9.32a1.01.99-35.7 0 0 .24-1.4c-9.49-13.19-29.84-16.03-42.93-7.73-20.77 13.16-22.23 46.6-3.94 62.5m163.88-33.34c-1.39 16.99 7.57 36.56 25.68 40.17q20.5 4.1 33.85-11.22a1.02 1.01-51.8 0 0-.17-1.48l-13.49-9.59a1 .99-50.9 0 0-1.32.14c-4.14 4.6-11.02 6.82-16.87 4.54-13.13-5.1-13-30.84-1.2-37.18 5.45-2.93 14.19-1.61 17.78 3.85a1.01 1-34.4 0 0 1.42.26l13.48-9.58a1 1 0 0 0 .22-1.42q-5.97-7.98-15.62-10.77c-23.45-6.77-41.89 9.27-43.76 32.28m163.065 41.14a37.52 33.44 89.9 0 0 33.375-37.578 37.52 33.44 89.9 0 0-33.505-37.462 37.52 33.44 89.9 0 0-33.375 37.578 37.52 33.44 89.9 0 0 33.505 37.462" vector-effect="non-scaling-stroke"/><path stroke="#80a9c9" d="M814.89 312.15c12.31 4.69 29.07.89 37.07-10.41a1 1 0 0 0-.23-1.39l-13.27-9.51a1 .99 37.9 0 0-1.34.16q-3.95 4.67-9.64 5.35c-24.65 2.93-22.16-48.85 4.6-38.2q2.06.82 5.12 4.07a1 1 0 0 0 1.31.12l13.25-9.45a1 1 0 0 0 .23-1.41q-6.13-8.3-16.23-11.01c-45.5-12.23-59.6 56.94-20.87 71.68m59.44-25.69q2.17-.17 4.37-.3c16.35-.97 29.63-10.14 36.25-24.91a1.02.99 48 0 0 .03-.76q-7.12-19.27-25.23-21.09c-30.98-3.11-42.73 33.26-31.54 56.11 10.74 21.94 37.11 24.88 52.58 6.18a.99.99 0 0 0-.07-1.34l-8.53-8.53a1 1 0 0 0-1.33-.08c-5.57 4.4-14.09 7.22-20.62 3.97q-4.76-2.37-6.78-7.91a1.01 1 78 0 1 .87-1.34m-491.08-44.42a.54.54 0 0 0-.54-.54h-16.84a.54.54 0 0 0-.54.54v69.14a.54.54 0 0 0 .54.54h16.84a.54.54 0 0 0 .54-.54v-69.14m81-.15a.39.39 0 0 0-.39-.39h-17.22a.39.39 0 0 0-.39.39v69.46a.39.39 0 0 0 .39.39h17.22a.39.39 0 0 0 .39-.39v-69.46m260.62 62.62 7.09 8.53a1 .99 54.5 0 0 1.28.22l13.35-7.98a1 1 0 0 0 .08-1.66c-8.22-6.12-10.38-13.29-10.55-23.88q-.28-18.18-.04-37.23a1 1 0 0 0-1-1.01h-15.81a1 1 0 0 0-1 1q-.03 17.6-.02 35.2 0 6.33-1.35 9.38c-3.81 8.63-20.17 14.36-20.63.15q-.62-19.35-.13-44.71a1 1 0 0 0-1-1.02h-15.53a1 1 0 0 0-1 .99q-.21 23.76-.08 47.5.08 12.76 8.51 19.36c8.21 6.42 19.11 6.33 27.98.92q4.4-2.69 8.46-5.9a1 .99-39 0 1 1.39.14" vector-effect="non-scaling-stroke"/><path stroke="#d7dc93" d="M891.03 362.54c.91 6.9 9.3 10.46 13.66 13.45 8.21 5.65-.37 16.5-8.47 9.42q-.97-.85-2.14-1.38a1 .98 37.1 0 0-1.06.14q-5.38 4.55 1.69 7.31 10.79 4.2 16.26-3.3c8.16-11.19-3.17-17.39-11.12-21.97-8.17-4.7-.67-16.04 7.93-8.98a1.02 1.02 0 0 0 1.12.1q5.95-3.24.45-6.01c-8.26-4.15-19.71.68-18.32 11.22m-324.58 11.48a.3.3 0 0 1 .3.3v17.77a.3.3 0 0 0 .31.3l4.98-.19a.3.3 0 0 0 .29-.3l-.12-41.08a.3.3 0 0 0-.3-.3l-4.91-.07a.3.3 0 0 0-.3.31l.07 17.42a.3.3 0 0 1-.3.3l-15.36.05a.3.3 0 0 1-.3-.29l-.36-17.59a.3.3 0 0 0-.31-.29l-4.86.12a.3.3 0 0 0-.29.3l.26 41.16a.3.3 0 0 0 .3.3l4.95.01a.3.3 0 0 0 .3-.3l-.16-17.69a.3.3 0 0 1 .3-.3l15.51.06m21.05-.32a.45.45 0 0 1 .45-.45h10.85a.45.45 0 0 0 .45-.45v-4.28a.45.45 0 0 0-.44-.45l-10.86-.25a.45.45 0 0 1-.44-.45l-.02-11.2a.45.45 0 0 1 .45-.45l12.67.1a.45.45 0 0 0 .45-.43l.25-4.39a.45.45 0 0 0-.44-.47l-18.15-.1a.45.45 0 0 0-.45.45l-.11 41.23a.45.45 0 0 0 .46.45l18.85-.21a.45.45 0 0 0 .44-.46l-.06-4.44a.45.45 0 0 0-.46-.45l-13.43.09a.45.45 0 0 1-.45-.45l-.01-12.94m43.67 10.09q2.22 3.78 2.68 8.09a1 1 0 0 0 1.09.89l4.26-.4a1 1 0 0 0 .85-1.34q-7.07-19.42-13.99-38.1c-1.68-4.55-4.59-2.75-5.85.64q-6.48 17.43-13.78 37.51a1 1 0 0 0 .86 1.34l4.04.34a1.01 1.01 0 0 0 1.07-.83q.74-4.24 2.61-8.13a1 1 0 0 1 .9-.57l14.4.06a1 .99 74.7 0 1 .86.5m34.13 3.27-11.73-.08a1.01 1.01 0 0 1-1-1l-.29-34.53a1 .99 89.1 0 0-1.01-.99l-3.43.04a.99.99 0 0 0-.98.95q-.23 4.81.09 12.55.34 8.42-.12 27.48a1 1 0 0 0 1 1.02h17.7a1 .99 88.1 0 0 .99-1.07l-.23-3.43a1 1 0 0 0-.99-.94m4.94-31.89a.58.58 0 0 0 .58.58h9.1a.58.58 0 0 1 .58.58v35.47a.58.58 0 0 0 .6.58l4.42-.19a.58.58 0 0 0 .56-.58l-.17-35.28a.58.58 0 0 1 .58-.58h9.11a.58.58 0 0 0 .58-.57l.1-4.12a.58.58 0 0 0-.58-.59l-24.87.04a.58.58 0 0 0-.58.58l-.01 4.08m39.22 13.33a.54.54 0 0 1-.54-.53l-.24-16.89a.54.54 0 0 0-.52-.53l-4.33-.17a.54.54 0 0 0-.56.54l-.03 40.79a.54.54 0 0 0 .54.54h4.48a.54.54 0 0 0 .54-.54l-.07-17.11a.54.54 0 0 1 .53-.54l15.26-.21a.54.54 0 0 1 .55.55l-.27 17.6a.54.54 0 0 0 .58.55l4.67-.32a.54.54 0 0 0 .5-.55l-.15-40.62a.54.54 0 0 0-.53-.54l-4.34-.09a.54.54 0 0 0-.55.54l.07 16.99a.54.54 0 0 1-.54.54h-15.05m51.21 23.83a1 .99-88.6 0 0 1.02-.98l.23-11.76a1 1 0 0 1 .99-.98q3.68-.06 5.56-.39c13.96-2.46 17.38-20.37 4.2-26.18-4.33-1.91-10.42-1.85-15.43-1.8a1.01 1-90 0 0-.99 1v40.02a1.01 1 .9 0 0 .98 1l3.44.07m115.78-11.73a.29.29 0 0 1-.54.15l-18.26-30.09a.29.29 0 0 0-.26-.14l-5.1.09a.29.29 0 0 0-.29.29v41.37a.29.29 0 0 0 .31.29l4.94-.35a.29.29 0 0 0 .27-.29l-.22-28.99a.29.29 0 0 1 .09-.21l.46-.44a.29.29 0 0 1 .45.05l18.1 30.1a.29.29 0 0 0 .26.14l5.15-.28a.29.29 0 0 0 .28-.29l-.34-41.2a.29.29 0 0 0-.28-.29l-4.99-.21a.29.29 0 0 0-.3.29l.27 30.01m-85.02 11.75q7.78.41 15.62 0a1 1 0 0 0 .95-1v-3.24a1 .99-89.7 0 0-.98-1l-12.12-.16a1 1 0 0 1-.99-.99l-.16-34.5a1.01 1.01 0 0 0-1.07-1l-3.22.21a1 1 0 0 0-.94.99l-.3 39.69a1 1 0 0 0 1.06 1.01q1.14-.07 2.15-.01" vector-effect="non-scaling-stroke"/><path stroke="#d7dd8f" d="m812.42 392.19 3.96.56a1.02 1-77.1 0 0 1.1-.7l2.44-7.94a1 .99 8 0 1 .94-.7l14.69-.19a1 .99 76.4 0 1 .91.56q1.91 3.95 2.88 8.2a1 .99 79.7 0 0 1.11.77l3.83-.55a1 1 0 0 0 .8-1.33l-14.43-39.62a1 .98-9.3 0 0-.92-.65l-2.52-.05a1.01 1-79.1 0 0-.95.65l-14.63 39.65a1 1 0 0 0 .79 1.34" vector-effect="non-scaling-stroke"/><path stroke="#80a9c9" d="M202.31 243.44q-7.23-6.57-18.2-5a1 1 0 0 0-.86.99v25.98a1.01 1 2.8 0 0 .91 1q7.44.67 14.05-2.31c8.46-3.81 11.31-14.12 4.1-20.66m47.14 52.36c5.93 4.23 12.99.17 17.57-4.3a1 .99 66.1 0 0 .3-.78l-.65-10.26a1.01 1.01 0 0 0-.97-.94c-7.71-.24-17.1-1.19-19.09 8.71q-.97 4.85 2.84 7.57m388.06.65a19.84 15.45 90.2 0 0 15.52-19.786 19.84 15.45 90.2 0 0-15.38-19.894 19.84 15.45 90.2 0 0-15.52 19.786 19.84 15.45 90.2 0 0 15.38 19.894m235.6-23.89q14.75.82 23.23-11a1 1 0 0 0-.28-1.43c-13.69-8.55-20-.93-23.84 11.13a.99.99 0 0 0 .89 1.3" vector-effect="non-scaling-stroke"/><path stroke="#d7dc8a" d="M617.22 376.63a.87.87 0 0 0 .8 1.16l10.12.16a.87.87 0 0 0 .84-1.14l-4.82-14.93a.87.87 0 0 0-1.65-.02l-5.29 14.77" vector-effect="non-scaling-stroke"/><path stroke="#d7dc93" d="M762.73 373.09c16.67 2.04 16.74-18.77.01-17.22a.99.98-2.8 0 0-.9.99l.01 15.23a1.01 1-86.5 0 0 .88 1" vector-effect="non-scaling-stroke"/><path stroke="#d7dd8f" d="M822.39 377.15a.5.5 0 0 0 .47.67l11.09.06a.5.5 0 0 0 .48-.66l-5.46-15.92a.5.5 0 0 0-.95-.01l-5.63 15.86" vector-effect="non-scaling-stroke"/></g><path fill="#010001" fill-opacity=".004" d="M0 0h1093v606H0V0Zm1092 2.69a1.69 1.69 0 0 0-1.69-1.69H2.69A1.69 1.69 0 0 0 1 2.69v600.62A1.69 1.69 0 0 0 2.69 605h1087.62a1.69 1.69 0 0 0 1.69-1.69V2.69Z"/><path fill="#fff" d="M1092 603.31a1.69 1.69 0 0 1-1.69 1.69H2.69A1.69 1.69 0 0 1 1 603.31V2.69A1.69 1.69 0 0 1 2.69 1h1087.62a1.69 1.69 0 0 1 1.69 1.69v600.62ZM280.66 169.67c-22.16-4.6-42.89-24.44-39.31-48.66 1.45-9.8 7.02-17.3 16.75-19.43 11.24-2.47 20.48 5.85 16.42 17.63q-.66 1.91-1.2 3.9a1 .99 9.9 0 0 .88 1.25q12.37 1.08 21.9-5.25c14.54-9.67 16.98-27.15 13.3-43.17-3.04-13.21-10.75-22.64-22.51-29.87q-26.81-16.49-59.12-6.95c-38.91 11.48-55.66 45.63-47.16 84.31 7.9 35.87 36.4 63.37 72.4 70.36 61.7 11.99 116.09-39.59 108.7-101.55-4.85-40.68-37.26-73.75-77.79-79.32q-26.71-3.67-52.39 7.62-1.94.85-3.69 1.76-11.88 6.18.65 1.46 15.45-5.82 31.93-6.65c29.25-1.46 59.67 13.57 76.42 37.55 16.31 23.34 18.1 53.68 6.39 79.32-11.12 24.36-34.86 41.44-62.57 35.69ZM201.9 42.96q-5.9 6.15.56.6 16.35-14.06 38.79-16.26c26.7-2.61 53.73 5.53 71.23 26.26 14.03 16.62 19.02 37.47 11.54 58.31-5.4 15.05-14.49 24.46-29.77 29.11q-14.5 4.42-26.44-2.76c-3.15-1.9-4.8-4.37-6.83-7.44q-.35-.53-.81-.21a.41.4-21.2 0 0-.17.38c3.32 27.91 32.55 35.38 53.65 21.67 19.83-12.89 27.47-35.7 26.76-58.4-2.14-68.17-89.09-90.91-136.12-53.46q-1.22.98-2.39 2.2Zm220.62 197.58q-.34-8.4.47-11.3 3.22-11.51 14.65-14.56a1.01 1 60 0 0 .45-1.68l-8.54-8.57a.99.98-28.1 0 0-.92-.27c-13.21 2.88-21.67 12.43-23.35 25.61q-.68 5.31-.55 10.71a1 1 0 0 1-1 1.02h-9.98a1 1 0 0 0-1 1V258a1 1 0 0 0 1 1h10.32a1 .99.6 0 1 1 1.01q-.32 26.66-.35 53.33c-.01 8.38-1.75 14.45-7.53 20.31q-1.42 1.45-2.84 2.93a1 1 0 0 0 .22 1.55l12.83 7.55a1.01 1.01 0 0 0 1.15-.1q13.63-11.45 13.86-29.56.35-28 .08-56a1 .99 89.7 0 1 .99-1.01l12.02-.01a1 1 0 0 0 1-1v-15.5a1 1 0 0 0-1-1h-11.98a1 1 0 0 1-1-.96Zm-37.62-20.96a10.64 10.64 0 0 0-10.64-10.64 10.64 10.64 0 0 0-10.64 10.64 10.64 10.64 0 0 0 10.64 10.64 10.64 10.64 0 0 0 10.64-10.64Zm80.88-.01a10.63 10.63 0 0 0-10.63-10.63 10.63 10.63 0 0 0-10.63 10.63 10.63 10.63 0 0 0 10.63 10.63 10.63 10.63 0 0 0 10.63-10.63Zm86.66 43.74q7.97 5.88 17.72 10.98c6.32 3.31 12.95 8.76 9.05 16.65-3.26 6.57-10.21 7.42-16.48 4.53q-4.93-2.28-8.41-6.75a.99.99 0 0 0-1.55-.02L542 301.67a1.01 1-46 0 0 .02 1.3c16.88 19.15 52.61 13 56.52-14.5 3.03-21.33-15.25-28.25-30.18-37.1-16.36-9.7 1.67-23.11 13.69-12.64q1.17 1.02 2.29 2.15a1.01 1 42.9 0 0 1.46-.05l10.27-11.69a1 1 0 0 0-.05-1.37q-12.88-12.7-30.51-9.26c-9.07 1.76-17.68 8.37-20.79 17.08-3.38 9.45-.62 21.58 7.72 27.72Zm-368.49 21.47q7.28-.27 8.85-.44 15.68-1.7 25.17-12.89c8.91-10.53 9.38-25.78 1.19-36.68-13.26-17.65-34.1-14.87-53.16-14.75a1 1 0 0 0-.99 1l-.01 89.73a1 1 0 0 0 1 1h16.03a1 1 0 0 0 1-1l-.04-24.97a1 1 0 0 1 .96-1Zm581.69-35.59-7.5-9.11a1 .99-35 0 0-1.28-.22l-13.3 7.97a1 1 0 0 0-.11 1.64q10.19 8.12 10.5 21.53.45 19.85.29 39.74a1 1 0 0 0 1 1.01h15.26a1 1 0 0 0 1-1l.04-39.79a1 1 0 0 1 .24-.65c4.97-5.77 10.94-11.63 18.76-12.84a1 .99 80.5 0 0 .83-1.17l-3.17-16.54a1 1 0 0 0-1.18-.79q-11.44 2.36-19.93 10.31a1 .99-41.2 0 1-1.45-.09Zm-508.58 6.38c5.34.41 9.37 3.86 9.66 9.25a1 .99 90 0 1-1.04 1.05c-14.28-.69-32.59 2.37-36.72 18.93-4.13 16.55 10.64 29.51 26.07 29.14q10.22-.24 17.98-8.03a1 1 0 0 1 1.55.17q2.47 3.89 5.88 7a1.01 1-38.8 0 0 1.18.12l13.43-7.86a1 1 0 0 0 .09-1.66c-17.43-12.95-7.01-30.26-12.29-46.83-6.12-19.21-30.2-21.73-45.23-12.58a1.01 1-27.6 0 0-.4 1.25l5.37 12.44a1 .99-25.9 0 0 1.39.48q6.29-3.39 13.08-2.87Zm53.63 50.74c13.64 11.87 36.09 10.03 46.84-4.63a1 1 0 0 0-.23-1.41l-13.25-9.37a1 1 0 0 0-1.34.16c-5.99 6.97-18.1 7.79-23.22-1.23q-4.96-8.73-3.1-18.26c2.67-13.68 15.12-20.6 26.48-9.41a1 .99-40.1 0 0 1.28.1l13.17-9.32a1.01.99-35.7 0 0 .24-1.4c-9.49-13.19-29.84-16.03-42.93-7.73-20.77 13.16-22.23 46.6-3.94 62.5Zm163.88-33.34c-1.39 16.99 7.57 36.56 25.68 40.17q20.5 4.1 33.85-11.22a1.02 1.01-51.8 0 0-.17-1.48l-13.49-9.59a1 .99-50.9 0 0-1.32.14c-4.14 4.6-11.02 6.82-16.87 4.54-13.13-5.1-13-30.84-1.2-37.18 5.45-2.93 14.19-1.61 17.78 3.85a1.01 1-34.4 0 0 1.42.26l13.48-9.58a1 1 0 0 0 .22-1.42q-5.97-7.98-15.62-10.77c-23.45-6.77-41.89 9.27-43.76 32.28Zm163.065 41.14a37.52 33.44 89.9 0 0 33.375-37.578 37.52 33.44 89.9 0 0-33.505-37.462 37.52 33.44 89.9 0 0-33.375 37.578 37.52 33.44 89.9 0 0 33.505 37.462Zm177.255-1.96c12.31 4.69 29.07.89 37.07-10.41a1 1 0 0 0-.23-1.39l-13.27-9.51a1 .99 37.9 0 0-1.34.16q-3.95 4.67-9.64 5.35c-24.65 2.93-22.16-48.85 4.6-38.2q2.06.82 5.12 4.07a1 1 0 0 0 1.31.12l13.25-9.45a1 1 0 0 0 .23-1.41q-6.13-8.3-16.23-11.01c-45.5-12.23-59.6 56.94-20.87 71.68Zm59.44-25.69q2.17-.17 4.37-.3c16.35-.97 29.63-10.14 36.25-24.91a1.02.99 48 0 0 .03-.76q-7.12-19.27-25.23-21.09c-30.98-3.11-42.73 33.26-31.54 56.11 10.74 21.94 37.11 24.88 52.58 6.18a.99.99 0 0 0-.07-1.34l-8.53-8.53a1 1 0 0 0-1.33-.08c-5.57 4.4-14.09 7.22-20.62 3.97q-4.76-2.37-6.78-7.91a1.01 1 78 0 1 .87-1.34Zm-491.08-44.42a.54.54 0 0 0-.54-.54h-16.84a.54.54 0 0 0-.54.54v69.14a.54.54 0 0 0 .54.54h16.84a.54.54 0 0 0 .54-.54v-69.14Zm81-.15a.39.39 0 0 0-.39-.39h-17.22a.39.39 0 0 0-.39.39v69.46a.39.39 0 0 0 .39.39h17.22a.39.39 0 0 0 .39-.39v-69.46Zm260.62 62.62 7.09 8.53a1 .99 54.5 0 0 1.28.22l13.35-7.98a1 1 0 0 0 .08-1.66c-8.22-6.12-10.38-13.29-10.55-23.88q-.28-18.18-.04-37.23a1 1 0 0 0-1-1.01h-15.81a1 1 0 0 0-1 1q-.03 17.6-.02 35.2 0 6.33-1.35 9.38c-3.81 8.63-20.17 14.36-20.63.15q-.62-19.35-.13-44.71a1 1 0 0 0-1-1.02h-15.53a1 1 0 0 0-1 .99q-.21 23.76-.08 47.5.08 12.76 8.51 19.36c8.21 6.42 19.11 6.33 27.98.92q4.4-2.69 8.46-5.9a1 .99-39 0 1 1.39.14Zm166.16 58.03c.91 6.9 9.3 10.46 13.66 13.45 8.21 5.65-.37 16.5-8.47 9.42q-.97-.85-2.14-1.38a1 .98 37.1 0 0-1.06.14q-5.38 4.55 1.69 7.31 10.79 4.2 16.26-3.3c8.16-11.19-3.17-17.39-11.12-21.97-8.17-4.7-.67-16.04 7.93-8.98a1.02 1.02 0 0 0 1.12.1q5.95-3.24.45-6.01c-8.26-4.15-19.71.68-18.32 11.22Zm-324.58 11.48a.3.3 0 0 1 .3.3v17.77a.3.3 0 0 0 .31.3l4.98-.19a.3.3 0 0 0 .29-.3l-.12-41.08a.3.3 0 0 0-.3-.3l-4.91-.07a.3.3 0 0 0-.3.31l.07 17.42a.3.3 0 0 1-.3.3l-15.36.05a.3.3 0 0 1-.3-.29l-.36-17.59a.3.3 0 0 0-.31-.29l-4.86.12a.3.3 0 0 0-.29.3l.26 41.16a.3.3 0 0 0 .3.3l4.95.01a.3.3 0 0 0 .3-.3l-.16-17.69a.3.3 0 0 1 .3-.3l15.51.06Zm21.05-.32a.45.45 0 0 1 .45-.45h10.85a.45.45 0 0 0 .45-.45v-4.28a.45.45 0 0 0-.44-.45l-10.86-.25a.45.45 0 0 1-.44-.45l-.02-11.2a.45.45 0 0 1 .45-.45l12.67.1a.45.45 0 0 0 .45-.43l.25-4.39a.45.45 0 0 0-.44-.47l-18.15-.1a.45.45 0 0 0-.45.45l-.11 41.23a.45.45 0 0 0 .46.45l18.85-.21a.45.45 0 0 0 .44-.46l-.06-4.44a.45.45 0 0 0-.46-.45l-13.43.09a.45.45 0 0 1-.45-.45l-.01-12.94Zm43.67 10.09q2.22 3.78 2.68 8.09a1 1 0 0 0 1.09.89l4.26-.4a1 1 0 0 0 .85-1.34q-7.07-19.42-13.99-38.1c-1.68-4.55-4.59-2.75-5.85.64q-6.48 17.43-13.78 37.51a1 1 0 0 0 .86 1.34l4.04.34a1.01 1.01 0 0 0 1.07-.83q.74-4.24 2.61-8.13a1 1 0 0 1 .9-.57l14.4.06a1 .99 74.7 0 1 .86.5Zm34.13 3.27-11.73-.08a1.01 1.01 0 0 1-1-1l-.29-34.53a1 .99 89.1 0 0-1.01-.99l-3.43.04a.99.99 0 0 0-.98.95q-.23 4.81.09 12.55.34 8.42-.12 27.48a1 1 0 0 0 1 1.02h17.7a1 .99 88.1 0 0 .99-1.07l-.23-3.43a1 1 0 0 0-.99-.94Zm4.94-31.89a.58.58 0 0 0 .58.58h9.1a.58.58 0 0 1 .58.58v35.47a.58.58 0 0 0 .6.58l4.42-.19a.58.58 0 0 0 .56-.58l-.17-35.28a.58.58 0 0 1 .58-.58h9.11a.58.58 0 0 0 .58-.57l.1-4.12a.58.58 0 0 0-.58-.59l-24.87.04a.58.58 0 0 0-.58.58l-.01 4.08Zm39.22 13.33a.54.54 0 0 1-.54-.53l-.24-16.89a.54.54 0 0 0-.52-.53l-4.33-.17a.54.54 0 0 0-.56.54l-.03 40.79a.54.54 0 0 0 .54.54h4.48a.54.54 0 0 0 .54-.54l-.07-17.11a.54.54 0 0 1 .53-.54l15.26-.21a.54.54 0 0 1 .55.55l-.27 17.6a.54.54 0 0 0 .58.55l4.67-.32a.54.54 0 0 0 .5-.55l-.15-40.62a.54.54 0 0 0-.53-.54l-4.34-.09a.54.54 0 0 0-.55.54l.07 16.99a.54.54 0 0 1-.54.54h-15.05Zm51.21 23.83a1 .99-88.6 0 0 1.02-.98l.23-11.76a1 1 0 0 1 .99-.98q3.68-.06 5.56-.39c13.96-2.46 17.38-20.37 4.2-26.18-4.33-1.91-10.42-1.85-15.43-1.8a1.01 1-90 0 0-.99 1v40.02a1.01 1 .9 0 0 .98 1l3.44.07Zm115.78-11.73a.29.29 0 0 1-.54.15l-18.26-30.09a.29.29 0 0 0-.26-.14l-5.1.09a.29.29 0 0 0-.29.29v41.37a.29.29 0 0 0 .31.29l4.94-.35a.29.29 0 0 0 .27-.29l-.22-28.99a.29.29 0 0 1 .09-.21l.46-.44a.29.29 0 0 1 .45.05l18.1 30.1a.29.29 0 0 0 .26.14l5.15-.28a.29.29 0 0 0 .28-.29l-.34-41.2a.29.29 0 0 0-.28-.29l-4.99-.21a.29.29 0 0 0-.3.29l.27 30.01Zm-85.02 11.75q7.78.41 15.62 0a1 1 0 0 0 .95-1v-3.24a1 .99-89.7 0 0-.98-1l-12.12-.16a1 1 0 0 1-.99-.99l-.16-34.5a1.01 1.01 0 0 0-1.07-1l-3.22.21a1 1 0 0 0-.94.99l-.3 39.69a1 1 0 0 0 1.06 1.01q1.14-.07 2.15-.01Zm20.99-.16 3.96.56a1.02 1-77.1 0 0 1.1-.7l2.44-7.94a1 .99 8 0 1 .94-.7l14.69-.19a1 .99 76.4 0 1 .91.56q1.91 3.95 2.88 8.2a1 .99 79.7 0 0 1.11.77l3.83-.55a1 1 0 0 0 .8-1.33l-14.43-39.62a1 .98-9.3 0 0-.92-.65l-2.52-.05a1.01 1-79.1 0 0-.95.65l-14.63 39.65a1 1 0 0 0 .79 1.34Z"/><path fill="#015393" d="M241.35 121.01c-3.58 24.22 17.15 44.06 39.31 48.66 27.71 5.75 51.45-11.33 62.57-35.69 11.71-25.64 9.92-55.98-6.39-79.32-16.75-23.98-47.17-39.01-76.42-37.55q-16.48.83-31.93 6.65-12.53 4.72-.65-1.46 1.75-.91 3.69-1.76 25.68-11.29 52.39-7.62c40.53 5.57 72.94 38.64 77.79 79.32 7.39 61.96-47 113.54-108.7 101.55-36-6.99-64.5-34.49-72.4-70.36-8.5-38.68 8.25-72.83 47.16-84.31q32.31-9.54 59.12 6.95c11.76 7.23 19.47 16.66 22.51 29.87 3.68 16.02 1.24 33.5-13.3 43.17q-9.53 6.33-21.9 5.25a1 .99 9.9 0 1-.88-1.25q.54-1.99 1.2-3.9c4.06-11.78-5.18-20.1-16.42-17.63-9.73 2.13-15.3 9.63-16.75 19.43Z"/><path fill="#afbb1f" d="M201.9 42.96q1.17-1.22 2.39-2.2c47.03-37.45 133.98-14.71 136.12 53.46.71 22.7-6.93 45.51-26.76 58.4-21.1 13.71-50.33 6.24-53.65-21.67a.41.4-21.2 0 1 .17-.38q.46-.32.81.21c2.03 3.07 3.68 5.54 6.83 7.44q11.94 7.18 26.44 2.76c15.28-4.65 24.37-14.06 29.77-29.11 7.48-20.84 2.49-41.69-11.54-58.31-17.5-20.73-44.53-28.87-71.23-26.26q-22.44 2.2-38.79 16.26-6.46 5.55-.56-.6Z"/><path fill="#015393" d="M423.52 241.5h11.98a1 1 0 0 1 1 1V258a1 1 0 0 1-1 1l-12.02.01a1 .99 89.7 0 0-.99 1.01q.27 28-.08 56-.23 18.11-13.86 29.56a1.01 1.01 0 0 1-1.15.1l-12.83-7.55a1 1 0 0 1-.22-1.55q1.42-1.48 2.84-2.93c5.78-5.86 7.52-11.93 7.53-20.31q.03-26.67.35-53.33a1 .99.6 0 0-1-1.01h-10.32a1 1 0 0 1-1-1v-15.5a1 1 0 0 1 1-1h9.98a1 1 0 0 0 1-1.02q-.13-5.4.55-10.71c1.68-13.18 10.14-22.73 23.35-25.61a.99.98-28.1 0 1 .92.27l8.54 8.57a1.01 1 60 0 1-.45 1.68q-11.43 3.05-14.65 14.56-.81 2.9-.47 11.3a1 1 0 0 0 1 .96Z"/><circle cx="374.26" cy="219.58" r="10.64" fill="#015393"/><circle cx="455.15" cy="219.57" r="10.63" fill="#015393"/><path fill="#015393" d="M552.44 263.31c-8.34-6.14-11.1-18.27-7.72-27.72 3.11-8.71 11.72-15.32 20.79-17.08q17.63-3.44 30.51 9.26a1 1 0 0 1 .05 1.37l-10.27 11.69a1.01 1 42.9 0 1-1.46.05q-1.12-1.13-2.29-2.15c-12.02-10.47-30.05 2.94-13.69 12.64 14.93 8.85 33.21 15.77 30.18 37.1-3.91 27.5-39.64 33.65-56.52 14.5a1.01 1-46 0 1-.02-1.3l10.77-12.97a.99.99 0 0 1 1.55.02q3.48 4.47 8.41 6.75c6.27 2.89 13.22 2.04 16.48-4.53 3.9-7.89-2.73-13.34-9.05-16.65q-9.75-5.1-17.72-10.98Zm-369.45 22.47.04 24.97a1 1 0 0 1-1 1H166a1 1 0 0 1-1-1l.01-89.73a1 1 0 0 1 .99-1c19.06-.12 39.9-2.9 53.16 14.75 8.19 10.9 7.72 26.15-1.19 36.68q-9.49 11.19-25.17 12.89-1.57.17-8.85.44a1 1 0 0 0-.96 1Zm19.32-42.34q-7.23-6.57-18.2-5a1 1 0 0 0-.86.99v25.98a1.01 1 2.8 0 0 .91 1q7.44.67 14.05-2.31c8.46-3.81 11.31-14.12 4.1-20.66Z"/><path fill="#fff" d="M202.31 243.44c7.21 6.54 4.36 16.85-4.1 20.66q-6.61 2.98-14.05 2.31a1.01 1 2.8 0 1-.91-1v-25.98a1 1 0 0 1 .86-.99q10.97-1.57 18.2 5Z"/><path fill="#015393" d="M765.64 249.19a1 .99-41.2 0 0 1.45.09q8.49-7.95 19.93-10.31a1 1 0 0 1 1.18.79l3.17 16.54a1 .99 80.5 0 1-.83 1.17c-7.82 1.21-13.79 7.07-18.76 12.84a1 1 0 0 0-.24.65l-.04 39.79a1 1 0 0 1-1 1h-15.26a1 1 0 0 1-1-1.01q.16-19.89-.29-39.74-.31-13.41-10.5-21.53a1 1 0 0 1 .11-1.64l13.3-7.97a1 .99-35 0 1 1.28.22l7.5 9.11Zm-508.58 6.38q-6.79-.52-13.08 2.87a1 .99-25.9 0 1-1.39-.48l-5.37-12.44a1.01 1-27.6 0 1 .4-1.25c15.03-9.15 39.11-6.63 45.23 12.58 5.28 16.57-5.14 33.88 12.29 46.83a1 1 0 0 1-.09 1.66l-13.43 7.86a1.01 1-38.8 0 1-1.18-.12q-3.41-3.11-5.88-7a1 1 0 0 0-1.55-.17q-7.76 7.79-17.98 8.03c-15.43.37-30.2-12.59-26.07-29.14 4.13-16.56 22.44-19.62 36.72-18.93a1 .99 90 0 0 1.04-1.05c-.29-5.39-4.32-8.84-9.66-9.25Zm-7.61 40.23c5.93 4.23 12.99.17 17.57-4.3a1 .99 66.1 0 0 .3-.78l-.65-10.26a1.01 1.01 0 0 0-.97-.94c-7.71-.24-17.1-1.19-19.09 8.71q-.97 4.85 2.84 7.57Zm61.24 10.51c-18.29-15.9-16.83-49.34 3.94-62.5 13.09-8.3 33.44-5.46 42.93 7.73a1.01.99-35.7 0 1-.24 1.4l-13.17 9.32a1 .99-40.1 0 1-1.28-.1c-11.36-11.19-23.81-4.27-26.48 9.41q-1.86 9.53 3.1 18.26c5.12 9.02 17.23 8.2 23.22 1.23a1 1 0 0 1 1.34-.16l13.25 9.37a1 1 0 0 1 .23 1.41c-10.75 14.66-33.2 16.5-46.84 4.63Zm189.56 6.83c-18.11-3.61-27.07-23.18-25.68-40.17 1.87-23.01 20.31-39.05 43.76-32.28q9.65 2.79 15.62 10.77a1 1 0 0 1-.22 1.42l-13.48 9.58a1.01 1-34.4 0 1-1.42-.26c-3.59-5.46-12.33-6.78-17.78-3.85-11.8 6.34-11.93 32.08 1.2 37.18 5.85 2.28 12.73.06 16.87-4.54a1 .99-50.9 0 1 1.32-.14l13.49 9.59a1.02 1.01-51.8 0 1 .17 1.48q-13.35 15.32-33.85 11.22Zm137.385.97a37.52 33.44 89.9 0 1-33.505-37.462 37.52 33.44 89.9 0 1 33.375-37.578 37.52 33.44 89.9 0 1 33.505 37.462 37.52 33.44 89.9 0 1-33.375 37.578Zm-.124-17.66a19.84 15.45 90.2 0 0 15.519-19.786 19.84 15.45 90.2 0 0-15.38-19.894 19.84 15.45 90.2 0 0-15.52 19.786 19.84 15.45 90.2 0 0 15.38 19.894Z"/><path fill="#015393" d="M814.89 312.15c-38.73-14.74-24.63-83.91 20.87-71.68q10.1 2.71 16.23 11.01a1 1 0 0 1-.23 1.41l-13.25 9.45a1 1 0 0 1-1.31-.12q-3.06-3.25-5.12-4.07c-26.76-10.65-29.25 41.13-4.6 38.2q5.69-.68 9.64-5.35a1 .99 37.9 0 1 1.34-.16l13.27 9.51a1 1 0 0 1 .23 1.39c-8 11.3-24.76 15.1-37.07 10.41Zm58.57-24.35q2.02 5.54 6.78 7.91c6.53 3.25 15.05.43 20.62-3.97a1 1 0 0 1 1.33.08l8.53 8.53a.99.99 0 0 1 .07 1.34c-15.47 18.7-41.84 15.76-52.58-6.18-11.19-22.85.56-59.22 31.54-56.11q18.11 1.82 25.23 21.09a1.02.99 48 0 1-.03.76c-6.62 14.77-19.9 23.94-36.25 24.91q-2.2.13-4.37.3a1.01 1 78 0 0-.87 1.34Zm-.35-15.24q14.75.82 23.23-11a1 1 0 0 0-.28-1.43c-13.69-8.55-20-.93-23.84 11.13a.99.99 0 0 0 .89 1.3Z"/><rect width="17.92" height="70.22" x="365.33" y="241.5" fill="#015393" rx=".54"/><rect width="18" height="70.24" x="446.25" y="241.5" fill="#015393" rx=".39"/><path fill="#015393" d="M723.48 304.37q-4.06 3.21-8.46 5.9c-8.87 5.41-19.77 5.5-27.98-.92q-8.43-6.6-8.51-19.36-.13-23.74.08-47.5a1 1 0 0 1 1-.99h15.53a1 1 0 0 1 1 1.02q-.49 25.36.13 44.71c.46 14.21 16.82 8.48 20.63-.15q1.35-3.05 1.35-9.38-.01-17.6.02-35.2a1 1 0 0 1 1-1h15.81a1 1 0 0 1 1 1.01q-.24 19.05.04 37.23c.17 10.59 2.33 17.76 10.55 23.88a1 1 0 0 1-.08 1.66l-13.35 7.98a1 .99 54.5 0 1-1.28-.22l-7.09-8.53a1 .99-39 0 0-1.39-.14Z"/><path fill="#fff" d="M873.11 272.56a.99.99 0 0 1-.89-1.3c3.84-12.06 10.15-19.68 23.84-11.13a1 1 0 0 1 .28 1.43q-8.48 11.82-23.23 11Z"/><ellipse fill="#fff" rx="19.84" ry="15.45" transform="rotate(90.2 180.967 455.984)"/><path fill="#fff" d="M249.45 295.8q-3.81-2.72-2.84-7.57c1.99-9.9 11.38-8.95 19.09-8.71a1.01 1.01 0 0 1 .97.94l.65 10.26a1 .99 66.1 0 1-.3.78c-4.58 4.47-11.64 8.53-17.57 4.3Z"/><path fill="#afb827" d="M904.69 375.99c-4.36-2.99-12.75-6.55-13.66-13.45-1.39-10.54 10.06-15.37 18.32-11.22q5.5 2.77-.45 6.01a1.02 1.02 0 0 1-1.12-.1c-8.6-7.06-16.1 4.28-7.93 8.98 7.95 4.58 19.28 10.78 11.12 21.97q-5.47 7.5-16.26 3.3-7.07-2.76-1.69-7.31a1 .98 37.1 0 1 1.06-.14q1.17.53 2.14 1.38c8.1 7.08 16.68-3.77 8.47-9.42Zm-338.24-1.97-15.51-.06a.3.3 0 0 0-.3.3l.16 17.69a.3.3 0 0 1-.3.3l-4.95-.01a.3.3 0 0 1-.3-.3l-.26-41.16a.3.3 0 0 1 .29-.3l4.86-.12a.3.3 0 0 1 .31.29l.36 17.59a.3.3 0 0 0 .3.29l15.36-.05a.3.3 0 0 0 .3-.3l-.07-17.42a.3.3 0 0 1 .3-.31l4.91.07a.3.3 0 0 1 .3.3l.12 41.08a.3.3 0 0 1-.29.3l-4.98.19a.3.3 0 0 1-.31-.3v-17.77a.3.3 0 0 0-.3-.3Zm21.05-.32.01 12.94a.45.45 0 0 0 .45.45l13.43-.09a.45.45 0 0 1 .46.45l.06 4.44a.45.45 0 0 1-.44.46l-18.85.21a.45.45 0 0 1-.46-.45l.11-41.23a.45.45 0 0 1 .45-.45l18.15.1a.45.45 0 0 1 .44.47l-.25 4.39a.45.45 0 0 1-.45.43l-12.67-.1a.45.45 0 0 0-.45.45l.02 11.2a.45.45 0 0 0 .44.45l10.86.25a.45.45 0 0 1 .44.45v4.28a.45.45 0 0 1-.45.45h-10.85a.45.45 0 0 0-.45.45Zm42.81 9.59-14.4-.06a1 1 0 0 0-.9.57q-1.87 3.89-2.61 8.13a1.01 1.01 0 0 1-1.07.83l-4.04-.34a1 1 0 0 1-.86-1.34q7.3-20.08 13.78-37.51c1.26-3.39 4.17-5.19 5.85-.64q6.92 18.68 13.99 38.1a1 1 0 0 1-.85 1.34l-4.26.4a1 1 0 0 1-1.09-.89q-.46-4.31-2.68-8.09a1 .99 74.7 0 0-.86-.5Zm-13.09-6.66a.87.87 0 0 0 .8 1.16l10.12.16a.87.87 0 0 0 .84-1.14l-4.82-14.93a.87.87 0 0 0-1.65-.02l-5.29 14.77Zm48.08 10.43a1 1 0 0 1 .99.94l.23 3.43a1 .99 88.1 0 1-.99 1.07h-17.7a1 1 0 0 1-1-1.02q.46-19.06.12-27.48-.32-7.74-.09-12.55a.99.99 0 0 1 .98-.95l3.43-.04a1 .99 89.1 0 1 1.01.99l.29 34.53a1.01 1.01 0 0 0 1 1l11.73.08Zm4.94-31.89.01-4.08a.58.58 0 0 1 .58-.58l24.87-.04a.58.58 0 0 1 .58.59l-.1 4.12a.58.58 0 0 1-.58.57h-9.11a.58.58 0 0 0-.58.58l.17 35.28a.58.58 0 0 1-.56.58l-4.42.19a.58.58 0 0 1-.6-.58v-35.47a.58.58 0 0 0-.58-.58h-9.1a.58.58 0 0 1-.58-.58Zm39.22 13.33h15.05a.54.54 0 0 0 .54-.54l-.07-16.99a.54.54 0 0 1 .55-.54l4.34.09a.54.54 0 0 1 .53.54l.15 40.62a.54.54 0 0 1-.5.55l-4.67.32a.54.54 0 0 1-.58-.55l.27-17.6a.54.54 0 0 0-.55-.55l-15.26.21a.54.54 0 0 0-.53.54l.07 17.11a.54.54 0 0 1-.54.54h-4.48a.54.54 0 0 1-.54-.54l.03-40.79a.54.54 0 0 1 .56-.54l4.33.17a.54.54 0 0 1 .52.53l.24 16.89a.54.54 0 0 0 .54.53Zm51.21 23.83-3.44-.07a1.01 1 .9 0 1-.98-1v-40.02a1.01 1-90 0 1 .99-1c5.01-.05 11.1-.11 15.43 1.8 13.18 5.81 9.76 23.72-4.2 26.18q-1.88.33-5.56.39a1 1 0 0 0-.99.98l-.23 11.76a1 .99-88.6 0 1-1.02.98Zm2.06-19.24c16.67 2.04 16.74-18.77.01-17.22a.99.98-2.8 0 0-.9.99l.01 15.23a1.01 1-86.5 0 0 .88 1Zm113.72 7.51-.27-30.01a.29.29 0 0 1 .3-.29l4.99.21a.29.29 0 0 1 .28.29l.34 41.2a.29.29 0 0 1-.28.29l-5.15.28a.29.29 0 0 1-.26-.14l-18.1-30.1a.29.29 0 0 0-.45-.05l-.46.44a.29.29 0 0 0-.09.21l.22 28.99a.29.29 0 0 1-.27.29l-4.94.35a.29.29 0 0 1-.31-.29V350.9a.29.29 0 0 1 .29-.29l5.1-.09a.29.29 0 0 1 .26.14l18.26 30.09a.29.29 0 0 0 .54-.15Zm-85.02 11.75q-1.01-.06-2.15.01a1 1 0 0 1-1.06-1.01l.3-39.69a1 1 0 0 1 .94-.99l3.22-.21a1.01 1.01 0 0 1 1.07 1l.16 34.5a1 1 0 0 0 .99.99l12.12.16a1 .99-89.7 0 1 .98 1v3.24a1 1 0 0 1-.95 1q-7.84.41-15.62 0Z"/><path fill="#afbb1f" d="M812.42 392.19a1 1 0 0 1-.79-1.34l14.63-39.65a1.01 1-79.1 0 1 .95-.65l2.52.05a1 .98-9.3 0 1 .92.65l14.43 39.62a1 1 0 0 1-.8 1.33l-3.83.55a1 .99 79.7 0 1-1.11-.77q-.97-4.25-2.88-8.2a1 .99 76.4 0 0-.91-.56l-14.69.19a1 .99 8 0 0-.94.7l-2.44 7.94a1.02 1-77.1 0 1-1.1.7l-3.96-.56Zm9.97-15.04a.5.5 0 0 0 .47.67l11.09.06a.5.5 0 0 0 .48-.66l-5.46-15.92a.5.5 0 0 0-.95-.01l-5.63 15.86Z"/><path fill="#fff" d="M762.74 355.87c16.73-1.55 16.66 19.26-.01 17.22a1.01 1-86.5 0 1-.88-1l-.01-15.23a.99.98-2.8 0 1 .9-.99Zm59.65 21.28 5.63-15.86a.5.5 0 0 1 .95.01l5.46 15.92a.5.5 0 0 1-.48.66l-11.09-.06a.5.5 0 0 1-.47-.67Z"/><path fill="#ffffed" d="m617.22 376.63 5.29-14.77a.87.87 0 0 1 1.65.02l4.82 14.93a.87.87 0 0 1-.84 1.14l-10.12-.16a.87.87 0 0 1-.8-1.16Z"/></svg>