<svg xmlns="http://www.w3.org/2000/svg"
viewBox="0 0 1284.73 239.92" ><defs><style>.ls-1{fill:#0080c0;}.ls-1,.ls-2{fill-rule:evenodd;}.ls-2{fill:#fff;}.ls-3{fill:#008bcc;}</style></defs><g id="Layer_2" data-name="Layer 2"><g id="Layer_1-2" data-name="Layer 1"><path class="ls-1" d="M990.86,95.12c13.49-15.62,23.42-23.43,37.62-23.43,19.87,0,27.69,18.46,27.69,37.63v55.37c0,14.91,5.67,16.32,17,17V186h-54v-4.26c11.36-.71,17-2.12,17-17V113.57c0-24.84-10.64-27-17.75-27-11.35,0-19.88,7.1-27.68,15.62v62.47c0,14.91,5.67,16.32,17,17V186H953.94v-4.26c11.36-.71,17-2.12,17-17V104.35c0-17-5-17-8.52-17-2.84,0-6.39.71-8.52,2.13l-2.12-4.26L985.18,71.7h5.68V95.12Zm184.55,49c-4.26,22.72-21.3,45.43-46.15,45.43-27.67,0-46.84-25.55-46.84-59.62,0-35.5,24.85-58.21,52.53-58.21,14.91,0,36.91,9.23,36.91,26.27,0,7.1-4.26,10.64-10.65,10.64-9.94,0-12.78-5.67-14.19-14.19-.71-9.94-6.39-14.2-15.62-14.2-21.29,0-29.8,21.3-29.8,39.75,0,21.29,10.64,50.4,36.2,50.4,17.74,0,28.4-12.78,34.07-28.4l3.54,2.13Zm-595.55,6.4-31.94-44.72c21.29-4.26,40.46-17.75,40.46-41.88,0-14.2-8.52-42.59-56.79-42.59H461.31v5C484,26.27,484,32,484,53.25v101.5c0,20.58,0,27-22.72,27V186h69.57v-4.26c-23.42,0-23.42-6.39-23.42-27V32.65c6.38-.71,13.48-2.12,19.87-2.12,19.87,0,33.37,14.91,33.37,34.77,0,25.56-20.59,34.79-42.6,35.5L579.86,186h43.3v-4.26C600.44,179.59,591.92,167.52,579.86,150.49Zm97.25,19.16c-26.27,0-39.05-27.68-39.05-52.53,0-23.43,11.36-36.91,25.56-36.91,17.74,0,25.55,14.2,25.55,29.1H648l5.68,7.81H714c0-27-17-45.43-41.87-45.43C637.35,71.69,621,100.09,621,132c0,34.07,21.3,57.49,48.27,57.49,24.84,0,40.45-21.29,44.71-44l-3.54-2.84c-5.68,16.33-15.62,27-33.36,27Zm225.73,0c-27,0-39.75-27.68-39.75-52.53,0-23.43,12.07-36.91,26.26-36.91,17.75,0,24.85,14.2,24.85,29.1H873.73l5.68,7.81h60.34c0-27-17-45.43-42.6-45.43-34.77,0-50.39,28.4-50.39,60.34,0,34.07,20.58,57.49,47.56,57.49,24.83,0,41.17-21.29,45.43-44l-4.26-2.84C930.52,159,920.58,169.65,902.84,169.65Zm345,0c-26.27,0-39.75-27.68-39.75-52.53,0-23.43,12.07-36.91,26.26-36.91,17.75,0,25.56,14.2,25.56,29.1h-41.18l5.69,7.81h60.33c0-27-17-45.43-41.89-45.43-35.49,0-51.1,28.4-51.1,60.34,0,34.07,21.3,57.49,48.26,57.49,24.85,0,40.47-21.29,44.73-44l-3.55-2.84c-5.67,16.33-15.61,27-33.36,27Zm-452.88,0c-37.63,0-43.3-1.42-43.3-7.81,0-5,5-10.65,9.23-14.2,5,1.42,9.94,2.84,15.61,2.84,29.81,0,44-19.17,44-37.62,0-7.1-2.13-17-5.67-22.71h17L839,80.92H806.3c-4.26-4.26-14.2-9.23-27.69-9.23-32.65,0-44.72,23.43-44.72,40.46,0,14.2,7.81,27.69,20.59,33.36-7.1,6.39-19.17,15.62-19.17,26.26,0,6.39,7.1,10.66,12.07,12.78L741,190.94c-5,5.68-16.32,17.05-16.32,25.56,0,16.32,31.94,23.42,49,23.42,39.75,0,61.05-27,61.05-41.88,0-18.45-11.35-27.68-39.75-28.39ZM775.07,77.37c19.16,0,24.13,22.72,24.13,37.62,0,5.68,0,29.1-20.59,29.1-18.45,0-24.13-22-24.13-37.61C754.48,82.34,768,77.37,775.07,77.37ZM782.87,225c-23.43,0-40.46-7.1-40.46-17.74,0-7.82,6.39-15.62,10.65-21.3,9.22,2.12,34.77,2.84,41.87,2.84,12.07,0,31.24,0,31.24,12.07C826.18,212.24,813.4,225,782.87,225ZM379.68,199.46a9.71,9.71,0,0,1,9.94-9.94,9.94,9.94,0,0,1,0,19.88A9.71,9.71,0,0,1,379.68,199.46Zm17.75,0c0-5-2.84-8.51-7.81-8.51a8.52,8.52,0,1,0,0,17C394.59,208,397.43,204.44,397.43,199.46Zm-9.94,5.68h-1.41V193.79h4.25c3.56,0,4.26,1.42,4.26,2.84a3.36,3.36,0,0,1-3.55,3.55l3.55,5h-1.42l-3.55-5h-2.13v5Zm2.13-6.39c1.42,0,3.55,0,3.55-2.12,0-1.41-1.42-1.41-2.84-1.41h-2.84v3.54h2.13ZM315.8,212.24c39.74-22,63.88-56.79,76.66-95.12,12.77-40.46,9.94-88-5-117.12-22,11.36-44.72,17.74-71.69,17.74-26.27,0-49-6.38-71.7-17.74-14.91,29.1-17,76.66-4.25,117.13C251.92,155.46,276.05,190.24,315.8,212.24Z"/><path class="ls-2" d="M315.8,194.5c32.64-20.59,50.4-49.69,61.75-82.34C387.49,83.05,389.62,49,379,22c-16.33,5.68-26.26,7.81-34.78,9.23a159.59,159.59,0,0,1-28.39,2.13,151.31,151.31,0,0,1-27.69-2.13c-8.52-1.42-18.46-3.55-34.78-9.23-10.64,27-8.51,61.05,1.42,90.15C266.11,144.81,283.15,173.91,315.8,194.5Z"/><path class="ls-1" d="M315.8,186.7c22-14.21,47.55-46.15,57.49-87.32,5-22,6.39-46.85,0-66.73A212.09,212.09,0,0,1,344.19,39c-9.23.71-19.17,2.13-28.39,2.13S297.34,39.75,287.41,39A228,228,0,0,1,259,32.65c-7.1,19.88-5.68,44.72,0,66.73C269,140.55,293.79,172.49,315.8,186.7Z"/><path class="ls-2" d="M292.38,56.08c-7.1,3.55-10.66,13.49-7.1,21.3,2.84,6.39,9.22,9.23,16.32,11.36a37.46,37.46,0,0,0,9.94,1.41c4.26.72,7.8.72,12.07,2.13a5.38,5.38,0,0,1,2.84,1.42c1.42,2.13,0,3.55-2.13,4.26,0,3.55-.71,11.36-.71,11.36s17.74-2.13,14.9-17.75c-.71-3.55-4.26-7.1-7.81-9.23-8.52-4.26-18.46-2.84-27-5.67-2.84-.71-5.69-2.13-6.39-5-.71-1.42-.71-3.55.71-4.26,2.13-1.42,3.55.71,7.1,1.42a7.78,7.78,0,0,0,5.68,0c.71,0,1.41-.72,2.12-.72,0-.71-2.12-1.41-2.12-1.41A5.38,5.38,0,0,0,308,66c-2.12-.72-3.54-2.13-5.67-2.85a21.9,21.9,0,0,1,6.39-.71c1.41.71,5.68,0,7.1,0a.7.7,0,0,0,.71-.71l-2.13-2.13c-1.42-1.42-2.13-3.54-4.26-4.26-5.68-2.12-12.07-2.83-17.74.72Z"/><path class="ls-2" d="M320.77,110.73l.71-15.61a52.17,52.17,0,0,0-5.68-1.42h-5.69v1.42s-2.84,0-2.84.71a1,1,0,0,0,0,1.42c2.13,4.26,3.55,6.38,5,12.07,2.85.71,5,.71,8.53,1.41Z"/><path class="ls-2" d="M295.92,108.6c-.71,7.11,5,11.36,12.78,12.79a71,71,0,0,1,12.07,1.41,4.28,4.28,0,0,1,2.84.71,1.53,1.53,0,0,1,1.41,1.42c0,.71,0,.71-.71,1.43l-.71.71-.71,8.51a14.23,14.23,0,0,0,5.68-1.41c2.84-2.13,4.26-3.56,5-6.39s0-5.68-1.41-8.52a18.43,18.43,0,0,0-6.39-3.54c-3.55-1.43-10.65-2.13-16.33-3.56-.71,0-2.13,0-2.13-1.41a1.39,1.39,0,0,1,1.42-1.42,12.37,12.37,0,0,0-.71-3.55c-.71-.71-1.42-2.84-2.84-5C300.89,101.51,295.92,103.63,295.92,108.6Z"/><path class="ls-2" d="M320.77,125.64l-.72,14.2-2.84-2.13-3.54-1.43L313,124.93A26.66,26.66,0,0,1,320.77,125.64Z"/><path class="ls-2" d="M303,133.45c-2.12,5,0,9.23,5,12.07,2.13.71,5.68,1.42,7.81,2.13,2.13,1.41,6.39,4.26,7.1,5.67a.69.69,0,0,1-.7.71v6.39a20.15,20.15,0,0,0,4.25-2.13,9,9,0,0,0,2.84-6.38c0-2.84-1.41-5-6.38-7.82a93.65,93.65,0,0,0-12.07-5.67,1.55,1.55,0,0,1-.71-2.13.7.7,0,0,1,.71-.71l-.71-7.1a7,7,0,0,0-2.84.72c-1.43.71-3.56,2.12-4.27,4.25Z"/><path class="ls-2" d="M320.05,154c0-.71,0-.71-.71-.71a5.38,5.38,0,0,0-2.13-2.13,31.78,31.78,0,0,0-3.54-1.41s.71,15.61.71,23.42c0,2.13.71,2.84,2.84,2.84s2.13-1.42,2.13-2.13c0-2.84.7-13.49.7-19.88Zm2.14-101.5c.71,0,.71.71,1.42,1.42,0,2.84-.71,6.39,0,8.52H325c2.85-2.13,5.68-5,9.23-6.39,1.42-.71,6.39,1.42,5,5,0,1.42-.71,1.42-1.41,2.84a33,33,0,0,0-8.52,6.38c-1.42,2.13-3.55,2.84-5,5a7,7,0,0,1-.71,2.13c-5-1.41-9.94-1.41-13.49-2.13L309.41,71s5,0,5.68-2.85c0,0,0-1.41-.71-1.41a5.4,5.4,0,0,0-2.84-1.43,101.21,101.21,0,0,1,11.35,3.56,7.15,7.15,0,0,1-.71-2.13c-.71-.71-1.41-.71-2.84-1.43-2.13,0-7.8-.71-7.8-.71a17.34,17.34,0,0,1,5-.71,16.11,16.11,0,0,0,2.84-.71,5.37,5.37,0,0,0-.71-2.84c-.71,0-1.42-.71-2.13-1.42a15.52,15.52,0,0,1-2.13-3.55c-1.42-1.42-5-2.84-5-2.84a5.57,5.57,0,0,1,0-3.56c.71-.7,2.84-.7,3.55-.7,2.84,1.43,5.68,3.56,9.23,4.27Z"/><path class="ls-1" d="M309.41,58.2c-.71,0-.71.72-2.13.72-1.42.71-.71-.72-2.13-1.42-.71-.71-1.42,0-2.13-1.42,2.13,0,5.68,0,7.81,2.12Z"/><path class="ls-2" d="M309.41,159c-.71,1.42-2.84,2.85-2.13,7.1a10.26,10.26,0,0,0,1.42,5c.7,1.43,2.13,1.42,2.13,0,0-.71-.72-2.13,0-4.25,0-2.13.71-2.13.71-2.13v-7.1a9,9,0,0,1-2.13,1.41Z"/><path class="ls-3" d="M185.84,179.58a11.13,11.13,0,0,0,0,22.26A11.25,11.25,0,0,0,197,190.71,11,11,0,0,0,185.84,179.58Zm0,20.33a9.2,9.2,0,1,1,9.2-9.2C195,196,191.65,199.91,185.84,199.91Z"/><path class="ls-3" d="M191.65,187.81c0-2.42-1-3.39-4.36-3.39H182V197h1.45v-5.33h2.91l3.38,5.33h1.94l-3.87-5.33C190.2,191.2,191.65,190.23,191.65,187.81Zm-5.81,1.94h-2.42v-3.88h3.39c1.45,0,2.9,0,2.9,1.94C190.2,190.23,187.29,189.75,185.84,189.75ZM98.73,116.67c-.49,0-.49,0-1,.48L79.37,145.22a48,48,0,0,0,37.75,0L98.73,116.67ZM80.82,93.44,53.24,91a41.18,41.18,0,0,0-1.46,11.13,48.05,48.05,0,0,0,11.14,30.49L82.27,95.86C83.24,94.89,82.76,93.92,80.82,93.44Z"/><path class="ls-3" d="M142.28,58.11V3.42H54.69V58.11H0v87.6H54.69v54.68h87.59V145.71H197V58.11ZM98.73,47.94c21.78,0,40.65,12.59,48.88,31.46H108.89c-5.32,0-7.74-3.39-8.23-5.81,0-2.9.49-3.87,2.91-7.25A7,7,0,0,0,98.24,55.2C92,55.2,90,62.46,92.92,66.34c2.42,3.38,2.9,4.35,2.9,7.25,0,2.42-2.42,5.81-8.22,5.81H48.88C58.08,61,77,47.94,98.73,47.94ZM44.52,102.15a59.58,59.58,0,0,1,3.39-18.88l36.3,3.39C91,87.63,92,94.41,90,98.28L65.33,145.22A55.35,55.35,0,0,1,44.52,102.15Zm83.73,45.49a53.18,53.18,0,0,1-30,8.71,57.3,57.3,0,0,1-30-8.71l26.62-39.2c1.93-2.9,4.84-2.42,6.77,0Zm3.87-2.9L107.44,98.28c-1.94-3.87-1-10.65,5.81-11.62l36.29-3.39a50.18,50.18,0,0,1,3.39,18.88A53.68,53.68,0,0,1,132.12,144.74Z"/><path class="ls-3" d="M134.06,71.66A46,46,0,0,0,111.8,57.14c2.9,4.36.48,10.65-1.94,13.55a.68.68,0,0,0,0,1ZM116.63,93.44c-1.93,0-1.93,1-1.45,1.93l19.36,36.78a48,48,0,0,0,11.13-30.49,41.18,41.18,0,0,0-1.45-11.13Zm-31-35.82A46,46,0,0,0,63.4,72.14H87.6c.48,0,.48-.48,0-1C85.18,67.79,82.76,62,85.66,57.62Z"/></g></g></svg>