<?xml version="1.0" encoding="utf-8"?>
<!-- Generator: Adobe Illustrator 26.3.1, SVG Export Plug-In . SVG Version: 6.00 Build 0)  -->
<svg version="1.1" id="Artwork" xmlns="http://www.w3.org/2000/svg" xmlns:xlink="http://www.w3.org/1999/xlink" x="0px" y="0px"
	 viewBox="0 0 180 91.5" style="enable-background:new 0 0 180 91.5;" xml:space="preserve">
<style type="text/css">
	.st0{fill:#0055B8;}
	.st1{fill:#FCD772;}
</style>
<g>
	<g>
		<g>
			<path class="st0" d="M18,37.2h5.5c0.2,3,2.3,4.7,5.9,4.7c3.1,0,5-1.2,5-3.4c0-1.9-1.6-2.7-4.1-3.3l-5-1.2
				c-4.2-1.1-6.6-3.7-6.6-7.5c0-4.3,3.1-8.4,10.1-8.4c6.5,0,10.6,3.6,11,8.9h-5.5c-0.3-2.7-2.5-4.3-5.5-4.3c-2.9,0-4.5,1.4-4.5,3.3
				c0,1.5,1.1,2.5,3.1,3l5.4,1.3c4.2,1,7.3,3.3,7.3,7.8c0,5.2-4.1,8.5-10.7,8.5C22.6,46.4,18.2,43,18,37.2z"/>
			<path class="st0" d="M47.4,39.4c0,1.3,0.5,1.9,1.9,1.9h1.8v4.3h-3.5c-3.9,0-5.5-1.6-5.5-5.5V20h5.3v6.1L51,26v4l-3.6-0.1V39.4z"
				/>
			<path class="st0" d="M78.2,40.6v5H59.5v-27h5.6v22H78.2z"/>
			<path class="st0" d="M96.7,26v19.5h-5.2l-0.1-2.7c-1.3,2.1-3.1,3.1-5.6,3.1c-4.1,0-6.4-2.7-6.4-6.9V26h5.3v11.9
				c0,2,0.9,3.3,2.8,3.3c2.3,0,3.8-1.9,3.8-4.8V25.9L96.7,26z"/>
			<path class="st0" d="M106.4,37.1l-2,2v6.5h-5.3v-27h5.3v14.8L111,26h6.7l-7.6,7.7l7.8,11.9h-6.3L106.4,37.1z"/>
			<path class="st0" d="M136,37.4h-14.2c0.2,3,1.9,4.7,4.6,4.7c1.9,0,3.1-0.8,3.8-2.5l5.3,0.4c-1.3,4.2-4.6,6.3-9,6.3
				c-6.5,0-10.2-4.5-10.2-10.5c0-5.7,3.6-10.2,9.6-10.2c5.8,0,10,4.1,10,10.9v0.9H136z M121.8,33.8h8.7c-0.3-2.7-1.9-4.3-4.3-4.3
				C123.7,29.4,122.1,31.1,121.8,33.8z"/>
			<path class="st0" d="M142.5,22.5v2.7c0,3.4-1.8,5.1-5.4,5.1h-0.7v-2.4h0.7c1.7,0,2.5-0.8,2.5-2.5v-0.5h-0.7
				c-2.2,0-3.6-1.4-3.6-3.3s1.4-3.3,3.6-3.3C141.1,18.3,142.5,19.9,142.5,22.5z"/>
			<path class="st0" d="M142.3,39.7l4.9-0.2c0.3,1.9,1.6,3,4.2,3c2,0,3.5-0.7,3.5-2.2c0-1.1-0.8-1.6-2.6-2l-3.9-0.8
				c-3.8-0.8-5.7-2.7-5.7-5.7c0-3.9,3.1-6.4,8-6.4c4.7,0,8,2.4,8.4,6.2l-4.8,0.2c-0.3-1.7-1.7-2.7-3.7-2.7c-1.8,0-2.9,0.8-2.9,2.1
				c0,1,0.8,1.7,2.2,2l4.2,0.9c3.9,0.8,5.7,2.6,5.7,5.6c0,4.1-3.4,6.5-8.7,6.5C145.8,46.3,142.8,43.9,142.3,39.7z"/>
		</g>
	</g>
	<g>
		<path class="st0" d="M160.4,18.5h1.7l1.1,4.3h0.2l1-4.3h1.7v4.8h-0.9V19H165l-1,4.3h-1.5l-1.1-4.3h-0.2v4.3h-0.8V18.5z"/>
		<polygon class="st0" points="157.3,19.2 155.9,19.2 155.9,18.5 159.6,18.5 159.6,19.2 158.2,19.2 158.2,23.3 157.3,23.3 		"/>
	</g>
	<g>
		<g>
			<path class="st0" d="M54.9,57v16.2h-2.1v-7.7h-8.6v7.7h-2.1V57h2.1v6.7h8.6V57C52.8,57,54.9,57,54.9,57z"/>
			<path class="st0" d="M67.8,67.8H59c0.1,2.6,1.4,3.9,3.6,3.9c1.7,0,2.7-0.9,3.3-2.3l1.9,0.2c-0.7,2.4-2.7,3.8-5.2,3.8
				c-3.5,0-5.6-2.6-5.6-6.2s2-6.1,5.5-6.1c3.3,0,5.4,2.2,5.4,5.9L67.8,67.8L67.8,67.8z M59,66.3h6.8c-0.3-2.2-1.5-3.4-3.4-3.4
				C60.6,62.9,59.2,64,59,66.3z"/>
			<path class="st0" d="M80.9,71.6v1.5h-1.1c-1.3,0-1.9-0.6-2-1.7c-0.8,1.1-2.3,2-4.3,2c-2.4,0-3.9-1.3-3.9-3.4c0-1.9,1.2-3.3,4-3.7
				l3-0.4c0.6-0.1,0.8-0.3,0.8-0.9v-0.5c0-1.2-0.8-1.8-2.6-1.8c-1.7,0-2.5,0.5-2.7,2.1H70c0.2-2.6,1.9-3.8,4.9-3.8
				c2.9,0,4.6,1.2,4.6,3.8v5.8c0,0.8,0.3,1,1,1C80.5,71.6,80.9,71.6,80.9,71.6z M77.5,69.1v-1.6L74,68c-1.6,0.3-2.3,1-2.3,2
				c0,1.2,0.9,1.9,2.3,1.9C75.8,71.9,77.5,70.6,77.5,69.1z"/>
			<path class="st0" d="M82.8,57h2.1v16.2h-2.1V57z"/>
			<path class="st0" d="M90.6,70.3c0,0.9,0.3,1.1,1.1,1.1h1.5v1.8h-2.1c-1.8,0-2.6-0.8-2.6-2.6V63h-1.7v-1.6l1.8,0.1v-3.7h2.1v3.7
				l2.7-0.1V63h-2.8V70.3z"/>
			<path class="st0" d="M105.2,65v8.2h-2.1v-7.7c0-1.6-0.8-2.5-2.3-2.5c-1.6,0-3.3,0.9-3.3,3.7v6.5h-2.1V57h2.1v5.9
				c0.8-1.1,2.2-1.8,3.8-1.8C103.7,61.1,105.2,62.5,105.2,65z"/>
		</g>
		<polygon class="st1" points="34.2,63.1 28.1,63.1 28.1,57 24.1,57 24.1,63.1 18,63.1 18,67.1 24.1,67.1 24.1,73.2 28.1,73.2 
			28.1,67.1 34.2,67.1 		"/>
		<g>
			<g>
				<path class="st0" d="M125,61.6c0,3.2-2.1,4.8-5.3,4.8h-4.5v6.8h-2.1V57h6.7C122.9,57,125,58.5,125,61.6z M122.9,61.6
					c0-1.9-1.2-2.8-3.2-2.8h-4.4v5.8h4.6C121.7,64.6,122.9,63.5,122.9,61.6z"/>
			</g>
			<path class="st0" d="M126.9,57h2.1v16.2h-2.1V57z"/>
			<path class="st0" d="M142.7,71.6v1.5h-1.1c-1.3,0-1.9-0.6-2-1.7c-0.8,1.1-2.3,2-4.3,2c-2.4,0-3.9-1.3-3.9-3.4
				c0-1.9,1.2-3.3,4-3.7l3-0.4c0.6-0.1,0.8-0.3,0.8-0.9v-0.5c0-1.2-0.8-1.8-2.6-1.8c-1.7,0-2.5,0.5-2.7,2.1h-2.1
				c0.2-2.6,1.9-3.8,4.9-3.8c2.9,0,4.6,1.2,4.6,3.8v5.8c0,0.8,0.3,1,1,1C142.3,71.6,142.7,71.6,142.7,71.6z M139.2,69.1v-1.6
				l-3.5,0.5c-1.6,0.3-2.3,1-2.3,2c0,1.2,0.9,1.9,2.3,1.9C137.6,71.9,139.2,70.6,139.2,69.1z"/>
			<path class="st0" d="M154.4,65v8.2h-2.1v-7.7c0-1.6-0.8-2.5-2.3-2.5c-1.6,0-3.3,0.9-3.3,3.7v6.5h-2.1V61.4h2v1.7
				c0.8-1.3,2.2-2,3.9-2C152.9,61.1,154.4,62.5,154.4,65z"/>
		</g>
	</g>
</g>
</svg>
