<svg xmlns="http://www.w3.org/2000/svg" viewBox="0 0 534 401"><g fill="none" stroke-width="2"><path stroke="#e18f9f" d="M271.82 154.81q-38.1-16.83-77.55-2.36-11.17 4.09-15.72 6.83c-15.29 9.21-36.4 15.22-53.91 10.65-11.71-3.05-24.67-11.77-29.03-23.97q-.28-.79-.48.02c-.8 3.2-4.33 12.69-2 15.18 25.31 27.08 57.65 25.05 88.57 7.99 24.71-13.63 55.15-18.56 81.49-7.13q3.63 1.57 14.35 7.04.5.26.75-.25 1.98-4.13 2.96-8.52" vector-effect="non-scaling-stroke"/><path stroke="#949dbf" d="m281.25 160.29 8.41-31.53q.23-.86.47 0l10.25 36.98q.14.52.68.52l41.38-.03q.94 0 .18.56l-37.06 27.1q-.4.29-.18.73l17.29 35.29a.24.24 0 0 1-.35.31l-32.45-22.07a.4.4 0 0 0-.62.33v11.47q0 .5.42.78l54.94 36.47a.27.27 0 0 0 .4-.32l-23.79-57.62q-.22-.53.22-.88l38.86-31.87q.32-.26.72-.26h29.01q.79 0 .15.46l-37.55 27.24q-.38.28-.17.7l17.59 35.34a.34.34 0 0 1-.49.43l-32.36-21.84a.45.45 0 0 0-.7.37v11.27a1.15 1.15 0 0 0 .52.96l54.68 35.96a.27.26-84.7 0 0 .39-.33l-23.73-57.6q-.17-.4.17-.68l39.61-32.35q.36-.3.83-.3l26.73.07q.4 0 .08.23l-37.6 27.29q-.46.34-.21.85l17.32 35.49a.3.29-86.1 0 1-.43.38l-32.14-21.97a.47.47 0 0 0-.74.39l.07 11.42q0 .56.47.87l54.96 36.09a.18.18 0 0 0 .27-.22l-23.97-58.09q-.12-.32.14-.53l51.23-42.07q.71-.58-.21-.58h-62.72q-.56 0-.75-.53l-18.89-53.84q-.42-1.18-.81.01l-17.57 53.72q-.21.64-.88.64h-6.53q-.52 0-.7-.49l-19.05-53.27a.35.35 0 0 0-.67.01q-8.38 25.62-16.79 51.49c-.49 1.5.18 2.2-2.09 2.24q-3.9.06-7.91 0-.55 0-.74-.53l-18.91-53.46q-.27-.74-.6-.03-.68 1.46-1.37 3.53-9.52 28.34-16.14 49.82" vector-effect="non-scaling-stroke"/><path stroke="#752d5e" d="m281.25 160.29-9.43-5.48" vector-effect="non-scaling-stroke"/><path stroke="#e18f9f" d="M93.69 195.08c-3.35-3.28-6.52-7.53-7.68-12.15a.31.31 0 0 0-.6 0l-3.43 12.67q-.17.61.24 1.1 24.31 28.86 62.2 20.37c16.22-3.63 28.52-11.91 40.52-16.89q21.29-8.86 44.38-7.07c14.22 1.11 26.45 6.24 38.98 13.19q.47.27.64-.25l2.6-7.95q.16-.5-.29-.76-28.63-17.03-61.11-13.79c-16.57 1.65-31.15 7.73-46.33 15.74-22.23 11.73-50.7 14.9-70.12-4.21" vector-effect="non-scaling-stroke"/><path stroke="#e18f9f" d="M157.44 235.2c-26.15 14.28-59.21 22.55-80.83-4.49-1.9-2.37-3.16-5.04-3.9-7.86a.38.37 47.2 0 0-.72-.03c-1.26 3.73-4.71 12.06-1.99 15.16 20.14 23.02 49.68 25.62 76.5 13.74 8.92-3.95 20.47-10.45 30.39-13.81 18.45-6.26 37.31-7.42 56.31-1.56 6.86 2.12 14.27 6.17 21.25 9.5q.6.28.82-.34l2.88-7.88q.19-.53-.29-.81-36.49-21.47-77.81-10.11-14.22 3.91-22.61 8.49M252.99 289.29c-1.39-8.53 7.26-11.1 13.11-6.43a.55.55 0 0 0 .89-.43l.01-7.98q0-.5-.46-.66-12.37-4.51-19.51 5.24c-4.06 5.54-3.29 13.67 1.23 18.77 3.64 4.1 13.11 7.75 18.41 3.61q.42-.33.41-.86l-.12-7.5q-.02-.8-.65-.31c-4.89 3.8-12.16 3.71-13.32-3.45M203.506 273.793a.57.57 0 0 0-.571-.569l-6.88.012a.57.57 0 0 0-.57.571l.05 27.96a.57.57 0 0 0 .57.569l6.88-.012a.57.57 0 0 0 .57-.571l-.05-27.96M451.82 284.17a.31.31 0 0 1-.31-.28l-.4-3.8a.31.31 0 0 1 .3-.34h8.34a.31.31 0 0 0 .31-.3l.13-5.86a.31.31 0 0 0-.31-.32l-16.1-.05a.31.31 0 0 0-.31.31l.05 28.54a.31.31 0 0 0 .31.31l16.11-.19a.31.31 0 0 0 .31-.31v-6.39a.31.31 0 0 0-.32-.31l-8.03.25a.31.31 0 0 1-.32-.28l-.41-3.81a.31.31 0 0 1 .31-.34h7.7a.31.31 0 0 0 .31-.31l.02-6.34a.31.31 0 0 0-.32-.31l-7.37.13M81.82 280.14a.39.39 0 0 1 .39-.39h5.15a.39.39 0 0 0 .39-.39v-5.72a.39.39 0 0 0-.39-.39H67.84a.39.39 0 0 0-.39.4l.16 5.72a.39.39 0 0 0 .39.38h5.36a.39.39 0 0 1 .39.39v21.82a.39.39 0 0 0 .39.39l7.09-.04a.39.39 0 0 0 .38-.38l.21-21.79M141.29 293.28a.46.46 0 0 1 .86-.22l5.28 8.72q.28.46.81.46l8.82.07q.47 0 .19-.37l-8.22-10.99q-.27-.35.12-.56 7.12-3.9 4.77-11.04c-2.54-7.7-13.93-6.32-20.04-6.03a.66.66 0 0 0-.63.66l-.05 27.55q0 .65.64.66l6.67.2q.4.01.42-.39l.36-8.72M316.55 297.71a.61.61 0 0 1 .59-.46h9.83a.61.61 0 0 1 .6.48l.85 4.04a.61.61 0 0 0 .6.48h7.44a.61.61 0 0 0 .57-.82l-10.46-27.79a.61.61 0 0 0-.57-.4l-7.7.02a.61.61 0 0 0-.56.38l-11 27.77a.61.61 0 0 0 .57.83l7.6.01a.61.61 0 0 0 .59-.46l1.05-4.08M386.73 292.42l5.88 9.33q.31.5.91.5h8.63a.38.37 70.7 0 0 .29-.61l-8.35-10.71q-.39-.5.21-.7c4.05-1.34 5.89-4.59 5.37-8.84-1.21-9.8-12.57-8.3-21.08-8.07q-.4.01-.4.41l.09 28.03q0 .49.48.49h6.66a.68.68 0 0 0 .68-.67l.12-9.02q.02-.93.51-.14" vector-effect="non-scaling-stroke"/><path stroke="#949dbf" d="M375.14 155.13a.33.33 0 0 0 .32.41l14.42-.07a.33.33 0 0 0 .31-.42l-7.34-26.98a.33.33 0 0 0-.64 0l-7.07 27.06M330.13 155.2a.32.32 0 0 0 .31.39l13.86-.19a.32.32 0 0 0 .3-.41l-7.29-26.12a.32.32 0 0 0-.62 0l-6.56 26.33" vector-effect="non-scaling-stroke"/><path stroke="#e18f9f" d="M141.26 280.32v4.7a.75.75 0 0 0 .76.75h.82a3.19 2.77-.1 0 0 3.18-2.77v-.66a3.19 2.77-.1 0 0-3.2-2.77H142a.75.75 0 0 0-.74.75M322.47 284.2a.34.34 0 0 0-.64-.02l-2.62 6.66a.34.34 0 0 0 .33.46l4.7-.22a.34.34 0 0 0 .3-.44l-2.07-6.44M386.29 280.39v5a.7.7 0 0 0 .69.7h.7a3.82 2.96.1 0 0 3.83-2.96v-.48a3.82 2.96.1 0 0-3.81-2.96h-.7a.7.7 0 0 0-.71.7" vector-effect="non-scaling-stroke"/></g><path fill="#fff" d="M0 0h534v401H0V0Zm271.82 154.81q-38.1-16.83-77.55-2.36-11.17 4.09-15.72 6.83c-15.29 9.21-36.4 15.22-53.91 10.65-11.71-3.05-24.67-11.77-29.03-23.97q-.28-.79-.48.02c-.8 3.2-4.33 12.69-2 15.18 25.31 27.08 57.65 25.05 88.57 7.99 24.71-13.63 55.15-18.56 81.49-7.13q3.63 1.57 14.35 7.04.5.26.75-.25 1.98-4.13 2.96-8.52l8.41-31.53q.23-.86.47 0l10.25 36.98q.14.52.68.52l41.38-.03q.94 0 .18.56l-37.06 27.1q-.4.29-.18.73l17.29 35.29a.24.24 0 0 1-.35.31l-32.45-22.07a.4.4 0 0 0-.62.33v11.47q0 .5.42.78l54.94 36.47a.27.27 0 0 0 .4-.32l-23.79-57.62q-.22-.53.22-.88l38.86-31.87q.32-.26.72-.26h29.01q.79 0 .15.46l-37.55 27.24q-.38.28-.17.7l17.59 35.34a.34.34 0 0 1-.49.43l-32.36-21.84a.45.45 0 0 0-.7.37v11.27a1.15 1.15 0 0 0 .52.96l54.68 35.96a.27.26-84.7 0 0 .39-.33l-23.73-57.6q-.17-.4.17-.68l39.61-32.35q.36-.3.83-.3l26.73.07q.4 0 .08.23l-37.6 27.29q-.46.34-.21.85l17.32 35.49a.3.29-86.1 0 1-.43.38l-32.14-21.97a.47.47 0 0 0-.74.39l.07 11.42q0 .56.47.87l54.96 36.09a.18.18 0 0 0 .27-.22l-23.97-58.09q-.12-.32.14-.53l51.23-42.07q.71-.58-.21-.58h-62.72q-.56 0-.75-.53l-18.89-53.84q-.42-1.18-.81.01l-17.57 53.72q-.21.64-.88.64h-6.53q-.52 0-.7-.49l-19.05-53.27a.35.35 0 0 0-.67.01q-8.38 25.62-16.79 51.49c-.49 1.5.18 2.2-2.09 2.24q-3.9.06-7.91 0-.55 0-.74-.53l-18.91-53.46q-.27-.74-.6-.03-.68 1.46-1.37 3.53-9.52 28.34-16.14 49.82ZM93.69 195.08c-3.35-3.28-6.52-7.53-7.68-12.15a.31.31 0 0 0-.6 0l-3.43 12.67q-.17.61.24 1.1 24.31 28.86 62.2 20.37c16.22-3.63 28.52-11.91 40.52-16.89q21.29-8.86 44.38-7.07c14.22 1.11 26.45 6.24 38.98 13.19q.47.27.64-.25l2.6-7.95q.16-.5-.29-.76-28.63-17.03-61.11-13.79c-16.57 1.65-31.15 7.73-46.33 15.74-22.23 11.73-50.7 14.9-70.12-4.21Zm63.75 40.12c-26.15 14.28-59.21 22.55-80.83-4.49-1.9-2.37-3.16-5.04-3.9-7.86a.38.37 47.2 0 0-.72-.03c-1.26 3.73-4.71 12.06-1.99 15.16 20.14 23.02 49.68 25.62 76.5 13.74 8.92-3.95 20.47-10.45 30.39-13.81 18.45-6.26 37.31-7.42 56.31-1.56 6.86 2.12 14.27 6.17 21.25 9.5q.6.28.82-.34l2.88-7.88q.19-.53-.29-.81-36.49-21.47-77.81-10.11-14.22 3.91-22.61 8.49Zm95.55 54.09c-1.39-8.53 7.26-11.1 13.11-6.43a.55.55 0 0 0 .89-.43l.01-7.98q0-.5-.46-.66-12.37-4.51-19.51 5.24c-4.06 5.54-3.29 13.67 1.23 18.77 3.64 4.1 13.11 7.75 18.41 3.61q.42-.33.41-.86l-.12-7.5q-.02-.8-.65-.31c-4.89 3.8-12.16 3.71-13.32-3.45Zm-49.484-15.497a.57.57 0 0 0-.571-.569l-6.88.012a.57.57 0 0 0-.57.571l.05 27.96a.57.57 0 0 0 .57.569l6.88-.012a.57.57 0 0 0 .57-.571l-.05-27.96ZM451.82 284.17a.31.31 0 0 1-.31-.28l-.4-3.8a.31.31 0 0 1 .3-.34h8.34a.31.31 0 0 0 .31-.3l.13-5.86a.31.31 0 0 0-.31-.32l-16.1-.05a.31.31 0 0 0-.31.31l.05 28.54a.31.31 0 0 0 .31.31l16.11-.19a.31.31 0 0 0 .31-.31v-6.39a.31.31 0 0 0-.32-.31l-8.03.25a.31.31 0 0 1-.32-.28l-.41-3.81a.31.31 0 0 1 .31-.34h7.7a.31.31 0 0 0 .31-.31l.02-6.34a.31.31 0 0 0-.32-.31l-7.37.13Zm-370-4.03a.39.39 0 0 1 .39-.39h5.15a.39.39 0 0 0 .39-.39v-5.72a.39.39 0 0 0-.39-.39H67.84a.39.39 0 0 0-.39.4l.16 5.72a.39.39 0 0 0 .39.38h5.36a.39.39 0 0 1 .39.39v21.82a.39.39 0 0 0 .39.39l7.09-.04a.39.39 0 0 0 .38-.38l.21-21.79Zm59.47 13.14a.46.46 0 0 1 .86-.22l5.28 8.72q.28.46.81.46l8.82.07q.47 0 .19-.37l-8.22-10.99q-.27-.35.12-.56 7.12-3.9 4.77-11.04c-2.54-7.7-13.93-6.32-20.04-6.03a.66.66 0 0 0-.63.66l-.05 27.55q0 .65.64.66l6.67.2q.4.01.42-.39l.36-8.72Zm175.26 4.43a.61.61 0 0 1 .59-.46h9.83a.61.61 0 0 1 .6.48l.85 4.04a.61.61 0 0 0 .6.48h7.44a.61.61 0 0 0 .57-.82l-10.46-27.79a.61.61 0 0 0-.57-.4l-7.7.02a.61.61 0 0 0-.56.38l-11 27.77a.61.61 0 0 0 .57.83l7.6.01a.61.61 0 0 0 .59-.46l1.05-4.08Zm70.18-5.29 5.88 9.33q.31.5.91.5h8.63a.38.37 70.7 0 0 .29-.61l-8.35-10.71q-.39-.5.21-.7c4.05-1.34 5.89-4.59 5.37-8.84-1.21-9.8-12.57-8.3-21.08-8.07q-.4.01-.4.41l.09 28.03q0 .49.48.49h6.66a.68.68 0 0 0 .68-.67l.12-9.02q.02-.93.51-.14Z"/><path fill="#283b7e" d="m281.25 160.29-9.43-5.48q6.62-21.48 16.14-49.82.69-2.07 1.37-3.53.33-.71.6.03l18.91 53.46q.19.53.74.53 4.01.06 7.91 0c2.27-.04 1.6-.74 2.09-2.24q8.41-25.87 16.79-51.49a.35.35 0 0 1 .67-.01l19.05 53.27q.18.49.7.49h6.53q.67 0 .88-.64l17.57-53.72q.39-1.19.81-.01l18.89 53.84q.19.53.75.53h62.72q.92 0 .21.58l-51.23 42.07q-.26.21-.14.53l23.97 58.09a.18.18 0 0 1-.27.22l-54.96-36.09q-.47-.31-.47-.87l-.07-11.42a.47.47 0 0 1 .74-.39l32.14 21.97a.3.29-86.1 0 0 .43-.38l-17.32-35.49q-.25-.51.21-.85l37.6-27.29q.32-.23-.08-.23l-26.73-.07q-.47 0-.83.3l-39.61 32.35q-.34.28-.17.68l23.73 57.6a.27.26-84.7 0 1-.39.33l-54.68-35.96a1.15 1.15 0 0 1-.52-.96v-11.27a.45.45 0 0 1 .7-.37l32.36 21.84a.34.34 0 0 0 .49-.43l-17.59-35.34q-.21-.42.17-.7l37.55-27.24q.64-.46-.15-.46h-29.01q-.4 0-.72.26l-38.86 31.87q-.44.35-.22.88l23.79 57.62a.27.27 0 0 1-.4.32l-54.94-36.47q-.42-.28-.42-.78v-11.47a.4.4 0 0 1 .62-.33l32.45 22.07a.24.24 0 0 0 .35-.31l-17.29-35.29q-.22-.44.18-.73l37.06-27.1q.76-.56-.18-.56l-41.38.03q-.54 0-.68-.52l-10.25-36.98q-.24-.86-.47 0l-8.41 31.53Zm93.89-5.16a.33.33 0 0 0 .32.41l14.42-.07a.33.33 0 0 0 .31-.42l-7.34-26.98a.33.33 0 0 0-.64 0l-7.07 27.06Zm-45.01.07a.32.32 0 0 0 .31.39l13.86-.19a.32.32 0 0 0 .3-.41l-7.29-26.12a.32.32 0 0 0-.62 0l-6.56 26.33Z"/><path fill="#fff" d="m375.14 155.13 7.07-27.06a.33.33 0 0 1 .64 0l7.34 26.98a.33.33 0 0 1-.31.42l-14.42.07a.33.33 0 0 1-.32-.41ZM330.13 155.2l6.56-26.33a.32.32 0 0 1 .62 0l7.29 26.12a.32.32 0 0 1-.3.41l-13.86.19a.32.32 0 0 1-.31-.39Z"/><path fill="#c21e3e" d="m271.82 154.81 9.43 5.48q-.98 4.39-2.96 8.52-.25.51-.75.25-10.72-5.47-14.35-7.04c-26.34-11.43-56.78-6.5-81.49 7.13-30.92 17.06-63.26 19.09-88.57-7.99-2.33-2.49 1.2-11.98 2-15.18q.2-.81.48-.02c4.36 12.2 17.32 20.92 29.03 23.97 17.51 4.57 38.62-1.44 53.91-10.65q4.55-2.74 15.72-6.83 39.45-14.47 77.55 2.36Z"/><path fill="#c21e3e" d="M86.01 182.93c1.16 4.62 4.33 8.87 7.68 12.15 19.42 19.11 47.89 15.94 70.12 4.21 15.18-8.01 29.76-14.09 46.33-15.74q32.48-3.24 61.11 13.79.45.26.29.76l-2.6 7.95q-.17.52-.64.25c-12.53-6.95-24.76-12.08-38.98-13.19q-23.09-1.79-44.38 7.07c-12 4.98-24.3 13.26-40.52 16.89q-37.89 8.49-62.2-20.37-.41-.49-.24-1.1l3.43-12.67a.31.31 0 0 1 .6 0Z"/><path fill="#c21e3e" d="M76.61 230.71c21.62 27.04 54.68 18.77 80.83 4.49q8.39-4.58 22.61-8.49 41.32-11.36 77.81 10.11.48.28.29.81l-2.88 7.88q-.22.62-.82.34c-6.98-3.33-14.39-7.38-21.25-9.5-19-5.86-37.86-4.7-56.31 1.56-9.92 3.36-21.47 9.86-30.39 13.81C119.68 263.6 90.14 261 70 237.98c-2.72-3.1.73-11.43 1.99-15.16a.38.37 47.2 0 1 .72.03c.74 2.82 2 5.49 3.9 7.86ZM266.1 282.86c-5.85-4.67-14.5-2.1-13.11 6.43 1.16 7.16 8.43 7.25 13.32 3.45q.63-.49.65.31l.12 7.5q.01.53-.41.86c-5.3 4.14-14.77.49-18.41-3.61-4.52-5.1-5.29-13.23-1.23-18.77q7.14-9.75 19.51-5.24.46.16.46.66l-.01 7.98a.55.55 0 0 1-.89.43Z"/><rect width="8.02" height="29.1" x="-4.01" y="-14.55" fill="#c21e3e" rx=".57" transform="rotate(-.1 164985.512 -114172.62)"/><path fill="#c21e3e" d="m451.82 284.17 7.37-.13a.31.31 0 0 1 .32.31l-.02 6.34a.31.31 0 0 1-.31.31h-7.7a.31.31 0 0 0-.31.34l.41 3.81a.31.31 0 0 0 .32.28l8.03-.25a.31.31 0 0 1 .32.31v6.39a.31.31 0 0 1-.31.31l-16.11.19a.31.31 0 0 1-.31-.31l-.05-28.54a.31.31 0 0 1 .31-.31l16.1.05a.31.31 0 0 1 .31.32l-.13 5.86a.31.31 0 0 1-.31.3h-8.34a.31.31 0 0 0-.3.34l.4 3.8a.31.31 0 0 0 .31.28ZM81.82 280.14l-.21 21.79a.39.39 0 0 1-.38.38l-7.09.04a.39.39 0 0 1-.39-.39v-21.82a.39.39 0 0 0-.39-.39H68a.39.39 0 0 1-.39-.38l-.16-5.72a.39.39 0 0 1 .39-.4h19.52a.39.39 0 0 1 .39.39v5.72a.39.39 0 0 1-.39.39h-5.15a.39.39 0 0 0-.39.39ZM141.29 293.28l-.36 8.72q-.02.4-.42.39l-6.67-.2q-.64-.01-.64-.66l.05-27.55a.66.66 0 0 1 .63-.66c6.11-.29 17.5-1.67 20.04 6.03q2.35 7.14-4.77 11.04-.39.21-.12.56l8.22 10.99q.28.37-.19.37l-8.82-.07q-.53 0-.81-.46l-5.28-8.72a.46.46 0 0 0-.86.22Zm-.03-12.96v4.7a.75.75 0 0 0 .76.75h.82a3.19 2.77-.1 0 0 3.18-2.77v-.66a3.19 2.77-.1 0 0-3.2-2.77H142a.75.75 0 0 0-.74.75ZM316.55 297.71l-1.05 4.08a.61.61 0 0 1-.59.46l-7.6-.01a.61.61 0 0 1-.57-.83l11-27.77a.61.61 0 0 1 .56-.38l7.7-.02a.61.61 0 0 1 .57.4l10.46 27.79a.61.61 0 0 1-.57.82h-7.44a.61.61 0 0 1-.6-.48l-.85-4.04a.61.61 0 0 0-.6-.48h-9.83a.61.61 0 0 0-.59.46Zm5.92-13.51a.34.34 0 0 0-.64-.02l-2.62 6.66a.34.34 0 0 0 .33.46l4.7-.22a.34.34 0 0 0 .3-.44l-2.07-6.44ZM386.22 292.56l-.12 9.02a.68.68 0 0 1-.68.67h-6.66q-.48 0-.48-.49l-.09-28.03q0-.4.4-.41c8.51-.23 19.87-1.73 21.08 8.07.52 4.25-1.32 7.5-5.37 8.84q-.6.2-.21.7l8.35 10.71a.38.37 70.7 0 1-.29.61h-8.63q-.6 0-.91-.5l-5.88-9.33q-.49-.79-.51.14Zm.07-12.17v5a.7.7 0 0 0 .69.7h.7a3.82 2.96.1 0 0 3.83-2.96v-.48a3.82 2.96.1 0 0-3.81-2.96h-.7a.7.7 0 0 0-.71.7Z"/><path fill="#fff" d="M141.26 280.32a.75.75 0 0 1 .74-.75h.82a3.19 2.77-.1 0 1 3.2 2.77v.66a3.19 2.77-.1 0 1-3.18 2.77h-.82a.75.75 0 0 1-.76-.75v-4.7ZM386.29 280.39a.7.7 0 0 1 .71-.7h.7a3.82 2.96.1 0 1 3.81 2.96v.48a3.82 2.96.1 0 1-3.83 2.96h-.7a.7.7 0 0 1-.69-.7v-5ZM322.47 284.2l2.07 6.44a.34.34 0 0 1-.3.44l-4.7.22a.34.34 0 0 1-.33-.46l2.62-6.66a.34.34 0 0 1 .64.02Z"/></svg>