
<svg version="1.1" id="layer" xmlns="http://www.w3.org/2000/svg" xmlns:xlink="http://www.w3.org/1999/xlink" x="0px" y="0px"
	 viewBox="0 0 652 652" style="enable-background:new 0 0 652 652;" xml:space="preserve">
<style type="text/css">
	.st0{fill:#002677;}
</style>
<path class="st0" d="M51.2,406.7L51.2,406.7c6.1,2.1,12.5,3.2,19,3.1c28.6,0,48.5-20.7,48.5-60.1V232.2l10.9-5.2v124.7
	c0,40.2-20.7,63.6-50.1,63.6C69.3,415.3,59.5,412.3,51.2,406.7z M38.7,394.7L38.7,394.7c6.6,2.2,13.2,3.6,19,3.6
	c24,0,40-15.1,40-49.1v-108l10.7-5.1v114c0,35.6-18.1,53.9-43.2,53.9C56,404,46.6,400.6,38.7,394.7z M31.2,384.1L31.2,384.1
	c5.1,1.7,10.5,2.6,15.9,2.8c18.7,0,30.2-10.2,30.2-37.1v-99.6l10.5-5.1v103c0,30.2-13.8,43.8-33.6,43.8
	C45.8,392,37.7,389.2,31.2,384.1z M67.3,352.7v-98.3L21,275.3v79.8c0,15.2,9.6,25.4,23.7,25.4S67.3,370.1,67.3,352.7z M189.1,254.2
	v36.6c0,13.5,8,24.1,23.3,24.1c13.1,0,23-9.7,23-24.4v-35.4c-0.1-3.9,2.9-7.2,6.8-7.3c0,0,0.1,0,0.1,0l1.4-0.1v-3.5h-23v3.5l1.5,0.1
	c3.9,0.1,7,3.3,6.9,7.2c0,0,0,0.1,0,0.1v34.3c0,11.2-5.8,18-14.9,18s-14.6-7.2-14.6-18.1v-35.2c0-3.8,2.1-6.1,6.4-6.3l1.4-0.1v-3.5
	h-26.2v3.5l1.5,0.1C187,248.2,189.1,250.3,189.1,254.2z M220.2,332.4l1.5,0.1c3.7,0.2,6.4,1.7,6.4,5.8v21.5h-25.9v-21.5
	c0-4.2,2.8-5.5,6.4-5.8l1.4-0.1v-3.5h-26.2v3.5l1.5,0.1c3.7,0.2,6.4,1.7,6.4,5.8v50.4c0,4.2-2.8,5.6-6.4,5.8l-1.5,0.1v3.5H210v-3.5
	l-1.4-0.1c-3.7-0.3-6.4-1.7-6.4-5.8v-23.5h25.8v23.5c0,4.2-2.8,5.6-6.4,5.8l-1.5,0.1v3.5h26.2v-3.5l-1.4-0.1
	c-3.6-0.3-6.4-1.7-6.4-5.8v-50.4c0-4.2,2.8-5.5,6.4-5.8l1.4-0.1v-3.5h-26.1V332.4z M243.7,264.6v3.3l2,0.1c3,0.2,4.9,1.7,4.9,5.8
	v30.4c0,4.1-2.1,5.6-5.4,5.8l-1.5,0.1v3.4h23.4v-3.4l-1.4-0.1c-3.4-0.2-5.4-1.7-5.4-5.8V288c0.2-11.9,5.3-19,11.4-19
	c4.6,0,7.7,3.2,7.7,9.3v25.8c0,4.1-2.1,5.6-5.4,5.8l-1.5,0.1v3.4h23.4v-3.4l-1.4-0.1c-3.4-0.2-5.4-1.7-5.4-5.8v-27
	c0-7.7-4.7-14.1-14.1-14.1c-6.6,0-12.4,4-14.6,11v-10.8L243.7,264.6z M378.8,314.5c10,0,15.6-6.8,17.9-14.5l-4.3-1.2
	c-2,5.3-5.4,9.5-12.3,9.5c-8,0-13.4-7.6-13.4-19.7h30.7v-2.9c0-12.7-7.5-23-19.6-23c-12.9,0-21.5,12.4-21.5,25.9
	C356.3,302.1,364.6,314.5,378.8,314.5z M377.7,268.3c5.4,0,8.9,5.1,9.3,15.4h-20.2C367.8,274.2,371.8,268.3,377.7,268.3L377.7,268.3
	z M330.2,302.4c0,7.7,4.6,12.1,12.1,12.1c6.9,0,11.5-5.1,13.5-12.3l-3.6-1c-1.4,4.2-3.7,6.7-6.8,6.7c-4.2,0-5.5-3-5.5-6.6v-32h13.5
	v-5.1h-13.5V249h-4.9c-1.9,11.5-7.7,15.6-13.8,16.9v3.5h9.1L330.2,302.4z M309.5,255.3c3.6-0.1,6.4-3.2,6.3-6.8
	c-0.1-3.4-2.9-6.1-6.3-6.3c-3.5,0-6.3,2.9-6.3,6.4C303,252.3,305.8,255.2,309.5,255.3C309.4,255.3,309.4,255.3,309.5,255.3z
	 M304.9,273.8v30.4c0,4.1-2.1,5.6-5.4,5.8l-1.5,0.1v3.4h23.4v-3.4L320,310c-3.4-0.2-5.4-1.7-5.4-5.8v-40.9l-17.1,1.3v3.3l2.5,0.1
	C303,268,304.9,269.6,304.9,273.8z M422.6,314.5c6.5,0,11.6-3.4,13.7-9.1v8.1h16.5v-3.3l-1.4-0.1c-3.4-0.2-5.4-1.7-5.4-5.8V243
	l-16.8,1.5v3.3l2.2,0.1c3,0.1,4.9,1.7,4.9,5.8v17.8c-2.2-5.5-7.2-8.8-13.7-8.8c-12.9,0-20.3,12.4-20.3,25.9
	C402.3,302.1,409.6,314.5,422.6,314.5z M424.2,268.3c7.3,0,12.1,7.9,12.1,20.2s-4.7,20.2-12.1,20.2c-6.9,0-11.5-7.8-11.5-20.2
	S417.3,268.3,424.2,268.3z M569.6,347.5c-5.7,0-10.7,3.8-12.8,10.5v-10.1l-16.6,1.3v3.3l2,0.1c3,0.2,4.9,1.7,4.9,5.8v30.4
	c0,4.2-2,5.6-5.4,5.8l-1.5,0.1v3.4h23.4v-3.4l-1.4-0.1c-3.4-0.2-5.4-1.7-5.4-5.8v-16.6c0.2-12.3,5.5-20.1,12.1-20.1
	c1.2-0.1,2.4,0.4,3.3,1.3c-1.7,0.9-2.8,2.7-2.8,4.6c0,2.9,2.3,5.2,5.2,5.2c2.9,0,5.2-2.4,5.2-5.7
	C579.8,351.4,575.1,347.5,569.6,347.5z M601.4,347.3c-12.9,0-21.5,12.3-21.5,25.9s8.3,25.9,22.5,25.9c10,0,15.6-6.8,17.9-14.5
	l-4.3-1.2c-2,5.3-5.4,9.5-12.3,9.5c-8,0-13.4-7.6-13.4-19.7H621v-2.9C621,357.6,613.5,347.3,601.4,347.3z M590.4,368.3
	c1-9.6,4.9-15.4,10.9-15.4c5.4,0,8.9,5.1,9.3,15.4H590.4z M531.8,389.9v-25.8c0-10.6-6.6-16.8-17.8-16.8c-9.6,0-18.1,6.3-18.1,13.5
	c-0.1,2.9,2.2,5.3,5.1,5.3s5.3-2.2,5.3-5.1c0-1.9-1-3.7-2.7-4.6c1.8-2.5,4.9-4,8.8-4c6.1,0,9.7,4.5,9.7,12.1v2.3l-14.6,6.1
	c-9.8,4-13.1,7.6-13.1,14c0,7.4,5.3,12.1,13.7,12.1c6.2,0,11.7-3.9,13.9-9.7v1.5c0,5.1,3.6,8.1,9.5,8.1c2.1,0,4.2-0.3,6.2-0.9v-3.3
	C533.6,395.2,531.8,393.6,531.8,389.9z M522.1,378.7c-0.5,8.7-4.8,14.5-10.9,14.5c-4.3,0-7.1-3-7.1-7.5c0-4,2.2-7.2,6.3-9l11.7-5.2
	L522.1,378.7z M393.1,385.8c-1.4,4.1-3.6,6.7-6.8,6.7c-4.2,0-5.5-3-5.5-6.6v-32h13.5v-5.1h-13.5v-15.2h-4.9
	c-1.9,11.5-7.7,15.6-13.8,16.9v3.5h9.1V387c0,7.7,4.6,12.1,12.1,12.1c6.9,0,11.5-5.1,13.5-12.3L393.1,385.8z M330.4,389.9v-25.8
	c0-10.6-6.6-16.8-17.8-16.8c-9.6,0-18.1,6.3-18.1,13.5c-0.1,2.9,2.2,5.3,5.1,5.3s5.3-2.2,5.3-5.1c0-1.9-1-3.7-2.7-4.6
	c1.8-2.5,4.9-4,8.8-4c6.1,0,9.7,4.5,9.7,12.1v2.3l-14.6,6.1c-9.8,4-13.1,7.6-13.1,14c0,7.4,5.3,12.1,13.7,12.1
	c6.2,0,11.7-3.9,13.9-9.7v1.5c0,5.1,3.6,8.1,9.5,8.1c2.1,0,4.2-0.3,6.2-0.9v-3.3C332.3,395.2,330.4,393.6,330.4,389.9z M320.8,378.7
	c-0.5,8.7-4.8,14.5-10.9,14.5c-4.3,0-7.1-3-7.1-7.5c0-4,2.2-7.2,6.3-9l11.7-5.2L320.8,378.7z M474.8,392.8c-8,0-13.4-7.6-13.4-19.7
	c0-12.3,5.3-20.1,13.3-20.1c3.6,0,6.3,1.2,8,3.4c-1.5,1-2.5,2.7-2.5,4.5c0,2.9,2.3,5.2,5.2,5.2c3,0,5.2-2.4,5.2-5.7
	c0-5.9-5.9-13.2-16.5-13.2c-14.7,0-23.2,12.3-23.2,25.9c0,13.5,8.3,25.9,22.5,25.9c9.8,0,15.3-6.5,17.5-13.9l-4.3-1.3
	C484.8,388.9,481.5,392.8,474.8,392.8z M355.4,388.8v-61.1l-16.8,1.4v3.3l2.2,0.1c3,0.1,4.9,1.7,4.9,5.8v50.5c0,4.2-2.1,5.6-5.4,5.8
	l-1.5,0.1v3.4h23.4v-3.3l-1.4-0.1C357.5,394.4,355.4,392.9,355.4,388.8z M442,388.8v-27c0-7.7-4.7-14.1-14.1-14.1
	c-6.6,0-12.4,3.9-14.6,11v-31l-16.8,1.4v3.3l2.2,0.1c3,0.1,4.9,1.7,4.9,5.8v50.5c0,4.2-2.1,5.6-5.4,5.8l-1.5,0.1v3.4H420v-3.3
	l-1.4-0.1c-3.4-0.2-5.4-1.7-5.4-5.8v-16.2c0.2-11.8,5.3-19,11.4-19c4.6,0,7.7,3.2,7.7,9.3v25.9c0,4.2-2.1,5.6-5.4,5.8l-1.5,0.1v3.4
	h23.4v-3.4l-1.4-0.1C444,394.4,442,392.9,442,388.8z M269.8,347.3c-12.9,0-21.5,12.4-21.5,25.9c0,13.5,8.3,25.9,22.5,25.9
	c10,0,15.6-6.8,17.9-14.5l-4.3-1.2c-2,5.3-5.4,9.5-12.3,9.5c-8,0-13.4-7.6-13.4-19.7h30.7v-2.9C289.4,357.6,281.8,347.3,269.8,347.3
	z M258.8,368.3c1-9.6,4.9-15.4,10.9-15.4c5.4,0,8.9,5.1,9.3,15.4H258.8z"/>
</svg>
